Yantramanav-ThinItalic.ufo
<glyph name="numbersign" format="1">
  <advance width="1139"/>
  <unicode hex="0023"/>
  <outline>
    <contour>
      <point x="680" y="369" type="line"/>
      <point x="353" y="369" type="line"/>
      <point x="286" y="0" type="line"/>
      <point x="236" y="0" type="line"/>
      <point x="302" y="369" type="line"/>
      <point x="59" y="369" type="line"/>
      <point x="59" y="416" type="line"/>
      <point x="311" y="416" type="line"/>
      <point x="397" y="887" type="line"/>
      <point x="127" y="887" type="line"/>
      <point x="127" y="936" type="line"/>
      <point x="406" y="936" type="line"/>
      <point x="473" y="1310" type="line"/>
      <point x="524" y="1310" type="line"/>
      <point x="455" y="936" type="line"/>
      <point x="784" y="936" type="line"/>
      <point x="852" y="1310" type="line"/>
      <point x="903" y="1310" type="line"/>
      <point x="834" y="936" type="line"/>
      <point x="1063" y="936" type="line"/>
      <point x="1063" y="887" type="line"/>
      <point x="825" y="887" type="line"/>
      <point x="739" y="416" type="line"/>
      <point x="995" y="416" type="line"/>
      <point x="995" y="369" type="line"/>
      <point x="731" y="369" type="line"/>
      <point x="663" y="0" type="line"/>
      <point x="613" y="0" type="line"/>
    </contour>
    <contour>
      <point x="362" y="416" type="line"/>
      <point x="689" y="416" type="line"/>
      <point x="775" y="887" type="line"/>
      <point x="446" y="887" type="line"/>
    </contour>
  </outline>
</glyph>
<glyph name="zero" format="1">
  <advance width="1050"/>
  <unicode hex="0030"/>
  <outline>
    <contour>
      <point x="924" y="515" type="line" smooth="yes"/>
      <point x="924" y="258"/>
      <point x="716" y="-21"/>
      <point x="527" y="-21" type="qcurve" smooth="yes"/>
      <point x="337" y="-21"/>
      <point x="126" y="259"/>
      <point x="126" y="515" type="qcurve" smooth="yes"/>
      <point x="126" y="792" type="line" smooth="yes"/>
      <point x="126" y="1047"/>
      <point x="335" y="1327"/>
      <point x="525" y="1327" type="qcurve" smooth="yes"/>
      <point x="715" y="1327"/>
      <point x="924" y="1047"/>
      <point x="924" y="792" type="qcurve" smooth="yes"/>
    </contour>
    <contour>
      <point x="876" y="792" type="line" smooth="yes"/>
      <point x="876" y="1020"/>
      <point x="696" y="1279"/>
      <point x="525" y="1279" type="qcurve" smooth="yes"/>
      <point x="354" y="1279"/>
      <point x="175" y="1020"/>
      <point x="175" y="792" type="qcurve" smooth="yes"/>
      <point x="175" y="516" type="line" smooth="yes"/>
      <point x="175" y="290"/>
      <point x="356" y="28"/>
      <point x="527" y="28" type="qcurve" smooth="yes"/>
      <point x="697" y="28"/>
      <point x="876" y="289"/>
      <point x="876" y="516" type="qcurve" smooth="yes"/>
    </contour>
  </outline>
</glyph>
<glyph name="seven" format="1">
  <advance width="1009"/>
  <unicode hex="0037"/>
  <outline>
    <contour>
      <point x="906" y="1262" type="line"/>
      <point x="713" y="1037"/>
      <point x="442" y="460"/>
      <point x="401" y="82" type="qcurve" smooth="yes"/>
      <point x="396" y="0" type="line"/>
      <point x="347" y="0" type="line"/>
      <point x="353" y="82" type="line" smooth="yes"/>
      <point x="392" y="437"/>
      <point x="644" y="1022"/>
      <point x="848" y="1262" type="qcurve"/>
      <point x="69" y="1262" type="line"/>
      <point x="69" y="1310" type="line"/>
      <point x="906" y="1310" type="line"/>
    </contour>
  </outline>
</glyph>
<glyph name="question" format="1">
  <advance width="934"/>
  <unicode hex="003F"/>
  <outline>
    <contour>
      <point x="420" y="360" type="line"/>
      <point x="421" y="465"/>
      <point x="456" y="553"/>
      <point x="533" y="623" type="qcurve"/>
      <point x="642" y="727"/>
      <point x="737" y="874"/>
      <point x="737" y="1001" type="qcurve"/>
      <point x="737" y="1132"/>
      <point x="597" y="1282"/>
      <point x="468" y="1282" type="qcurve"/>
      <point x="340" y="1282"/>
      <point x="200" y="1129"/>
      <point x="197" y="1004" type="qcurve"/>
      <point x="156" y="1004" type="line"/>
      <point x="153" y="1010" type="line"/>
      <point x="151" y="1163"/>
      <point x="329" y="1329"/>
      <point x="468" y="1329" type="qcurve"/>
      <point x="616" y="1329"/>
      <point x="786" y="1147"/>
      <point x="786" y="999" type="qcurve"/>
      <point x="786" y="872"/>
      <point x="673" y="688"/>
      <point x="558" y="585" type="qcurve"/>
      <point x="496" y="537"/>
      <point x="469" y="450"/>
      <point x="469" y="360" type="qcurve"/>
    </contour>
    <contour>
      <point x="491" y="0" type="line"/>
      <point x="417" y="0" type="line"/>
      <point x="417" y="95" type="line"/>
      <point x="491" y="95" type="line"/>
    </contour>
  </outline>
</glyph>
<glyph name="A" format="1">
  <advance width="1076"/>
  <unicode hex="0041"/>
  <outline>
    <contour>
      <point x="820" y="392" type="line"/>
      <point x="199" y="392" type="line"/>
      <point x="-11" y="0" type="line"/>
      <point x="-65" y="0" type="line"/>
      <point x="635" y="1310" type="line"/>
      <point x="694" y="1310" type="line"/>
      <point x="946" y="0" type="line"/>
      <point x="895" y="0" type="line"/>
    </contour>
    <contour>
      <point x="224" y="440" type="line"/>
      <point x="810" y="440" type="line"/>
      <point x="659" y="1249" type="line"/>
    </contour>
  </outline>
</glyph>
<glyph name="B" format="1">
  <advance width="1087"/>
  <unicode hex="0042"/>
  <outline>
    <contour>
      <point x="80" y="0" type="line"/>
      <point x="308" y="1310" type="line"/>
      <point x="638" y="1310" type="line" smooth="yes"/>
      <point x="833" y="1309"/>
      <point x="1026" y="1130"/>
      <point x="1001" y="975" type="qcurve" smooth="yes"/>
      <point x="981" y="860"/>
      <point x="839" y="704"/>
      <point x="725" y="677" type="qcurve"/>
      <point x="841" y="657"/>
      <point x="970" y="477"/>
      <point x="952" y="361" type="qcurve" smooth="yes"/>
      <point x="926" y="196"/>
      <point x="672" y="0"/>
      <point x="489" y="0" type="qcurve" smooth="yes"/>
    </contour>
    <contour>
      <point x="241" y="647" type="line"/>
      <point x="138" y="49" type="line"/>
      <point x="488" y="49" type="line" smooth="yes"/>
      <point x="653" y="49"/>
      <point x="877" y="216"/>
      <point x="904" y="359" type="qcurve" smooth="yes"/>
      <point x="927" y="487"/>
      <point x="761" y="647"/>
      <point x="608" y="647" type="qcurve" smooth="yes"/>
    </contour>
    <contour>
      <point x="249" y="696" type="line"/>
      <point x="535" y="696" type="line" smooth="yes"/>
      <point x="711" y="696"/>
      <point x="926" y="841"/>
      <point x="952" y="978" type="qcurve" smooth="yes"/>
      <point x="977" y="1110"/>
      <point x="818" y="1257"/>
      <point x="646" y="1262" type="qcurve" smooth="yes"/>
      <point x="348" y="1262" type="line"/>
    </contour>
  </outline>
</glyph>
<glyph name="C" format="1">
  <advance width="1167"/>
  <unicode hex="0043"/>
  <outline>
    <contour>
      <point x="1015" y="399" type="line"/>
      <point x="961" y="204"/>
      <point x="689" y="-20"/>
      <point x="494" y="-20" type="qcurve" smooth="yes"/>
      <point x="380" y="-20"/>
      <point x="210" y="88"/>
      <point x="164" y="191" type="qcurve" smooth="yes" name="inserted"/>
      <point x="142" y="242" name="inserted"/>
      <point x="119" y="357"/>
      <point x="119" y="420" type="qcurve" smooth="yes"/>
      <point x="118" y="456" name="inserted"/>
      <point x="124" y="526"/>
      <point x="130" y="561" type="qcurve" smooth="yes"/>
      <point x="159" y="736" type="line" smooth="yes"/>
      <point x="203" y="996"/>
      <point x="506" y="1326"/>
      <point x="718" y="1326" type="qcurve" smooth="yes"/>
      <point x="906" y="1326"/>
      <point x="1113" y="1104"/>
      <point x="1104" y="909" type="qcurve"/>
      <point x="1057" y="909" type="line"/>
      <point x="1064" y="1083"/>
      <point x="887" y="1278"/>
      <point x="719" y="1278" type="qcurve" smooth="yes"/>
      <point x="600" y="1278"/>
      <point x="392" y="1152"/>
      <point x="315" y="1027" type="qcurve" smooth="yes" name="inserted"/>
      <point x="276" y="965" name="inserted"/>
      <point x="224" y="823"/>
      <point x="210" y="743" type="qcurve" smooth="yes"/>
      <point x="176" y="555" type="line" smooth="yes"/>
      <point x="171" y="525" name="inserted"/>
      <point x="167" y="465"/>
      <point x="167" y="435" type="qcurve"/>
      <point x="165" y="317"/>
      <point x="241" y="129"/>
      <point x="316" y="79" type="qcurve" smooth="yes" name="inserted"/>
      <point x="353" y="54" name="inserted"/>
      <point x="442" y="29"/>
      <point x="493" y="29" type="qcurve" smooth="yes"/>
      <point x="670" y="29"/>
      <point x="913" y="223"/>
      <point x="967" y="399" type="qcurve"/>
    </contour>
  </outline>
</glyph>
<glyph name="D" format="1">
  <advance width="1179.0"/>
  <unicode hex="0044"/>
  <outline>
    <contour>
      <point x="80" y="0" type="line"/>
      <point x="308" y="1310" type="line"/>
      <point x="656" y="1310" type="line" smooth="yes"/>
      <point x="779" y="1309"/>
      <point x="971" y="1202"/>
      <point x="1028" y="1103" type="qcurve" smooth="yes" name="inserted"/>
      <point x="1056" y="1054" name="inserted"/>
      <point x="1089" y="943"/>
      <point x="1093" y="881" type="qcurve" smooth="yes"/>
      <point x="1095" y="843" name="inserted"/>
      <point x="1091" y="768"/>
      <point x="1085" y="730" type="qcurve" smooth="yes"/>
      <point x="1060" y="585" type="line" smooth="yes"/>
      <point x="1032" y="420"/>
      <point x="854" y="152"/>
      <point x="722" y="77" type="qcurve" smooth="yes" name="inserted"/>
      <point x="656" y="39" name="inserted"/>
      <point x="514" y="0"/>
      <point x="439" y="0" type="qcurve" smooth="yes"/>
    </contour>
    <contour>
      <point x="348" y="1262" type="line"/>
      <point x="138" y="49" type="line"/>
      <point x="425" y="49" type="line" smooth="yes"/>
      <point x="641" y="49"/>
      <point x="969" y="352"/>
      <point x="1013" y="595" type="qcurve" smooth="yes"/>
      <point x="1038" y="738" type="line" smooth="yes"/>
      <point x="1046" y="788" name="inserted"/>
      <point x="1047" y="885"/>
      <point x="1039" y="932" type="qcurve" smooth="yes"/>
      <point x="1011" y="1082"/>
      <point x="807" y="1259"/>
      <point x="659" y="1262" type="qcurve" smooth="yes"/>
    </contour>
  </outline>
</glyph>
<glyph name="E" format="1">
  <advance width="1027"/>
  <unicode hex="0045"/>
  <outline>
    <contour>
      <point x="880" y="650" type="line"/>
      <point x="242" y="650" type="line"/>
      <point x="138" y="49" type="line"/>
      <point x="863" y="49" type="line"/>
      <point x="856" y="0" type="line"/>
      <point x="80" y="0" type="line"/>
      <point x="308" y="1310" type="line"/>
      <point x="1082" y="1310" type="line"/>
      <point x="1075" y="1262" type="line"/>
      <point x="348" y="1262" type="line"/>
      <point x="250" y="698" type="line"/>
      <point x="887" y="698" type="line"/>
    </contour>
  </outline>
</glyph>
<glyph name="F" format="1">
  <advance width="1032"/>
  <unicode hex="0046"/>
  <outline>
    <contour>
      <point x="893" y="644" type="line"/>
      <point x="241" y="644" type="line"/>
      <point x="130" y="0" type="line"/>
      <point x="81" y="0" type="line"/>
      <point x="308" y="1310" type="line"/>
      <point x="1095" y="1310" type="line"/>
      <point x="1089" y="1262" type="line"/>
      <point x="348" y="1262" type="line"/>
      <point x="249" y="695" type="line"/>
      <point x="900" y="695" type="line"/>
    </contour>
  </outline>
</glyph>
<glyph name="G" format="1">
  <advance width="1237"/>
  <unicode hex="0047"/>
  <outline>
    <contour>
      <point x="1004" y="138" type="line"/>
      <point x="938" y="64"/>
      <point x="695" y="-20"/>
      <point x="545" y="-20" type="qcurve" smooth="yes"/>
      <point x="366" y="-20"/>
      <point x="149" y="218"/>
      <point x="140" y="417" type="qcurve" smooth="yes"/>
      <point x="139" y="452" name="inserted"/>
      <point x="144" y="522"/>
      <point x="149" y="556" type="qcurve" smooth="yes"/>
      <point x="185" y="765" type="line" smooth="yes"/>
      <point x="213" y="926"/>
      <point x="379" y="1185"/>
      <point x="498" y="1256" type="qcurve" smooth="yes" name="inserted"/>
      <point x="557" y="1291" name="inserted"/>
      <point x="685" y="1326"/>
      <point x="754" y="1326" type="qcurve" smooth="yes"/>
      <point x="932" y="1326"/>
      <point x="1146" y="1125"/>
      <point x="1142" y="954" type="qcurve"/>
      <point x="1094" y="954" type="line"/>
      <point x="1094" y="1109"/>
      <point x="911" y="1278"/>
      <point x="754" y="1278" type="qcurve" smooth="yes"/>
      <point x="562" y="1278"/>
      <point x="274" y="986"/>
      <point x="233" y="756" type="qcurve" smooth="yes" name="inserted"/>
      <point x="193" y="526"/>
      <point x="188" y="462"/>
      <point x="189" y="430" type="qcurve" smooth="yes"/>
      <point x="192" y="247"/>
      <point x="381" y="29"/>
      <point x="544" y="29" type="qcurve" smooth="yes"/>
      <point x="671" y="29"/>
      <point x="887" y="96"/>
      <point x="956" y="161" type="qcurve"/>
      <point x="1023" y="543" type="line"/>
      <point x="636" y="543" type="line"/>
      <point x="643" y="592" type="line"/>
      <point x="1081" y="592" type="line"/>
    </contour>
  </outline>
</glyph>
<glyph name="H" format="1">
  <advance width="1265"/>
  <unicode hex="0048"/>
  <outline>
    <contour>
      <point x="989" y="0" type="line"/>
      <point x="941" y="0" type="line"/>
      <point x="1052" y="650" type="line"/>
      <point x="242" y="650" type="line"/>
      <point x="130" y="0" type="line"/>
      <point x="81" y="0" type="line"/>
      <point x="307" y="1310" type="line"/>
      <point x="356" y="1310" type="line"/>
      <point x="250" y="698" type="line"/>
      <point x="1060" y="698" type="line"/>
      <point x="1166" y="1310" type="line"/>
      <point x="1214" y="1310" type="line"/>
    </contour>
  </outline>
</glyph>
<glyph name="I" format="1">
  <advance width="475"/>
  <unicode hex="0049"/>
  <outline>
    <contour>
      <point x="165" y="0" type="line"/>
      <point x="116" y="0" type="line"/>
      <point x="342" y="1310" type="line"/>
      <point x="391" y="1310" type="line"/>
    </contour>
  </outline>
</glyph>
<glyph name="J" format="1">
  <advance width="991"/>
  <unicode hex="004A"/>
  <outline>
    <contour>
      <point x="911" y="1308" type="line"/>
      <point x="959" y="1308" type="line"/>
      <point x="805" y="411" type="line" smooth="yes"/>
      <point x="770" y="213"/>
      <point x="532" y="-20"/>
      <point x="367" y="-20" type="qcurve" smooth="yes"/>
      <point x="196" y="-20"/>
      <point x="34" y="190"/>
      <point x="60" y="359" type="qcurve"/>
      <point x="109" y="359" type="line"/>
      <point x="103" y="323" name="inserted"/>
      <point x="102" y="257"/>
      <point x="107" y="227" type="qcurve" smooth="yes"/>
      <point x="122" y="130"/>
      <point x="257" y="29"/>
      <point x="366" y="29" type="qcurve" smooth="yes"/>
      <point x="513" y="29"/>
      <point x="725" y="241"/>
      <point x="755" y="411" type="qcurve" smooth="yes"/>
    </contour>
  </outline>
</glyph>
<glyph name="K" format="1">
  <advance width="1144"/>
  <unicode hex="004B"/>
  <outline>
    <contour>
      <point x="455" y="689" type="line"/>
      <point x="214" y="493" type="line"/>
      <point x="130" y="0" type="line"/>
      <point x="81" y="0" type="line"/>
      <point x="307" y="1310" type="line"/>
      <point x="356" y="1310" type="line"/>
      <point x="225" y="558" type="line"/>
      <point x="466" y="763" type="line"/>
      <point x="1089" y="1310" type="line"/>
      <point x="1165" y="1310" type="line"/>
      <point x="491" y="719" type="line"/>
      <point x="978" y="0" type="line"/>
      <point x="919" y="0" type="line"/>
    </contour>
  </outline>
</glyph>
<glyph name="L" format="1">
  <advance width="932"/>
  <unicode hex="004C"/>
  <outline>
    <contour>
      <point x="139" y="49" type="line"/>
      <point x="789" y="49" type="line"/>
      <point x="783" y="0" type="line"/>
      <point x="80" y="0" type="line"/>
      <point x="307" y="1310" type="line"/>
      <point x="356" y="1310" type="line"/>
    </contour>
  </outline>
</glyph>
<glyph name="M" format="1">
  <advance width="1542"/>
  <unicode hex="004D"/>
  <outline>
    <contour>
      <point x="374" y="1310" type="line"/>
      <point x="682" y="73" type="line"/>
      <point x="1421" y="1310" type="line"/>
      <point x="1493" y="1310" type="line"/>
      <point x="1266" y="0" type="line"/>
      <point x="1218" y="0" type="line"/>
      <point x="1431" y="1230" type="line"/>
      <point x="693" y="0" type="line"/>
      <point x="655" y="0" type="line"/>
      <point x="343" y="1232" type="line"/>
      <point x="130" y="0" type="line"/>
      <point x="81" y="0" type="line"/>
      <point x="308" y="1310" type="line"/>
    </contour>
  </outline>
</glyph>
<glyph name="N" format="1">
  <advance width="1274"/>
  <unicode hex="004E"/>
  <outline>
    <contour>
      <point x="999" y="0" type="line"/>
      <point x="952" y="0" type="line"/>
      <point x="344" y="1229" type="line"/>
      <point x="131" y="0" type="line"/>
      <point x="81" y="0" type="line"/>
      <point x="306" y="1310" type="line"/>
      <point x="354" y="1310" type="line"/>
      <point x="963" y="84" type="line"/>
      <point x="1175" y="1310" type="line"/>
      <point x="1224" y="1310" type="line"/>
    </contour>
  </outline>
</glyph>
<glyph name="O" format="1">
  <advance width="1200"/>
  <unicode hex="004F"/>
  <outline>
    <contour>
      <point x="504" y="-20" type="qcurve" smooth="yes"/>
      <point x="387" y="-20"/>
      <point x="210" y="86"/>
      <point x="161" y="188" type="qcurve" smooth="yes" name="inserted"/>
      <point x="137" y="239" name="inserted"/>
      <point x="111" y="353"/>
      <point x="109" y="417" type="qcurve" smooth="yes"/>
      <point x="108" y="451" name="inserted"/>
      <point x="113" y="520"/>
      <point x="119" y="555" type="qcurve" smooth="yes"/>
      <point x="149" y="735" type="line" smooth="yes"/>
      <point x="179" y="911"/>
      <point x="347" y="1184"/>
      <point x="468" y="1255" type="qcurve" smooth="yes" name="inserted"/>
      <point x="528" y="1291" name="inserted"/>
      <point x="657" y="1326"/>
      <point x="727" y="1326" type="qcurve" smooth="yes"/>
      <point x="845" y="1326"/>
      <point x="1022" y="1219"/>
      <point x="1071" y="1117" type="qcurve" smooth="yes" name="inserted"/>
      <point x="1095" y="1066" name="inserted"/>
      <point x="1121" y="953"/>
      <point x="1122" y="891" type="qcurve" smooth="yes"/>
      <point x="1123" y="853" name="inserted"/>
      <point x="1117" y="781"/>
      <point x="1112" y="746" type="qcurve" smooth="yes"/>
      <point x="1081" y="565" type="line" smooth="yes"/>
      <point x="1053" y="399"/>
      <point x="888" y="128"/>
      <point x="768" y="54" type="qcurve" smooth="yes" name="inserted"/>
      <point x="707" y="17" name="inserted"/>
      <point x="576" y="-20"/>
    </contour>
    <contour>
      <point x="1076" y="879" type="qcurve" smooth="yes"/>
      <point x="1073" y="1065"/>
      <point x="889" y="1278"/>
      <point x="727" y="1278" type="qcurve" smooth="yes"/>
      <point x="528" y="1278"/>
      <point x="241" y="977"/>
      <point x="199" y="733" type="qcurve" smooth="yes"/>
      <point x="167" y="550" type="line" smooth="yes"/>
      <point x="162" y="520" name="inserted"/>
      <point x="158" y="459"/>
      <point x="158" y="429" type="qcurve" smooth="yes"/>
      <point x="158" y="245"/>
      <point x="342" y="29"/>
      <point x="504" y="29" type="qcurve" smooth="yes"/>
      <point x="627" y="29"/>
      <point x="842" y="151"/>
      <point x="920" y="273" type="qcurve" smooth="yes" name="inserted"/>
      <point x="959" y="333" name="inserted"/>
      <point x="1013" y="472"/>
      <point x="1029" y="551" type="qcurve" smooth="yes"/>
      <point x="1064" y="748" type="line" smooth="yes"/>
      <point x="1070" y="781" name="inserted"/>
      <point x="1076" y="846"/>
    </contour>
  </outline>
</glyph>
<glyph name="P" format="1">
  <advance width="1083"/>
  <unicode hex="0050"/>
  <outline>
    <contour>
      <point x="225" y="554" type="line"/>
      <point x="130" y="0" type="line"/>
      <point x="81" y="0" type="line"/>
      <point x="308" y="1310" type="line"/>
      <point x="701" y="1310" type="line" smooth="yes"/>
      <point x="884" y="1309"/>
      <point x="1078" y="1102"/>
      <point x="1050" y="928" type="qcurve" smooth="yes"/>
      <point x="1022" y="754"/>
      <point x="766" y="554"/>
      <point x="565" y="554" type="qcurve" smooth="yes"/>
    </contour>
    <contour>
      <point x="233" y="602" type="line"/>
      <point x="566" y="602" type="line" smooth="yes"/>
      <point x="737" y="602"/>
      <point x="972" y="773"/>
      <point x="1002" y="926" type="qcurve" smooth="yes"/>
      <point x="1029" y="1076"/>
      <point x="867" y="1258"/>
      <point x="702" y="1262" type="qcurve" smooth="yes"/>
      <point x="348" y="1262" type="line"/>
    </contour>
  </outline>
</glyph>
<glyph name="Q" format="1">
  <advance width="1200"/>
  <unicode hex="0051"/>
  <outline>
    <contour>
      <point x="719" y="3" type="qcurve"/>
      <point x="912" y="-233" type="line"/>
      <point x="875" y="-263" type="line"/>
      <point x="670" y="-18" type="line"/>
      <point x="628" y="-31" name="inserted"/>
      <point x="545" y="-44"/>
      <point x="504" y="-44" type="qcurve" smooth="yes"/>
      <point x="387" y="-44"/>
      <point x="210" y="62"/>
      <point x="161" y="164" type="qcurve" smooth="yes" name="inserted"/>
      <point x="137" y="214" name="inserted"/>
      <point x="111" y="329"/>
      <point x="109" y="392" type="qcurve" smooth="yes"/>
      <point x="108" y="427" name="inserted"/>
      <point x="113" y="496"/>
      <point x="119" y="531" type="qcurve" smooth="yes"/>
      <point x="149" y="711" type="line" smooth="yes"/>
      <point x="179" y="886"/>
      <point x="347" y="1160"/>
      <point x="468" y="1231" type="qcurve" smooth="yes" name="inserted"/>
      <point x="528" y="1267" name="inserted"/>
      <point x="657" y="1302"/>
      <point x="727" y="1302" type="qcurve" smooth="yes"/>
      <point x="845" y="1302"/>
      <point x="1022" y="1195"/>
      <point x="1071" y="1093" type="qcurve" smooth="yes" name="inserted"/>
      <point x="1095" y="1042" name="inserted"/>
      <point x="1121" y="929"/>
      <point x="1122" y="867" type="qcurve" smooth="yes"/>
      <point x="1123" y="829" name="inserted"/>
      <point x="1117" y="756"/>
      <point x="1112" y="722" type="qcurve" smooth="yes"/>
      <point x="1082" y="547" type="line" smooth="yes"/>
      <point x="1049" y="351"/>
      <point x="861" y="71"/>
    </contour>
    <contour>
      <point x="1076" y="855" type="qcurve" smooth="yes"/>
      <point x="1073" y="1041"/>
      <point x="889" y="1254"/>
      <point x="727" y="1254" type="qcurve" smooth="yes"/>
      <point x="528" y="1254"/>
      <point x="241" y="953"/>
      <point x="199" y="709" type="qcurve" smooth="yes"/>
      <point x="167" y="525" type="line" smooth="yes"/>
      <point x="162" y="495" name="inserted"/>
      <point x="158" y="435"/>
      <point x="158" y="405" type="qcurve" smooth="yes"/>
      <point x="158" y="220"/>
      <point x="342" y="4"/>
      <point x="504" y="4" type="qcurve" smooth="yes"/>
      <point x="627" y="4"/>
      <point x="842" y="127"/>
      <point x="920" y="248" type="qcurve" smooth="yes" name="inserted"/>
      <point x="959" y="309" name="inserted"/>
      <point x="1013" y="448"/>
      <point x="1029" y="526" type="qcurve" smooth="yes"/>
      <point x="1064" y="723" type="line" smooth="yes"/>
      <point x="1070" y="756" name="inserted"/>
      <point x="1076" y="822"/>
    </contour>
  </outline>
</glyph>
<glyph name="R" format="1">
  <advance width="1179.0"/>
  <unicode hex="0052"/>
  <outline>
    <contour>
      <point x="663" y="561" type="line"/>
      <point x="222" y="561" type="line"/>
      <point x="125" y="0" type="line"/>
      <point x="77" y="0" type="line"/>
      <point x="303" y="1310" type="line"/>
      <point x="705" y="1310" type="line" smooth="yes"/>
      <point x="824" y="1310"/>
      <point x="1001" y="1213"/>
      <point x="1040" y="1128" type="qcurve" smooth="yes" name="inserted"/>
      <point x="1060" y="1085" name="inserted"/>
      <point x="1071" y="987"/>
      <point x="1062" y="932" type="qcurve" smooth="yes"/>
      <point x="1040" y="799"/>
      <point x="848" y="602"/>
      <point x="714" y="572" type="qcurve"/>
      <point x="956" y="13" type="line"/>
      <point x="954" y="0" type="line"/>
      <point x="905" y="0" type="line"/>
    </contour>
    <contour>
      <point x="230" y="609" type="line"/>
      <point x="616" y="609" type="line" smooth="yes"/>
      <point x="764" y="609"/>
      <point x="986" y="791"/>
      <point x="1013" y="932" type="qcurve" smooth="yes"/>
      <point x="1040" y="1081"/>
      <point x="862" y="1262"/>
      <point x="690" y="1262" type="qcurve" smooth="yes"/>
      <point x="344" y="1262" type="line"/>
    </contour>
  </outline>
</glyph>
<glyph name="S" format="1">
  <advance width="1067"/>
  <unicode hex="0053"/>
  <outline>
    <contour>
      <point x="908" y="406" type="qcurve" smooth="yes"/>
      <point x="890" y="488"/>
      <point x="737" y="597"/>
      <point x="577" y="645" type="qcurve" smooth="yes" name="inserted"/>
      <point x="417" y="693"/>
      <point x="264" y="791"/>
      <point x="233" y="858" type="qcurve" smooth="yes" name="inserted"/>
      <point x="217" y="891" name="inserted"/>
      <point x="209" y="965"/>
      <point x="216" y="1006" type="qcurve" smooth="yes"/>
      <point x="231" y="1102"/>
      <point x="365" y="1247"/>
      <point x="468" y="1287" type="qcurve" smooth="yes" name="inserted"/>
      <point x="520" y="1307" name="inserted"/>
      <point x="631" y="1326"/>
      <point x="689" y="1326" type="qcurve" smooth="yes"/>
      <point x="806" y="1326"/>
      <point x="985" y="1226"/>
      <point x="1026" y="1137" type="qcurve" smooth="yes" name="inserted"/>
      <point x="1046" y="1093" name="inserted"/>
      <point x="1059" y="994"/>
      <point x="1052" y="939" type="qcurve"/>
      <point x="1004" y="939" type="line"/>
      <point x="1026" y="1086"/>
      <point x="848" y="1278"/>
      <point x="690" y="1278" type="qcurve" smooth="yes"/>
      <point x="544" y="1278"/>
      <point x="306" y="1146"/>
      <point x="273" y="1036" type="qcurve" smooth="yes"/>
      <point x="263" y="1003" name="inserted"/>
      <point x="259" y="944"/>
      <point x="266" y="918" type="qcurve" smooth="yes"/>
      <point x="284" y="838"/>
      <point x="445" y="732"/>
      <point x="587" y="692" type="qcurve" smooth="yes"/>
      <point x="806" y="630"/>
      <point x="979" y="446"/>
      <point x="957" y="314" type="qcurve" smooth="yes"/>
      <point x="941" y="214"/>
      <point x="806" y="64"/>
      <point x="698" y="22" type="qcurve" smooth="yes" name="inserted"/>
      <point x="645" y="1" name="inserted"/>
      <point x="531" y="-20"/>
      <point x="472" y="-20" type="qcurve" smooth="yes"/>
      <point x="266" y="-20"/>
      <point x="40" y="192"/>
      <point x="64" y="368" type="qcurve"/>
      <point x="113" y="368" type="line"/>
      <point x="90" y="213"/>
      <point x="288" y="29"/>
      <point x="471" y="29" type="qcurve" smooth="yes"/>
      <point x="617" y="29"/>
      <point x="855" y="159"/>
      <point x="895" y="268" type="qcurve" smooth="yes"/>
      <point x="908" y="305" name="inserted"/>
      <point x="915" y="374"/>
    </contour>
  </outline>
</glyph>
<glyph name="T" format="1">
  <advance width="1077"/>
  <unicode hex="0054"/>
  <outline>
    <contour>
      <point x="1148" y="1262" type="line"/>
      <point x="684" y="1262" type="line"/>
      <point x="466" y="0" type="line"/>
      <point x="418" y="0" type="line"/>
      <point x="635" y="1262" type="line"/>
      <point x="174" y="1262" type="line"/>
      <point x="180" y="1310" type="line"/>
      <point x="1154" y="1310" type="line"/>
    </contour>
  </outline>
</glyph>
<glyph name="U" format="1">
  <advance width="1201"/>
  <unicode hex="0055"/>
  <outline>
    <contour>
      <point x="1169" y="1308" type="line"/>
      <point x="1017" y="426" type="line" smooth="yes"/>
      <point x="982" y="223"/>
      <point x="707" y="-20"/>
      <point x="509" y="-20" type="qcurve" smooth="yes"/>
      <point x="384" y="-20"/>
      <point x="204" y="90"/>
      <point x="165" y="192" type="qcurve" smooth="yes" name="inserted"/>
      <point x="145" y="242" name="inserted"/>
      <point x="135" y="357"/>
      <point x="146" y="420" type="qcurve" smooth="yes"/>
      <point x="300" y="1308" type="line"/>
      <point x="347" y="1308" type="line"/>
      <point x="194" y="420" type="line" smooth="yes"/>
      <point x="167" y="247"/>
      <point x="343" y="29"/>
      <point x="509" y="29" type="qcurve" smooth="yes"/>
      <point x="684" y="29"/>
      <point x="939" y="252"/>
      <point x="970" y="435" type="qcurve" smooth="yes"/>
      <point x="1121" y="1308" type="line"/>
    </contour>
  </outline>
</glyph>
<glyph name="V" format="1">
  <advance width="1076"/>
  <unicode hex="0056"/>
  <outline>
    <contour>
      <point x="445" y="128" type="line"/>
      <point x="456" y="51" type="line"/>
      <point x="495" y="131" type="line"/>
      <point x="1105" y="1310" type="line"/>
      <point x="1159" y="1310" type="line"/>
      <point x="482" y="0" type="line"/>
      <point x="423" y="0" type="line"/>
      <point x="150" y="1311" type="line"/>
      <point x="202" y="1311" type="line"/>
    </contour>
  </outline>
</glyph>
<glyph name="W" format="1">
  <advance width="1628"/>
  <unicode hex="0057"/>
  <outline>
    <contour>
      <point x="355" y="85" type="line"/>
      <point x="446" y="301" type="line"/>
      <point x="903" y="1310" type="line"/>
      <point x="957" y="1310" type="line"/>
      <point x="1098" y="293" type="line"/>
      <point x="1120" y="85" type="line"/>
      <point x="1214" y="301" type="line"/>
      <point x="1633" y="1310" type="line"/>
      <point x="1687" y="1310" type="line"/>
      <point x="1141" y="0" type="line"/>
      <point x="1087" y="0" type="line"/>
      <point x="941" y="1096" type="line"/>
      <point x="920" y="1229" type="line"/>
      <point x="854" y="1089" type="line"/>
      <point x="368" y="0" type="line"/>
      <point x="313" y="0" type="line"/>
      <point x="173" y="1310" type="line"/>
      <point x="225" y="1310" type="line"/>
    </contour>
  </outline>
</glyph>
<glyph name="X" format="1">
  <advance width="1076"/>
  <unicode hex="0058"/>
  <outline>
    <contour>
      <point x="557" y="707" type="line"/>
      <point x="1062" y="1310" type="line"/>
      <point x="1124" y="1310" type="line"/>
      <point x="583" y="665" type="line"/>
      <point x="937" y="0" type="line"/>
      <point x="879" y="0" type="line"/>
      <point x="550" y="630" type="line"/>
      <point x="23" y="0" type="line"/>
      <point x="-38" y="0" type="line"/>
      <point x="524" y="672" type="line"/>
      <point x="183" y="1311" type="line"/>
      <point x="241" y="1311" type="line"/>
    </contour>
  </outline>
</glyph>
<glyph name="Y" format="1">
  <advance width="1076"/>
  <unicode hex="0059"/>
  <outline>
    <contour>
      <point x="530" y="544" type="line"/>
      <point x="1108" y="1310" type="line"/>
      <point x="1169" y="1309" type="line"/>
      <point x="548" y="494" type="line"/>
      <point x="464" y="0" type="line"/>
      <point x="415" y="0" type="line"/>
      <point x="501" y="502" type="line"/>
      <point x="161" y="1311" type="line"/>
      <point x="223" y="1311" type="line"/>
    </contour>
  </outline>
</glyph>
<glyph name="Z" format="1">
  <advance width="1077"/>
  <unicode hex="005A"/>
  <outline>
    <contour>
      <point x="65" y="49" type="line"/>
      <point x="902" y="49" type="line"/>
      <point x="895" y="0" type="line"/>
      <point x="-11" y="0" type="line"/>
      <point x="-5" y="40" type="line"/>
      <point x="1015" y="1263" type="line"/>
      <point x="243" y="1263" type="line"/>
      <point x="249" y="1310" type="line"/>
      <point x="1092" y="1310" type="line"/>
      <point x="1087" y="1276" type="line"/>
    </contour>
  </outline>
</glyph>
<glyph name="backslash" format="1">
  <advance width="697"/>
  <unicode hex="005C"/>
  <outline>
    <contour>
      <point x="51" y="1298" type="line"/>
      <point x="104" y="1298" type="line"/>
      <point x="651" y="-125" type="line"/>
      <point x="599" y="-125" type="line"/>
    </contour>
  </outline>
</glyph>
<glyph name="a" format="1">
  <advance width="953"/>
  <unicode hex="0061"/>
  <outline>
    <contour>
      <point x="675" y="-2" type="line"/>
      <point x="674" y="38" name="inserted"/>
      <point x="682" y="127"/>
      <point x="692" y="176" type="qcurve"/>
      <point x="617" y="83"/>
      <point x="409" y="-21"/>
      <point x="287" y="-20" type="qcurve" smooth="yes"/>
      <point x="165" y="-20"/>
      <point x="19" y="131"/>
      <point x="37" y="245" type="qcurve" smooth="yes"/>
      <point x="59" y="382"/>
      <point x="320" y="537"/>
      <point x="519" y="542" type="qcurve" smooth="yes"/>
      <point x="751" y="542" type="line"/>
      <point x="777" y="684" type="line" smooth="yes"/>
      <point x="796" y="803"/>
      <point x="662" y="941"/>
      <point x="537" y="941" type="qcurve" smooth="yes"/>
      <point x="415" y="941"/>
      <point x="217" y="811"/>
      <point x="192" y="704" type="qcurve"/>
      <point x="143" y="706" type="line"/>
      <point x="168" y="831"/>
      <point x="395" y="990"/>
      <point x="537" y="990" type="qcurve" smooth="yes"/>
      <point x="686" y="990"/>
      <point x="844" y="821"/>
      <point x="824" y="682" type="qcurve" smooth="yes"/>
      <point x="734" y="162" type="line"/>
      <point x="728" y="101" type="line" smooth="yes"/>
      <point x="726" y="77" name="inserted"/>
      <point x="728" y="29"/>
      <point x="732" y="6" type="qcurve"/>
      <point x="731" y="-2" type="line"/>
    </contour>
    <contour>
      <point x="286" y="28" type="qcurve" smooth="yes"/>
      <point x="407" y="26"/>
      <point x="625" y="146"/>
      <point x="701" y="261" type="qcurve"/>
      <point x="743" y="492" type="line"/>
      <point x="525" y="492" type="line" smooth="yes"/>
      <point x="343" y="488"/>
      <point x="106" y="356"/>
      <point x="85" y="241" type="qcurve" smooth="yes"/>
      <point x="68" y="152"/>
      <point x="186" y="29"/>
    </contour>
  </outline>
</glyph>
<glyph name="b" format="1">
  <advance width="987"/>
  <unicode hex="0062"/>
  <outline>
    <contour>
      <point x="426" y="-20" type="qcurve" smooth="yes"/>
      <point x="325" y="-20"/>
      <point x="169" y="68"/>
      <point x="131" y="152" type="qcurve"/>
      <point x="104" y="-2" type="line"/>
      <point x="55" y="-2" type="line"/>
      <point x="293" y="1380" type="line"/>
      <point x="342" y="1380" type="line"/>
      <point x="238" y="795" type="line"/>
      <point x="305" y="889"/>
      <point x="486" y="990"/>
      <point x="590" y="990" type="qcurve" smooth="yes"/>
      <point x="685" y="990"/>
      <point x="818" y="896"/>
      <point x="849" y="806" type="qcurve" smooth="yes" name="inserted"/>
      <point x="865" y="761" name="inserted"/>
      <point x="878" y="660"/>
      <point x="877" y="606" type="qcurve" smooth="yes"/>
      <point x="875" y="577" name="inserted"/>
      <point x="870" y="521"/>
      <point x="866" y="495" type="qcurve" smooth="yes"/>
      <point x="854" y="435" type="line" smooth="yes"/>
      <point x="807" y="224"/>
      <point x="581" y="-20"/>
    </contour>
    <contour>
      <point x="815" y="495" type="line"/>
      <point x="826" y="591" type="line" smooth="yes"/>
      <point x="833" y="689"/>
      <point x="786" y="857"/>
      <point x="729" y="899" type="qcurve" smooth="yes" name="inserted"/>
      <point x="701" y="920" name="inserted"/>
      <point x="632" y="941"/>
      <point x="591" y="941" type="qcurve" smooth="yes"/>
      <point x="472" y="941"/>
      <point x="260" y="797"/>
      <point x="224" y="691" type="qcurve"/>
      <point x="144" y="245" type="line"/>
      <point x="166" y="140"/>
      <point x="316" y="29"/>
      <point x="426" y="29" type="qcurve" smooth="yes"/>
      <point x="571" y="29"/>
      <point x="772" y="267"/>
      <point x="812" y="476" type="qcurve" smooth="yes"/>
    </contour>
  </outline>
</glyph>
<glyph name="c" format="1">
  <advance width="916"/>
  <unicode hex="0063"/>
  <outline>
    <contour>
      <point x="387" y="29" type="qcurve" smooth="yes"/>
      <point x="515" y="29"/>
      <point x="703" y="174"/>
      <point x="734" y="292" type="qcurve"/>
      <point x="783" y="292" type="line"/>
      <point x="751" y="153"/>
      <point x="533" y="-20"/>
      <point x="388" y="-20" type="qcurve" smooth="yes"/>
      <point x="254" y="-20"/>
      <point x="87" y="147"/>
      <point x="70" y="294" type="qcurve" smooth="yes"/>
      <point x="65" y="337" name="inserted"/>
      <point x="67" y="423"/>
      <point x="73" y="466" type="qcurve" smooth="yes"/>
      <point x="78" y="504" type="line" smooth="yes"/>
      <point x="102" y="647"/>
      <point x="234" y="874"/>
      <point x="328" y="932" type="qcurve" smooth="yes" name="inserted"/>
      <point x="375" y="961" name="inserted"/>
      <point x="479" y="990"/>
      <point x="536" y="990" type="qcurve" smooth="yes"/>
      <point x="682" y="990"/>
      <point x="851" y="799"/>
      <point x="840" y="651" type="qcurve"/>
      <point x="791" y="651" type="line"/>
      <point x="803" y="780"/>
      <point x="660" y="941"/>
      <point x="536" y="941" type="qcurve" smooth="yes"/>
      <point x="366" y="941"/>
      <point x="141" y="663"/>
      <point x="117" y="430" type="qcurve" smooth="yes"/>
      <point x="113" y="364" type="line"/>
      <point x="113" y="206"/>
      <point x="256" y="29"/>
    </contour>
  </outline>
</glyph>
<glyph name="d" format="1">
  <advance width="987"/>
  <unicode hex="0064"/>
  <outline>
    <contour>
      <point x="100" y="495" type="qcurve" smooth="yes"/>
      <point x="125" y="642"/>
      <point x="252" y="874"/>
      <point x="342" y="932" type="qcurve" smooth="yes" name="inserted"/>
      <point x="387" y="961" name="inserted"/>
      <point x="485" y="990"/>
      <point x="538" y="990" type="qcurve" smooth="yes"/>
      <point x="641" y="990"/>
      <point x="793" y="887"/>
      <point x="827" y="793" type="qcurve"/>
      <point x="930" y="1380" type="line"/>
      <point x="978" y="1380" type="line"/>
      <point x="740" y="-2" type="line"/>
      <point x="691" y="-2" type="line"/>
      <point x="722" y="154" type="line"/>
      <point x="657" y="72"/>
      <point x="477" y="-20"/>
      <point x="371" y="-20" type="qcurve" smooth="yes"/>
      <point x="275" y="-20"/>
      <point x="146" y="75"/>
      <point x="115" y="166" type="qcurve" smooth="yes" name="inserted"/>
      <point x="99" y="212" name="inserted"/>
      <point x="86" y="312"/>
      <point x="87" y="367" type="qcurve" smooth="yes"/>
      <point x="88" y="393" name="inserted"/>
      <point x="95" y="457"/>
    </contour>
    <contour>
      <point x="137" y="381" type="qcurve" smooth="yes"/>
      <point x="130" y="282"/>
      <point x="175" y="116"/>
      <point x="230" y="72" type="qcurve" smooth="yes" name="inserted"/>
      <point x="258" y="50" name="inserted"/>
      <point x="327" y="29"/>
      <point x="369" y="29" type="qcurve" smooth="yes"/>
      <point x="486" y="28"/>
      <point x="672" y="141"/>
      <point x="732" y="239" type="qcurve"/>
      <point x="813" y="696" type="line"/>
      <point x="794" y="813"/>
      <point x="651" y="941"/>
      <point x="538" y="941" type="qcurve" smooth="yes"/>
      <point x="424" y="941"/>
      <point x="246" y="789"/>
      <point x="195" y="654" type="qcurve" smooth="yes" name="inserted"/>
      <point x="170" y="587" name="inserted"/>
      <point x="141" y="450"/>
    </contour>
  </outline>
</glyph>
<glyph name="e" format="1">
  <advance width="910"/>
  <unicode hex="0065"/>
  <outline>
    <contour>
      <point x="412" y="-20" type="qcurve" smooth="yes"/>
      <point x="295" y="-20"/>
      <point x="126" y="111"/>
      <point x="89" y="225" type="qcurve" smooth="yes" name="inserted"/>
      <point x="70" y="282" name="inserted"/>
      <point x="60" y="402"/>
      <point x="69" y="464" type="qcurve" smooth="yes"/>
      <point x="77" y="509" type="line" smooth="yes"/>
      <point x="98" y="641"/>
      <point x="239" y="869"/>
      <point x="337" y="930" type="qcurve" smooth="yes" name="inserted"/>
      <point x="385" y="960" name="inserted"/>
      <point x="489" y="990"/>
      <point x="545" y="990" type="qcurve" smooth="yes"/>
      <point x="692" y="990"/>
      <point x="860" y="772"/>
      <point x="847" y="602" type="qcurve" smooth="yes"/>
      <point x="844" y="574" type="line"/>
      <point x="836" y="517" type="line"/>
      <point x="129" y="517" type="line"/>
      <point x="119" y="464" type="line" smooth="yes"/>
      <point x="113" y="426" name="inserted"/>
      <point x="112" y="350"/>
      <point x="118" y="311" type="qcurve" smooth="yes"/>
      <point x="138" y="183"/>
      <point x="295" y="29"/>
      <point x="411" y="28" type="qcurve" smooth="yes"/>
      <point x="495" y="27" name="inserted"/>
      <point x="647" y="93"/>
      <point x="715" y="161" type="qcurve"/>
      <point x="747" y="136" type="line"/>
      <point x="680" y="58" name="inserted"/>
      <point x="513" y="-20"/>
    </contour>
    <contour>
      <point x="545" y="941" type="qcurve" smooth="yes"/>
      <point x="406" y="941"/>
      <point x="187" y="733"/>
      <point x="134" y="566" type="qcurve"/>
      <point x="791" y="566" type="line"/>
      <point x="794" y="578" type="line" smooth="yes"/>
      <point x="800" y="610" name="inserted"/>
      <point x="801" y="675"/>
      <point x="796" y="707" type="qcurve" smooth="yes"/>
      <point x="779" y="813"/>
      <point x="644" y="941"/>
    </contour>
  </outline>
</glyph>
<glyph name="f" format="1">
  <advance width="572"/>
  <unicode hex="0066"/>
  <outline>
    <contour>
      <point x="129" y="0" type="line"/>
      <point x="287" y="924" type="line"/>
      <point x="125" y="924" type="line"/>
      <point x="131" y="974" type="line"/>
      <point x="297" y="974" type="line"/>
      <point x="320" y="1112" type="line" smooth="yes"/>
      <point x="344" y="1245"/>
      <point x="499" y="1400"/>
      <point x="615" y="1401" type="qcurve" smooth="yes"/>
      <point x="643" y="1401" name="inserted"/>
      <point x="700" y="1393"/>
      <point x="728" y="1385" type="qcurve"/>
      <point x="715" y="1340" type="line"/>
      <point x="686" y="1347" name="inserted"/>
      <point x="636" y="1354"/>
      <point x="615" y="1353" type="qcurve" smooth="yes"/>
      <point x="520" y="1351"/>
      <point x="389" y="1219"/>
      <point x="368" y="1103" type="qcurve" smooth="yes"/>
      <point x="345" y="974" type="line"/>
      <point x="594" y="974" type="line"/>
      <point x="587" y="924" type="line"/>
      <point x="337" y="924" type="line"/>
      <point x="177" y="0" type="line"/>
    </contour>
  </outline>
</glyph>
<glyph name="g" format="1">
  <advance width="989"/>
  <unicode hex="0067"/>
  <outline>
    <contour>
      <point x="97" y="453" type="qcurve" smooth="yes"/>
      <point x="122" y="600"/>
      <point x="249" y="832"/>
      <point x="339" y="890" type="qcurve" smooth="yes" name="inserted"/>
      <point x="384" y="919" name="inserted"/>
      <point x="482" y="948"/>
      <point x="536" y="948" type="qcurve" smooth="yes"/>
      <point x="641" y="948"/>
      <point x="791" y="843"/>
      <point x="824" y="752" type="qcurve"/>
      <point x="856" y="930" type="line"/>
      <point x="905" y="930" type="line"/>
      <point x="743" y="-9" type="line" smooth="yes"/>
      <point x="709" y="-210"/>
      <point x="478" y="-436"/>
      <point x="316" y="-436" type="qcurve" smooth="yes"/>
      <point x="224" y="-436" name="inserted"/>
      <point x="81" y="-353"/>
      <point x="30" y="-270" type="qcurve"/>
      <point x="67" y="-240" type="line"/>
      <point x="113" y="-314" name="inserted"/>
      <point x="236" y="-388"/>
      <point x="313" y="-388" type="qcurve" smooth="yes"/>
      <point x="454" y="-388"/>
      <point x="656" y="-198"/>
      <point x="690" y="-26" type="qcurve" smooth="yes"/>
      <point x="717" y="110" type="line"/>
      <point x="653" y="28"/>
      <point x="473" y="-62"/>
      <point x="368" y="-62" type="qcurve" smooth="yes"/>
      <point x="273" y="-62"/>
      <point x="143" y="33"/>
      <point x="112" y="124" type="qcurve" smooth="yes" name="inserted"/>
      <point x="97" y="170" name="inserted"/>
      <point x="83" y="271"/>
      <point x="85" y="325" type="qcurve" smooth="yes"/>
      <point x="86" y="351" name="inserted"/>
      <point x="92" y="415"/>
    </contour>
    <contour>
      <point x="133" y="339" type="qcurve" smooth="yes"/>
      <point x="122" y="175"/>
      <point x="243" y="-13"/>
      <point x="366" y="-13" type="qcurve" smooth="yes"/>
      <point x="482" y="-13"/>
      <point x="670" y="101"/>
      <point x="729" y="205" type="qcurve"/>
      <point x="808" y="647" type="line"/>
      <point x="790" y="770"/>
      <point x="649" y="900"/>
      <point x="536" y="900" type="qcurve" smooth="yes"/>
      <point x="420" y="900"/>
      <point x="240" y="745"/>
      <point x="191" y="610" type="qcurve" smooth="yes" name="inserted"/>
      <point x="166" y="542" name="inserted"/>
      <point x="137" y="407"/>
    </contour>
  </outline>
</glyph>
<glyph name="h" format="1">
  <advance width="987"/>
  <unicode hex="0068"/>
  <outline>
    <contour>
      <point x="230" y="747" type="line"/>
      <point x="303" y="865"/>
      <point x="501" y="992"/>
      <point x="607" y="992" type="qcurve" smooth="yes"/>
      <point x="718" y="992"/>
      <point x="846" y="877"/>
      <point x="856" y="768" type="qcurve" smooth="yes"/>
      <point x="859" y="734" name="inserted"/>
      <point x="855" y="662"/>
      <point x="849" y="625" type="qcurve" smooth="yes"/>
      <point x="741" y="0" type="line"/>
      <point x="692" y="0" type="line"/>
      <point x="800" y="625" type="line" smooth="yes"/>
      <point x="806" y="656" name="inserted"/>
      <point x="810" y="718"/>
      <point x="809" y="749" type="qcurve" smooth="yes"/>
      <point x="805" y="844"/>
      <point x="701" y="945"/>
      <point x="605" y="944" type="qcurve" smooth="yes"/>
      <point x="482" y="942"/>
      <point x="254" y="754"/>
      <point x="213" y="624" type="qcurve"/>
      <point x="105" y="0" type="line"/>
      <point x="57" y="0" type="line"/>
      <point x="295" y="1382" type="line"/>
      <point x="344" y="1382" type="line"/>
    </contour>
  </outline>
</glyph>
<glyph name="i" format="1">
  <advance width="377"/>
  <unicode hex="0069"/>
  <outline>
    <contour>
      <point x="117" y="0" type="line"/>
      <point x="68" y="0" type="line"/>
      <point x="236" y="974" type="line"/>
      <point x="284" y="974" type="line"/>
    </contour>
    <contour>
      <point x="265" y="1280" type="qcurve" smooth="yes"/>
      <point x="267" y="1298"/>
      <point x="301" y="1328"/>
      <point x="320" y="1328" type="qcurve" smooth="yes"/>
      <point x="340" y="1328"/>
      <point x="366" y="1296"/>
      <point x="363" y="1276" type="qcurve" smooth="yes"/>
      <point x="360" y="1258"/>
      <point x="326" y="1229"/>
      <point x="307" y="1229" type="qcurve" smooth="yes"/>
      <point x="286" y="1229"/>
      <point x="261" y="1260"/>
    </contour>
  </outline>
</glyph>
<glyph name="j" format="1">
  <advance width="398"/>
  <unicode hex="006A"/>
  <outline>
    <contour>
      <point x="285" y="930" type="line"/>
      <point x="99" y="-150" type="line" smooth="yes"/>
      <point x="76" y="-286"/>
      <point x="-83" y="-437"/>
      <point x="-197" y="-437" type="qcurve" smooth="yes"/>
      <point x="-214" y="-437" name="inserted"/>
      <point x="-257" y="-428"/>
      <point x="-284" y="-419" type="qcurve"/>
      <point x="-275" y="-372" type="line"/>
      <point x="-253" y="-380" name="inserted"/>
      <point x="-214" y="-388"/>
      <point x="-196" y="-388" type="qcurve" smooth="yes"/>
      <point x="-104" y="-390"/>
      <point x="31" y="-261"/>
      <point x="50" y="-150" type="qcurve" smooth="yes"/>
      <point x="237" y="930" type="line"/>
    </contour>
    <contour>
      <point x="270" y="1236" type="qcurve" smooth="yes"/>
      <point x="273" y="1254"/>
      <point x="306" y="1285"/>
      <point x="325" y="1285" type="qcurve" smooth="yes"/>
      <point x="346" y="1285"/>
      <point x="372" y="1252"/>
      <point x="368" y="1233" type="qcurve" smooth="yes"/>
      <point x="365" y="1215"/>
      <point x="331" y="1185"/>
      <point x="312" y="1185" type="qcurve" smooth="yes"/>
      <point x="292" y="1186"/>
      <point x="266" y="1216"/>
    </contour>
  </outline>
</glyph>
<glyph name="k" format="1">
  <advance width="855.0"/>
  <unicode hex="006B"/>
  <outline>
    <contour>
      <point x="338" y="526" type="line"/>
      <point x="336" y="524" type="line"/>
      <point x="174" y="401" type="line"/>
      <point x="105" y="0" type="line"/>
      <point x="57" y="0" type="line"/>
      <point x="295" y="1382" type="line"/>
      <point x="344" y="1382" type="line"/>
      <point x="185" y="462" type="line"/>
      <point x="810" y="973" type="line"/>
      <point x="885" y="973" type="line"/>
      <point x="374" y="556" type="line"/>
      <point x="740" y="0" type="line"/>
      <point x="680" y="0" type="line"/>
    </contour>
  </outline>
</glyph>
<glyph name="l" format="1">
  <advance width="377"/>
  <unicode hex="006C"/>
  <outline>
    <contour>
      <point x="117" y="0" type="line"/>
      <point x="68" y="0" type="line"/>
      <point x="306" y="1382" type="line"/>
      <point x="355" y="1382" type="line"/>
    </contour>
  </outline>
</glyph>
<glyph name="m" format="1">
  <advance width="1612"/>
  <unicode hex="006D"/>
  <outline>
    <contour>
      <point x="734" y="0" type="line"/>
      <point x="686" y="0" type="line"/>
      <point x="797" y="648" type="line" smooth="yes"/>
      <point x="802" y="679" name="inserted"/>
      <point x="806" y="737"/>
      <point x="804" y="764" type="qcurve" smooth="yes"/>
      <point x="797" y="851"/>
      <point x="689" y="945"/>
      <point x="595" y="944" type="qcurve" smooth="yes"/>
      <point x="469" y="942"/>
      <point x="241" y="747"/>
      <point x="203" y="616" type="qcurve"/>
      <point x="96" y="0" type="line"/>
      <point x="48" y="0" type="line"/>
      <point x="215" y="974" type="line"/>
      <point x="265" y="974" type="line"/>
      <point x="221" y="743" type="line"/>
      <point x="294" y="863"/>
      <point x="491" y="992"/>
      <point x="597" y="992" type="qcurve" smooth="yes"/>
      <point x="717" y="992"/>
      <point x="848" y="872"/>
      <point x="851" y="761" type="qcurve"/>
      <point x="916" y="867"/>
      <point x="1121" y="992"/>
      <point x="1238" y="992" type="qcurve" smooth="yes"/>
      <point x="1350" y="992"/>
      <point x="1480" y="875"/>
      <point x="1490" y="768" type="qcurve" smooth="yes"/>
      <point x="1492" y="734" name="inserted"/>
      <point x="1489" y="662"/>
      <point x="1482" y="625" type="qcurve" smooth="yes"/>
      <point x="1374" y="0" type="line"/>
      <point x="1327" y="0" type="line"/>
      <point x="1435" y="630" type="line" smooth="yes"/>
      <point x="1440" y="661" name="inserted"/>
      <point x="1444" y="721"/>
      <point x="1443" y="750" type="qcurve" smooth="yes"/>
      <point x="1438" y="845"/>
      <point x="1333" y="945"/>
      <point x="1236" y="944" type="qcurve" smooth="yes"/>
      <point x="1151" y="941"/>
      <point x="985" y="862"/>
      <point x="925" y="794" type="qcurve" smooth="yes" name="inserted"/>
      <point x="895" y="760" name="inserted"/>
      <point x="855" y="687"/>
      <point x="846" y="648" type="qcurve"/>
    </contour>
  </outline>
</glyph>
<glyph name="o" format="1">
  <advance width="993"/>
  <unicode hex="006F"/>
  <outline>
    <contour>
      <point x="72" y="504" type="qcurve" smooth="yes"/>
      <point x="95" y="640"/>
      <point x="231" y="863"/>
      <point x="334" y="926" type="qcurve" smooth="yes" name="inserted"/>
      <point x="385" y="958" name="inserted"/>
      <point x="497" y="990"/>
      <point x="558" y="990" type="qcurve" smooth="yes"/>
      <point x="657" y="990"/>
      <point x="810" y="902"/>
      <point x="855" y="815" type="qcurve" smooth="yes" name="inserted"/>
      <point x="878" y="771" name="inserted"/>
      <point x="903" y="675"/>
      <point x="906" y="623" type="qcurve" smooth="yes"/>
      <point x="908" y="592" name="inserted"/>
      <point x="902" y="514"/>
      <point x="896" y="466" type="qcurve" smooth="yes"/>
      <point x="873" y="330"/>
      <point x="735" y="105"/>
      <point x="633" y="43" type="qcurve" smooth="yes" name="inserted"/>
      <point x="582" y="11" name="inserted"/>
      <point x="471" y="-20"/>
      <point x="410" y="-20" type="qcurve" smooth="yes"/>
      <point x="311" y="-20"/>
      <point x="158" y="69"/>
      <point x="113" y="155" type="qcurve" smooth="yes" name="inserted"/>
      <point x="90" y="198" name="inserted"/>
      <point x="65" y="295"/>
      <point x="62" y="348" type="qcurve" smooth="yes"/>
      <point x="60" y="378" name="inserted"/>
      <point x="65" y="456"/>
    </contour>
    <contour>
      <point x="114" y="311" type="qcurve" smooth="yes"/>
      <point x="132" y="181"/>
      <point x="289" y="29"/>
      <point x="410" y="29" type="qcurve" smooth="yes"/>
      <point x="551" y="29"/>
      <point x="779" y="227"/>
      <point x="829" y="395" type="qcurve" smooth="yes"/>
      <point x="850" y="465" name="inserted"/>
      <point x="862" y="597"/>
      <point x="853" y="659" type="qcurve" smooth="yes"/>
      <point x="833" y="789"/>
      <point x="678" y="941"/>
      <point x="559" y="941" type="qcurve" smooth="yes"/>
      <point x="418" y="941"/>
      <point x="189" y="741"/>
      <point x="139" y="575" type="qcurve" smooth="yes"/>
      <point x="118" y="506" name="inserted"/>
      <point x="106" y="374"/>
    </contour>
  </outline>
</glyph>
<glyph name="p" format="1">
  <advance width="987"/>
  <unicode hex="0070"/>
  <outline>
    <contour>
      <point x="426" y="-60" type="qcurve" smooth="yes"/>
      <point x="322" y="-60"/>
      <point x="167" y="30"/>
      <point x="131" y="110" type="qcurve"/>
      <point x="39" y="-416" type="line"/>
      <point x="-10" y="-416" type="line"/>
      <point x="222" y="932" type="line"/>
      <point x="271" y="932" type="line"/>
      <point x="238" y="759" type="line"/>
      <point x="302" y="845"/>
      <point x="481" y="950"/>
      <point x="590" y="950" type="qcurve" smooth="yes"/>
      <point x="685" y="950"/>
      <point x="818" y="857"/>
      <point x="849" y="766" type="qcurve" smooth="yes" name="inserted"/>
      <point x="865" y="721" name="inserted"/>
      <point x="878" y="621"/>
      <point x="877" y="566" type="qcurve" smooth="yes"/>
      <point x="875" y="537" name="inserted"/>
      <point x="870" y="482"/>
      <point x="866" y="455" type="qcurve" smooth="yes"/>
      <point x="854" y="396" type="line" smooth="yes"/>
      <point x="807" y="184"/>
      <point x="581" y="-60"/>
    </contour>
    <contour>
      <point x="816" y="455" type="line"/>
      <point x="827" y="552" type="line"/>
      <point x="836" y="723"/>
      <point x="712" y="902"/>
      <point x="591" y="902" type="qcurve" smooth="yes"/>
      <point x="473" y="902"/>
      <point x="261" y="760"/>
      <point x="225" y="656" type="qcurve"/>
      <point x="144" y="201" type="line"/>
      <point x="165" y="99"/>
      <point x="317" y="-11"/>
      <point x="426" y="-11" type="qcurve" smooth="yes"/>
      <point x="572" y="-11"/>
      <point x="773" y="228"/>
      <point x="814" y="440" type="qcurve" smooth="yes"/>
    </contour>
  </outline>
</glyph>
<glyph name="q" format="1">
  <advance width="987"/>
  <unicode hex="0071"/>
  <outline>
    <contour>
      <point x="100" y="455" type="qcurve" smooth="yes"/>
      <point x="141" y="687"/>
      <point x="374" y="950"/>
      <point x="538" y="950" type="qcurve" smooth="yes"/>
      <point x="639" y="950"/>
      <point x="791" y="853"/>
      <point x="827" y="759" type="qcurve"/>
      <point x="860" y="932" type="line"/>
      <point x="907" y="932" type="line"/>
      <point x="675" y="-416" type="line"/>
      <point x="626" y="-416" type="line"/>
      <point x="721" y="110" type="line"/>
      <point x="655" y="30"/>
      <point x="476" y="-60"/>
      <point x="371" y="-60" type="qcurve" smooth="yes"/>
      <point x="277" y="-60"/>
      <point x="146" y="35"/>
      <point x="115" y="126" type="qcurve" smooth="yes" name="inserted"/>
      <point x="99" y="172" name="inserted"/>
      <point x="86" y="273"/>
      <point x="87" y="327" type="qcurve" smooth="yes"/>
      <point x="88" y="353" name="inserted"/>
      <point x="95" y="417"/>
    </contour>
    <contour>
      <point x="137" y="341" type="qcurve" smooth="yes"/>
      <point x="130" y="242"/>
      <point x="175" y="76"/>
      <point x="230" y="33" type="qcurve" smooth="yes" name="inserted"/>
      <point x="258" y="11" name="inserted"/>
      <point x="327" y="-11"/>
      <point x="369" y="-11" type="qcurve" smooth="yes"/>
      <point x="486" y="-12"/>
      <point x="672" y="102"/>
      <point x="732" y="200" type="qcurve"/>
      <point x="813" y="656" type="line"/>
      <point x="794" y="770"/>
      <point x="650" y="902"/>
      <point x="538" y="902" type="qcurve" smooth="yes"/>
      <point x="431" y="902"/>
      <point x="260" y="768"/>
      <point x="203" y="633" type="qcurve" smooth="yes" name="inserted"/>
      <point x="174" y="566" name="inserted"/>
      <point x="141" y="420"/>
    </contour>
  </outline>
</glyph>
<glyph name="r" format="1">
  <advance width="607"/>
  <unicode hex="0072"/>
  <outline>
    <contour>
      <point x="637" y="940" type="line"/>
      <point x="579" y="944" type="line"/>
      <point x="458" y="944"/>
      <point x="251" y="766"/>
      <point x="216" y="638" type="qcurve"/>
      <point x="105" y="0" type="line"/>
      <point x="57" y="0" type="line"/>
      <point x="224" y="974" type="line"/>
      <point x="273" y="974" type="line"/>
      <point x="235" y="771" type="line"/>
      <point x="296" y="876"/>
      <point x="473" y="992"/>
      <point x="581" y="992" type="qcurve" smooth="yes"/>
      <point x="598" y="992" name="inserted"/>
      <point x="632" y="986"/>
      <point x="649" y="981" type="qcurve"/>
    </contour>
  </outline>
</glyph>
<glyph name="s" format="1">
  <advance width="898"/>
  <unicode hex="0073"/>
  <outline>
    <contour>
      <point x="690" y="237" type="qcurve" smooth="yes"/>
      <point x="707" y="321" name="inserted"/>
      <point x="583" y="441"/>
      <point x="444" y="477" type="qcurve" smooth="yes"/>
      <point x="344" y="506" type="line" smooth="yes"/>
      <point x="240" y="539" name="inserted"/>
      <point x="149" y="659"/>
      <point x="162" y="744" type="qcurve" smooth="yes"/>
      <point x="178" y="855"/>
      <point x="380" y="990"/>
      <point x="513" y="990" type="qcurve" smooth="yes"/>
      <point x="660" y="990"/>
      <point x="825" y="839"/>
      <point x="813" y="712" type="qcurve"/>
      <point x="764" y="712" type="line"/>
      <point x="775" y="814"/>
      <point x="633" y="941"/>
      <point x="514" y="941" type="qcurve" smooth="yes"/>
      <point x="399" y="941"/>
      <point x="228" y="835"/>
      <point x="211" y="746" type="qcurve" smooth="yes"/>
      <point x="197" y="674" name="inserted"/>
      <point x="280" y="573"/>
      <point x="376" y="543" type="qcurve" smooth="yes"/>
      <point x="510" y="504" type="line"/>
      <point x="555" y="489" type="line" smooth="yes"/>
      <point x="660" y="450" name="inserted"/>
      <point x="752" y="324"/>
      <point x="739" y="236" type="qcurve" smooth="yes"/>
      <point x="722" y="120"/>
      <point x="515" y="-20"/>
      <point x="371" y="-20" type="qcurve" smooth="yes"/>
      <point x="221" y="-20"/>
      <point x="41" y="127"/>
      <point x="53" y="246" type="qcurve"/>
      <point x="101" y="246" type="line"/>
      <point x="96" y="145"/>
      <point x="239" y="29"/>
      <point x="370" y="29" type="qcurve" smooth="yes"/>
      <point x="494" y="31"/>
      <point x="674" y="146"/>
    </contour>
  </outline>
</glyph>
<glyph name="t" format="1">
  <advance width="575"/>
  <unicode hex="0074"/>
  <outline>
    <contour>
      <point x="377" y="1235" type="line"/>
      <point x="332" y="972" type="line"/>
      <point x="545" y="972" type="line"/>
      <point x="539" y="922" type="line"/>
      <point x="323" y="922" type="line"/>
      <point x="200" y="210" type="line"/>
      <point x="196" y="160" type="line" smooth="yes"/>
      <point x="194" y="99"/>
      <point x="249" y="30"/>
      <point x="306" y="29" type="qcurve" smooth="yes"/>
      <point x="319" y="29" name="inserted"/>
      <point x="368" y="33"/>
      <point x="404" y="37" type="qcurve"/>
      <point x="406" y="-9" type="line"/>
      <point x="385" y="-15" name="inserted"/>
      <point x="336" y="-20"/>
      <point x="308" y="-20" type="qcurve" smooth="yes"/>
      <point x="231" y="-20" name="inserted"/>
      <point x="152" y="59"/>
      <point x="149" y="138" type="qcurve" smooth="yes"/>
      <point x="148" y="160" name="inserted"/>
      <point x="151" y="207"/>
      <point x="155" y="231" type="qcurve" smooth="yes"/>
      <point x="274" y="922" type="line"/>
      <point x="100" y="922" type="line"/>
      <point x="107" y="972" type="line"/>
      <point x="283" y="972" type="line"/>
      <point x="328" y="1235" type="line"/>
    </contour>
  </outline>
</glyph>
<glyph name="u" format="1">
  <advance width="987"/>
  <unicode hex="0075"/>
  <outline>
    <contour>
      <point x="689" y="-2" type="line"/>
      <point x="720" y="156" type="line"/>
      <point x="656" y="67"/>
      <point x="474" y="-20"/>
      <point x="365" y="-20" type="qcurve" smooth="yes"/>
      <point x="252" y="-20"/>
      <point x="120" y="101"/>
      <point x="109" y="212" type="qcurve" smooth="yes"/>
      <point x="106" y="248" name="inserted"/>
      <point x="109" y="321"/>
      <point x="115" y="359" type="qcurve" smooth="yes"/>
      <point x="221" y="972" type="line"/>
      <point x="269" y="972" type="line"/>
      <point x="162" y="352" type="line" smooth="yes"/>
      <point x="157" y="321" name="inserted"/>
      <point x="154" y="262"/>
      <point x="156" y="233" type="qcurve" smooth="yes"/>
      <point x="160" y="136"/>
      <point x="268" y="29"/>
      <point x="364" y="29" type="qcurve" smooth="yes"/>
      <point x="495" y="29"/>
      <point x="706" y="172"/>
      <point x="739" y="287" type="qcurve"/>
      <point x="857" y="972" type="line"/>
      <point x="906" y="972" type="line"/>
      <point x="739" y="-2" type="line"/>
    </contour>
  </outline>
</glyph>
<glyph name="v" format="1">
  <advance width="863"/>
  <unicode hex="0076"/>
  <outline>
    <contour>
      <point x="354" y="79" type="line"/>
      <point x="833" y="973" type="line"/>
      <point x="887" y="973" type="line"/>
      <point x="369" y="0" type="line"/>
      <point x="321" y="0" type="line"/>
      <point x="104" y="975" type="line"/>
      <point x="155" y="975" type="line"/>
    </contour>
  </outline>
</glyph>
<glyph name="w" format="1">
  <advance width="1363"/>
  <unicode hex="0077"/>
  <outline>
    <contour>
      <point x="275" y="277" type="line"/>
      <point x="289" y="76" type="line"/>
      <point x="721" y="974" type="line"/>
      <point x="770" y="974" type="line"/>
      <point x="862" y="282" type="line"/>
      <point x="888" y="75" type="line"/>
      <point x="979" y="285" type="line"/>
      <point x="1290" y="973" type="line"/>
      <point x="1347" y="973" type="line"/>
      <point x="905" y="0" type="line"/>
      <point x="857" y="0" type="line"/>
      <point x="749" y="736" type="line"/>
      <point x="736" y="903" type="line"/>
      <point x="657" y="728" type="line"/>
      <point x="303" y="0" type="line"/>
      <point x="255" y="0" type="line"/>
      <point x="147" y="975" type="line"/>
      <point x="201" y="974" type="line"/>
    </contour>
  </outline>
</glyph>
<glyph name="x" format="1">
  <advance width="863"/>
  <unicode hex="0078"/>
  <outline>
    <contour>
      <point x="425" y="543" type="line"/>
      <point x="794" y="973" type="line"/>
      <point x="856" y="972" type="line"/>
      <point x="449" y="496" type="line"/>
      <point x="722" y="0" type="line"/>
      <point x="664" y="0" type="line"/>
      <point x="416" y="456" type="line"/>
      <point x="25" y="0" type="line"/>
      <point x="-37" y="0" type="line"/>
      <point x="392" y="503" type="line"/>
      <point x="132" y="975" type="line"/>
      <point x="191" y="975" type="line"/>
    </contour>
  </outline>
</glyph>
<glyph name="y" format="1">
  <advance width="863"/>
  <unicode hex="0079"/>
  <outline>
    <contour>
      <point x="356" y="32" type="line"/>
      <point x="365" y="51" type="line"/>
      <point x="845" y="929" type="line"/>
      <point x="900" y="929" type="line"/>
      <point x="284" y="-208" type="line" smooth="yes"/>
      <point x="218" y="-334"/>
      <point x="81" y="-435"/>
      <point x="-3" y="-437" type="qcurve" smooth="yes"/>
      <point x="-20" y="-437" name="inserted"/>
      <point x="-56" y="-432"/>
      <point x="-75" y="-427" type="qcurve"/>
      <point x="-69" y="-381" type="line"/>
      <point x="-46" y="-385" name="inserted"/>
      <point x="-16" y="-389"/>
      <point x="-8" y="-389" type="qcurve" smooth="yes"/>
      <point x="52" y="-389" name="inserted"/>
      <point x="155" y="-323"/>
      <point x="199" y="-256" type="qcurve" smooth="yes"/>
      <point x="235" y="-197" type="line"/>
      <point x="322" y="-34" type="line"/>
      <point x="112" y="931" type="line"/>
      <point x="163" y="931" type="line"/>
    </contour>
  </outline>
</glyph>
<glyph name="z" format="1">
  <advance width="863"/>
  <unicode hex="007A"/>
  <outline>
    <contour>
      <point x="58" y="49" type="line"/>
      <point x="727" y="49" type="line"/>
      <point x="720" y="0" type="line"/>
      <point x="-17" y="0" type="line"/>
      <point x="-11" y="40" type="line"/>
      <point x="761" y="924" type="line"/>
      <point x="170" y="924" type="line"/>
      <point x="177" y="974" type="line"/>
      <point x="835" y="973" type="line"/>
      <point x="829" y="931" type="line"/>
    </contour>
  </outline>
</glyph>
<glyph name="asciitilde" format="1">
  <advance width="1271"/>
  <unicode hex="007E"/>
  <outline>
    <contour>
      <point x="1126" y="710" type="line"/>
      <point x="1126" y="601"/>
      <point x="990" y="443"/>
      <point x="888" y="443" type="qcurve" smooth="yes"/>
      <point x="810" y="443"/>
      <point x="681" y="511"/>
      <point x="599" y="586" type="qcurve" smooth="yes"/>
      <point x="538" y="639"/>
      <point x="431" y="692"/>
      <point x="376" y="692" type="qcurve" smooth="yes"/>
      <point x="296" y="692"/>
      <point x="194" y="570"/>
      <point x="194" y="460" type="qcurve"/>
      <point x="140" y="471" type="line"/>
      <point x="140" y="586"/>
      <point x="273" y="741"/>
      <point x="376" y="741" type="qcurve" smooth="yes"/>
      <point x="454" y="741"/>
      <point x="584" y="670"/>
      <point x="667" y="597" type="qcurve" smooth="yes"/>
      <point x="727" y="541"/>
      <point x="832" y="491"/>
      <point x="888" y="491" type="qcurve" smooth="yes"/>
      <point x="966" y="491"/>
      <point x="1071" y="618"/>
      <point x="1071" y="722" type="qcurve"/>
    </contour>
  </outline>
</glyph>
<glyph name="invertedcandrabindu" format="1">
  <advance width="0"/>
  <unicode hex="0900"/>
  <outline>
    <component base="candrabindudeva" xScale="-1" yScale="-1" xOffset="-763" yOffset="3195"/>
    <contour>
      <point x="-149" y="1279" type="move" name="_top"/>
    </contour>
  </outline>
</glyph>
<glyph name="candrabindudeva" format="1">
  <advance width="0"/>
  <unicode hex="0901"/>
  <outline>
    <contour>
      <point x="-202" y="1633" type="line"/>
      <point x="-271" y="1633" type="line"/>
      <point x="-246" y="1780" type="line"/>
      <point x="-177" y="1780" type="line"/>
    </contour>
    <component base="ecandravowelsigndeva" xOffset="254"/>
    <contour>
      <point x="-296" y="1293" type="move" name="_top"/>
    </contour>
  </outline>
</glyph>
<glyph name="anusvaradeva" format="1">
  <advance width="0"/>
  <unicode hex="0902"/>
  <outline>
    <contour>
      <point x="30" y="1492" type="line"/>
      <point x="-42" y="1492" type="line"/>
      <point x="-17" y="1641" type="line"/>
      <point x="55" y="1641" type="line"/>
    </contour>
    <contour>
      <point x="-107" y="1256" type="move" name="_top"/>
    </contour>
  </outline>
</glyph>
<glyph name="adeva" format="1">
  <advance width="1349"/>
  <unicode hex="0905"/>
  <outline>
    <contour>
      <point x="340" y="703" type="qcurve"/>
      <point x="348" y="751" type="line"/>
      <point x="581" y="755"/>
      <point x="767" y="920"/>
      <point x="785" y="1023" type="qcurve" smooth="yes"/>
      <point x="800" y="1114"/>
      <point x="687" y="1235"/>
      <point x="579" y="1235" type="qcurve" smooth="yes"/>
      <point x="517" y="1235"/>
      <point x="405" y="1210"/>
      <point x="345" y="1176" type="qcurve"/>
      <point x="346" y="1227" type="line"/>
      <point x="411" y="1261"/>
      <point x="526" y="1284"/>
      <point x="588" y="1284" type="qcurve" smooth="yes"/>
      <point x="710" y="1284"/>
      <point x="852" y="1136"/>
      <point x="832" y="1020" type="qcurve" smooth="yes"/>
      <point x="811" y="893"/>
      <point x="583" y="705"/>
    </contour>
    <contour>
      <point x="497" y="763" type="line"/>
      <point x="657" y="758"/>
      <point x="787" y="555"/>
      <point x="767" y="434" type="qcurve" smooth="yes"/>
      <point x="743" y="291"/>
      <point x="527" y="123"/>
      <point x="386" y="123" type="qcurve" smooth="yes"/>
      <point x="312" y="123"/>
      <point x="161" y="164"/>
      <point x="110" y="187" type="qcurve"/>
      <point x="127" y="237" type="line"/>
      <point x="181" y="207"/>
      <point x="322" y="172"/>
      <point x="395" y="172" type="qcurve" smooth="yes"/>
      <point x="519" y="172"/>
      <point x="701" y="321"/>
      <point x="722" y="440" type="qcurve" smooth="yes"/>
      <point x="739" y="539"/>
      <point x="625" y="725"/>
      <point x="475" y="726" type="qcurve"/>
    </contour>
    <contour>
      <point x="1263" y="1255" type="line"/>
      <point x="1311" y="1255" type="line"/>
      <point x="1098" y="0" type="line"/>
      <point x="1050" y="0" type="line"/>
    </contour>
    <contour>
      <point x="1586" y="1225" type="line"/>
      <point x="1003" y="1225" type="line"/>
      <point x="1012" y="1274" type="line"/>
      <point x="1595" y="1274" type="line"/>
    </contour>
    <contour>
      <point x="724" y="651" type="line"/>
      <point x="1206" y="651" type="line"/>
      <point x="1197" y="602" type="line"/>
      <point x="725" y="602" type="line"/>
    </contour>
  </outline>
</glyph>
<glyph name="ideva" format="1">
  <advance width="976"/>
  <unicode hex="0907"/>
  <outline>
    <contour>
      <point x="1213" y="1225" type="line"/>
      <point x="177" y="1225" type="line"/>
      <point x="186" y="1274" type="line"/>
      <point x="1221" y="1274" type="line"/>
    </contour>
    <contour>
      <point x="506" y="-195" type="line"/>
      <point x="351" y="93" type="line"/>
      <point x="414" y="59" type="line"/>
      <point x="372" y="59" type="line" smooth="yes"/>
      <point x="300" y="59"/>
      <point x="189" y="103"/>
      <point x="195" y="138" type="qcurve" smooth="yes"/>
      <point x="201" y="173"/>
      <point x="244" y="208"/>
      <point x="270" y="208" type="qcurve" smooth="yes"/>
      <point x="305" y="208"/>
      <point x="375" y="150"/>
      <point x="406" y="93" type="qcurve"/>
      <point x="411" y="85" type="line"/>
      <point x="549" y="-171" type="line"/>
    </contour>
    <contour>
      <point x="595" y="952" type="qcurve" smooth="yes"/>
      <point x="861" y="952" type="line"/>
      <point x="833" y="930" type="line"/>
      <point x="887" y="1249" type="line"/>
      <point x="937" y="1249" type="line"/>
      <point x="878" y="903" type="line"/>
      <point x="585" y="903" type="line" smooth="yes"/>
      <point x="458" y="903"/>
      <point x="309" y="807"/>
      <point x="295" y="721" type="qcurve" smooth="yes"/>
      <point x="283" y="649"/>
      <point x="357" y="539"/>
      <point x="421" y="524" type="qcurve"/>
      <point x="381" y="524" type="line"/>
      <point x="437" y="561"/>
      <point x="588" y="606"/>
      <point x="653" y="606" type="qcurve" smooth="yes"/>
      <point x="775" y="606"/>
      <point x="911" y="467"/>
      <point x="892" y="357" type="qcurve" smooth="yes"/>
      <point x="870" y="220"/>
      <point x="625" y="55"/>
      <point x="459" y="55" type="qcurve" smooth="yes"/>
      <point x="398" y="55"/>
      <point x="300" y="84"/>
      <point x="268" y="96" type="qcurve"/>
      <point x="284" y="144" type="line"/>
      <point x="306" y="129"/>
      <point x="403" y="104"/>
      <point x="467" y="104" type="qcurve" smooth="yes"/>
      <point x="613" y="104"/>
      <point x="823" y="241"/>
      <point x="843" y="357" type="qcurve" smooth="yes"/>
      <point x="859" y="450"/>
      <point x="743" y="557"/>
      <point x="647" y="557" type="qcurve" smooth="yes"/>
      <point x="577" y="557"/>
      <point x="440" y="512"/>
      <point x="398" y="482" type="qcurve"/>
      <point x="390" y="482" type="line"/>
      <point x="321" y="501"/>
      <point x="231" y="637"/>
      <point x="247" y="725" type="qcurve" smooth="yes"/>
      <point x="264" y="827"/>
      <point x="445" y="952"/>
    </contour>
    <contour>
      <point x="127" y="-10" type="move" name="x51"/>
    </contour>
  </outline>
</glyph>
<glyph name="udeva" format="1">
  <advance width="876"/>
  <unicode hex="0909"/>
  <outline>
    <contour>
      <point x="177" y="1225" type="line"/>
      <point x="186" y="1274" type="line"/>
      <point x="1121" y="1274" type="line"/>
      <point x="1112" y="1225" type="line"/>
    </contour>
    <contour>
      <point x="314" y="686" type="line"/>
      <point x="322" y="735" type="line"/>
      <point x="326" y="735" type="line" smooth="yes"/>
      <point x="533" y="735"/>
      <point x="741" y="872"/>
      <point x="762" y="1003" type="qcurve" smooth="yes"/>
      <point x="780" y="1104"/>
      <point x="681" y="1226"/>
      <point x="544" y="1226" type="qcurve" smooth="yes"/>
      <point x="309" y="1226" type="line"/>
      <point x="309" y="1273" type="line"/>
      <point x="552" y="1273" type="line" smooth="yes"/>
      <point x="693" y="1273"/>
      <point x="831" y="1126"/>
      <point x="811" y="1000" type="qcurve" smooth="yes"/>
      <point x="784" y="846"/>
      <point x="541" y="686"/>
      <point x="322" y="686" type="qcurve" smooth="yes"/>
    </contour>
    <contour>
      <point x="466" y="736" type="line"/>
      <point x="645" y="741"/>
      <point x="817" y="543"/>
      <point x="795" y="412" type="qcurve" smooth="yes"/>
      <point x="769" y="259"/>
      <point x="553" y="81"/>
      <point x="382" y="81" type="qcurve" smooth="yes"/>
      <point x="298" y="81"/>
      <point x="163" y="124"/>
      <point x="91" y="157" type="qcurve"/>
      <point x="107" y="207" type="line"/>
      <point x="183" y="167"/>
      <point x="317" y="130"/>
      <point x="390" y="130" type="qcurve" smooth="yes"/>
      <point x="546" y="130"/>
      <point x="726" y="289"/>
      <point x="748" y="418" type="qcurve" smooth="yes"/>
      <point x="766" y="527"/>
      <point x="618" y="696"/>
      <point x="443" y="696" type="qcurve"/>
    </contour>
    <contour>
      <point x="712" y="1256" type="move" name="top"/>
    </contour>
  </outline>
</glyph>
<glyph name="uudeva" format="1">
  <advance width="1296"/>
  <unicode hex="090A"/>
  <outline>
    <contour>
      <point x="993" y="1225" type="line"/>
      <point x="1002" y="1274" type="line"/>
      <point x="1542" y="1274" type="line"/>
      <point x="1533" y="1225" type="line"/>
    </contour>
    <contour>
      <point x="693" y="669" type="line"/>
      <point x="762" y="721"/>
      <point x="922" y="781"/>
      <point x="1015" y="781" type="qcurve" smooth="yes"/>
      <point x="1136" y="781"/>
      <point x="1283" y="615"/>
      <point x="1259" y="472" type="qcurve" smooth="yes"/>
      <point x="1242" y="375"/>
      <point x="1143" y="220"/>
      <point x="1079" y="146" type="qcurve"/>
      <point x="1028" y="159" type="line"/>
      <point x="1102" y="237"/>
      <point x="1197" y="392"/>
      <point x="1212" y="476" type="qcurve" smooth="yes"/>
      <point x="1231" y="595"/>
      <point x="1108" y="732"/>
      <point x="1007" y="732" type="qcurve" smooth="yes"/>
      <point x="921" y="732"/>
      <point x="781" y="683"/>
      <point x="706" y="629" type="qcurve"/>
    </contour>
    <component base="udeva" xOffset="12"/>
    <contour>
      <point x="803" y="1256" type="move" name="top"/>
    </contour>
  </outline>
</glyph>
<glyph name="rvocalicdeva" format="1">
  <advance width="1508"/>
  <unicode hex="090B"/>
  <outline>
    <contour>
      <point x="1131" y="1225" type="line"/>
      <point x="1140" y="1274" type="line"/>
      <point x="1753" y="1274" type="line"/>
      <point x="1744" y="1225" type="line"/>
    </contour>
    <contour>
      <point x="1273" y="729" type="line"/>
      <point x="1357" y="633"/>
      <point x="1417" y="464"/>
      <point x="1406" y="393" type="qcurve" smooth="yes"/>
      <point x="1389" y="294"/>
      <point x="1250" y="187"/>
      <point x="1166" y="187" type="qcurve" smooth="yes"/>
      <point x="1141" y="187"/>
      <point x="1109" y="189"/>
      <point x="1086" y="194" type="qcurve"/>
      <point x="1090" y="236" type="line"/>
      <point x="1105" y="233"/>
      <point x="1134" y="230"/>
      <point x="1153" y="230" type="qcurve" smooth="yes"/>
      <point x="1234" y="230"/>
      <point x="1344" y="314"/>
      <point x="1356" y="392" type="qcurve" smooth="yes"/>
      <point x="1367" y="456"/>
      <point x="1299" y="630"/>
      <point x="1225" y="697" type="qcurve"/>
    </contour>
    <contour>
      <point x="1308" y="729" type="qcurve" smooth="yes"/>
      <point x="1239" y="669"/>
      <point x="998" y="599"/>
      <point x="856" y="599" type="qcurve"/>
      <point x="867" y="647" type="line"/>
      <point x="983" y="647"/>
      <point x="1193" y="702"/>
      <point x="1256" y="745" type="qcurve"/>
      <point x="1216" y="703" type="line"/>
      <point x="1198" y="727"/>
      <point x="1183" y="755"/>
      <point x="1186" y="774" type="qcurve" smooth="yes"/>
      <point x="1190" y="798"/>
      <point x="1238" y="830"/>
      <point x="1274" y="830" type="qcurve" smooth="yes"/>
      <point x="1304" y="830"/>
      <point x="1339" y="797"/>
      <point x="1335" y="775" type="qcurve" smooth="yes"/>
      <point x="1333" y="761"/>
      <point x="1321" y="740"/>
    </contour>
    <contour>
      <point x="855" y="582" type="line"/>
      <point x="267" y="257" type="line"/>
      <point x="246" y="298" type="line"/>
      <point x="844" y="626" type="line"/>
    </contour>
    <contour>
      <point x="177" y="1225" type="line"/>
      <point x="186" y="1274" type="line"/>
      <point x="1278" y="1274" type="line"/>
      <point x="1269" y="1225" type="line"/>
    </contour>
    <contour>
      <point x="217" y="840" type="line"/>
      <point x="270" y="868"/>
      <point x="379" y="900"/>
      <point x="436" y="900" type="qcurve" smooth="yes"/>
      <point x="488" y="900"/>
      <point x="608" y="846"/>
      <point x="679" y="793" type="qcurve" smooth="yes"/>
      <point x="856" y="661" type="line"/>
      <point x="845" y="602" type="line"/>
      <point x="633" y="758" type="line" smooth="yes"/>
      <point x="568" y="806"/>
      <point x="468" y="849"/>
      <point x="426" y="849" type="qcurve" smooth="yes"/>
      <point x="375" y="849"/>
      <point x="280" y="821"/>
      <point x="219" y="791" type="qcurve"/>
    </contour>
    <contour>
      <point x="937" y="1253" type="line"/>
      <point x="984" y="1253" type="line"/>
      <point x="772" y="0" type="line"/>
      <point x="725" y="0" type="line"/>
    </contour>
    <contour>
      <point x="923" y="1265" type="move" name="mark0"/>
    </contour>
  </outline>
</glyph>
<glyph name="lvocalicdeva" format="1">
  <advance width="1357"/>
  <unicode hex="090C"/>
  <outline>
    <contour>
      <point x="1267" y="1235" type="line"/>
      <point x="1315" y="1235" type="line"/>
      <point x="1242" y="801" type="line"/>
      <point x="1194" y="801" type="line"/>
    </contour>
    <contour>
      <point x="177" y="1225" type="line"/>
      <point x="186" y="1274" type="line"/>
      <point x="1603" y="1274" type="line"/>
      <point x="1594" y="1225" type="line"/>
    </contour>
    <contour>
      <point x="790" y="544" type="qcurve"/>
      <point x="737" y="509" type="line"/>
      <point x="750" y="664"/>
      <point x="608" y="815"/>
      <point x="513" y="815" type="qcurve" smooth="yes"/>
      <point x="425" y="815"/>
      <point x="265" y="671"/>
      <point x="244" y="546" type="qcurve" smooth="yes"/>
      <point x="223" y="419"/>
      <point x="290" y="206"/>
      <point x="374" y="82" type="qcurve"/>
      <point x="329" y="62" type="line"/>
      <point x="240" y="195"/>
      <point x="174" y="417"/>
      <point x="197" y="550" type="qcurve" smooth="yes"/>
      <point x="221" y="690"/>
      <point x="404" y="865"/>
      <point x="518" y="865" type="qcurve" smooth="yes"/>
      <point x="639" y="865"/>
      <point x="798" y="702"/>
    </contour>
    <contour>
      <point x="1270" y="419" type="line"/>
      <point x="1233" y="398" type="line"/>
      <point x="1247" y="432"/>
      <point x="1268" y="506"/>
      <point x="1275" y="546" type="qcurve" smooth="yes"/>
      <point x="1295" y="671"/>
      <point x="1184" y="817"/>
      <point x="1088" y="817" type="qcurve" smooth="yes"/>
      <point x="993" y="817"/>
      <point x="809" y="649"/>
      <point x="781" y="490" type="qcurve" smooth="yes"/>
      <point x="760" y="368" type="line"/>
      <point x="712" y="368" type="line"/>
      <point x="736" y="506" type="line" smooth="yes"/>
      <point x="763" y="672"/>
      <point x="974" y="865"/>
      <point x="1101" y="865" type="qcurve" smooth="yes"/>
      <point x="1218" y="865"/>
      <point x="1347" y="690"/>
      <point x="1324" y="550" type="qcurve" smooth="yes"/>
      <point x="1316" y="508"/>
      <point x="1289" y="412"/>
      <point x="1273" y="374" type="qcurve"/>
      <point x="1215" y="374" type="line" smooth="yes"/>
      <point x="1108" y="374"/>
      <point x="996" y="283"/>
      <point x="984" y="214" type="qcurve" smooth="yes"/>
      <point x="972" y="143"/>
      <point x="1059" y="50"/>
      <point x="1143" y="50" type="qcurve" smooth="yes"/>
      <point x="1173" y="50"/>
      <point x="1234" y="60"/>
      <point x="1271" y="70" type="qcurve"/>
      <point x="1271" y="27" type="line"/>
      <point x="1238" y="17"/>
      <point x="1171" y="7"/>
      <point x="1136" y="7" type="qcurve" smooth="yes"/>
      <point x="1033" y="7"/>
      <point x="921" y="122"/>
      <point x="937" y="217" type="qcurve" smooth="yes"/>
      <point x="952" y="303"/>
      <point x="1100" y="419"/>
      <point x="1217" y="419" type="qcurve" smooth="yes"/>
    </contour>
    <contour>
      <point x="1100" y="1265" type="move" name="mark0"/>
    </contour>
  </outline>
</glyph>
<glyph name="edeva" format="1">
  <advance width="1057"/>
  <unicode hex="090F"/>
  <outline>
    <contour>
      <point x="1018" y="1250" type="line"/>
      <point x="950" y="847" type="line" smooth="yes"/>
      <point x="927" y="717"/>
      <point x="822" y="552"/>
      <point x="730" y="497" type="qcurve"/>
      <point x="703" y="537" type="line"/>
      <point x="794" y="590"/>
      <point x="883" y="740"/>
      <point x="903" y="863" type="qcurve" smooth="yes"/>
      <point x="969" y="1250" type="line"/>
    </contour>
    <contour>
      <point x="177" y="1225" type="line"/>
      <point x="186" y="1274" type="line"/>
      <point x="1302" y="1274" type="line"/>
      <point x="1293" y="1225" type="line"/>
    </contour>
    <contour>
      <point x="399" y="1250" type="line"/>
      <point x="447" y="1250" type="line"/>
      <point x="359" y="729" type="line" smooth="yes"/>
      <point x="311" y="451"/>
      <point x="509" y="113"/>
      <point x="825" y="65" type="qcurve"/>
      <point x="796" y="17" type="line"/>
      <point x="465" y="73"/>
      <point x="261" y="436"/>
      <point x="311" y="733" type="qcurve" smooth="yes"/>
    </contour>
    <contour>
      <point x="-47" y="-10" type="move" name="x44"/>
    </contour>
    <contour>
      <point x="1008" y="1264" type="move" name="mark0"/>
    </contour>
  </outline>
</glyph>
<glyph name="kadeva" format="1">
  <advance width="1446"/>
  <unicode hex="0915"/>
  <outline>
    <contour>
      <point x="177" y="1225" type="line"/>
      <point x="186" y="1274" type="line"/>
      <point x="1691" y="1274" type="line"/>
      <point x="1682" y="1225" type="line"/>
    </contour>
    <contour>
      <point x="904" y="1236" type="line"/>
      <point x="952" y="1236" type="line"/>
      <point x="744" y="0" type="line"/>
      <point x="695" y="0" type="line"/>
    </contour>
    <contour>
      <point x="766" y="377" type="line"/>
      <point x="712" y="329"/>
      <point x="556" y="262"/>
      <point x="450" y="262" type="qcurve" smooth="yes"/>
      <point x="332" y="262"/>
      <point x="167" y="432"/>
      <point x="195" y="593" type="qcurve" smooth="yes"/>
      <point x="220" y="739"/>
      <point x="422" y="897"/>
      <point x="535" y="897" type="qcurve" smooth="yes"/>
      <point x="637" y="897"/>
      <point x="785" y="843"/>
      <point x="837" y="803" type="qcurve"/>
      <point x="828" y="749" type="line"/>
      <point x="765" y="798"/>
      <point x="629" y="848"/>
      <point x="532" y="848" type="qcurve" smooth="yes"/>
      <point x="429" y="848"/>
      <point x="264" y="713"/>
      <point x="242" y="587" type="qcurve" smooth="yes"/>
      <point x="220" y="453"/>
      <point x="358" y="311"/>
      <point x="455" y="311" type="qcurve" smooth="yes"/>
      <point x="553" y="311"/>
      <point x="705" y="372"/>
      <point x="776" y="435" type="qcurve"/>
    </contour>
    <contour>
      <point x="869" y="773" type="line"/>
      <point x="935" y="816"/>
      <point x="1080" y="862"/>
      <point x="1163" y="862" type="qcurve" smooth="yes"/>
      <point x="1284" y="862"/>
      <point x="1435" y="696"/>
      <point x="1411" y="553" type="qcurve" smooth="yes"/>
      <point x="1394" y="456"/>
      <point x="1289" y="272"/>
      <point x="1238" y="217" type="qcurve"/>
      <point x="1189" y="230" type="line"/>
      <point x="1249" y="289"/>
      <point x="1348" y="473"/>
      <point x="1363" y="557" type="qcurve" smooth="yes"/>
      <point x="1383" y="676"/>
      <point x="1257" y="813"/>
      <point x="1155" y="813" type="qcurve" smooth="yes"/>
      <point x="1076" y="813"/>
      <point x="934" y="767"/>
      <point x="860" y="720" type="qcurve"/>
    </contour>
    <contour>
      <point x="665" y="-18" type="move" name="btm"/>
    </contour>
    <contour>
      <point x="881" y="1256" type="move" name="top"/>
    </contour>
  </outline>
</glyph>
<glyph name="khadeva" format="1">
  <advance width="1609"/>
  <unicode hex="0916"/>
  <outline>
    <contour>
      <point x="1400" y="461" type="line"/>
      <point x="1355" y="416"/>
      <point x="1211" y="361"/>
      <point x="1128" y="361" type="qcurve" smooth="yes"/>
      <point x="1014" y="361"/>
      <point x="851" y="515"/>
      <point x="876" y="658" type="qcurve" smooth="yes"/>
      <point x="898" y="790"/>
      <point x="1109" y="941"/>
      <point x="1221" y="941" type="qcurve" smooth="yes"/>
      <point x="1304" y="941"/>
      <point x="1433" y="890"/>
      <point x="1465" y="856" type="qcurve"/>
      <point x="1455" y="799" type="line"/>
      <point x="1415" y="840"/>
      <point x="1295" y="892"/>
      <point x="1216" y="892" type="qcurve" smooth="yes"/>
      <point x="1115" y="892"/>
      <point x="944" y="765"/>
      <point x="923" y="654" type="qcurve" smooth="yes"/>
      <point x="901" y="535"/>
      <point x="1038" y="410"/>
      <point x="1132" y="410" type="qcurve" smooth="yes"/>
      <point x="1211" y="410"/>
      <point x="1352" y="465"/>
      <point x="1411" y="521" type="qcurve"/>
    </contour>
    <contour>
      <point x="712" y="1225" type="line"/>
      <point x="721" y="1274" type="line"/>
      <point x="1855" y="1274" type="line"/>
      <point x="1846" y="1225" type="line"/>
    </contour>
    <contour>
      <point x="1520" y="1237" type="line"/>
      <point x="1568" y="1237" type="line"/>
      <point x="1358" y="0" type="line"/>
      <point x="1310" y="0" type="line"/>
    </contour>
    <component base="radeva" xOffset="-4"/>
    <contour>
      <point x="1492" y="1256" type="move" name="top"/>
    </contour>
  </outline>
</glyph>
<glyph name="gadeva" format="1">
  <advance width="1127"/>
  <unicode hex="0917"/>
  <outline>
    <contour>
      <point x="1036" y="1236" type="line"/>
      <point x="1084" y="1236" type="line"/>
      <point x="876" y="0" type="line"/>
      <point x="827" y="0" type="line"/>
    </contour>
    <contour>
      <point x="1363" y="1225" type="line"/>
      <point x="177" y="1225" type="line"/>
      <point x="186" y="1274" type="line"/>
      <point x="1372" y="1274" type="line"/>
    </contour>
    <contour>
      <point x="554" y="1258" type="line"/>
      <point x="436" y="562" type="line" smooth="yes"/>
      <point x="427" y="511"/>
      <point x="392" y="472"/>
      <point x="372" y="472" type="qcurve" smooth="yes"/>
      <point x="335" y="472"/>
      <point x="296" y="567"/>
      <point x="306" y="622" type="qcurve" smooth="yes"/>
      <point x="311" y="654"/>
      <point x="350" y="687"/>
      <point x="386" y="687" type="qcurve" smooth="yes"/>
      <point x="421" y="687" type="line"/>
      <point x="405" y="665" type="line"/>
      <point x="505" y="1258" type="line"/>
    </contour>
    <contour>
      <point x="1010" y="1256" type="move" name="top"/>
    </contour>
  </outline>
</glyph>
<glyph name="ghadeva" format="1">
  <advance width="1194"/>
  <unicode hex="0918"/>
  <outline>
    <contour>
      <point x="177" y="1225" type="line"/>
      <point x="186" y="1274" type="line"/>
      <point x="1439" y="1274" type="line"/>
      <point x="1430" y="1225" type="line"/>
    </contour>
    <contour>
      <point x="1107" y="1255" type="line"/>
      <point x="1155" y="1255" type="line"/>
      <point x="943" y="0" type="line"/>
      <point x="894" y="0" type="line"/>
    </contour>
    <contour>
      <point x="720" y="782" type="line"/>
      <point x="632" y="782" type="line" smooth="yes"/>
      <point x="495" y="782"/>
      <point x="357" y="929"/>
      <point x="375" y="1043" type="qcurve" smooth="yes"/>
      <point x="392" y="1143"/>
      <point x="564" y="1271"/>
      <point x="693" y="1271" type="qcurve" smooth="yes"/>
      <point x="784" y="1271" type="line"/>
      <point x="776" y="1225" type="line"/>
      <point x="684" y="1225" type="line" smooth="yes"/>
      <point x="575" y="1225"/>
      <point x="438" y="1126"/>
      <point x="425" y="1041" type="qcurve" smooth="yes"/>
      <point x="409" y="948"/>
      <point x="528" y="825"/>
      <point x="637" y="825" type="qcurve" smooth="yes"/>
      <point x="728" y="825" type="line"/>
    </contour>
    <contour>
      <point x="974" y="359" type="line"/>
      <point x="890" y="303"/>
      <point x="672" y="229"/>
      <point x="564" y="229" type="qcurve" smooth="yes"/>
      <point x="411" y="229"/>
      <point x="228" y="390"/>
      <point x="251" y="532" type="qcurve" smooth="yes"/>
      <point x="274" y="661"/>
      <point x="493" y="825"/>
      <point x="654" y="825" type="qcurve" smooth="yes"/>
      <point x="779" y="825" type="line"/>
      <point x="773" y="776" type="line"/>
      <point x="648" y="776" type="line" smooth="yes"/>
      <point x="511" y="776"/>
      <point x="318" y="641"/>
      <point x="299" y="530" type="qcurve" smooth="yes"/>
      <point x="281" y="417"/>
      <point x="428" y="278"/>
      <point x="567" y="278" type="qcurve" smooth="yes"/>
      <point x="673" y="278"/>
      <point x="886" y="349"/>
      <point x="984" y="420" type="qcurve"/>
    </contour>
    <contour>
      <point x="1077" y="1256" type="move" name="top"/>
    </contour>
  </outline>
</glyph>
<glyph name="ngadeva" format="1">
  <advance width="1140"/>
  <unicode hex="0919"/>
  <outline>
    <contour>
      <point x="1126" y="1225" type="line"/>
      <point x="1135" y="1274" type="line"/>
      <point x="1385" y="1274" type="line"/>
      <point x="1376" y="1225" type="line"/>
    </contour>
    <contour>
      <point x="1137" y="623" type="line"/>
      <point x="1061" y="623" type="line"/>
      <point x="1087" y="780" type="line"/>
      <point x="1163" y="780" type="line"/>
    </contour>
    <component base="ddadeva" xOffset="6"/>
    <contour>
      <point x="442" y="65" type="move" name="btm"/>
    </contour>
    <contour>
      <point x="860" y="1291" type="move" name="top"/>
    </contour>
  </outline>
</glyph>
<glyph name="cadeva" format="1">
  <advance width="1231"/>
  <unicode hex="091A"/>
  <outline>
    <contour>
      <point x="202" y="799" type="line"/>
      <point x="211" y="848" type="line"/>
      <point x="854" y="848" type="line"/>
      <point x="845" y="799" type="line"/>
    </contour>
    <contour>
      <point x="177" y="1225" type="line"/>
      <point x="186" y="1274" type="line"/>
      <point x="1477" y="1274" type="line"/>
      <point x="1468" y="1225" type="line"/>
    </contour>
    <contour>
      <point x="1143" y="1245" type="line"/>
      <point x="1191" y="1245" type="line"/>
      <point x="980" y="0" type="line"/>
      <point x="932" y="0" type="line"/>
    </contour>
    <contour>
      <point x="1021" y="399" type="line"/>
      <point x="962" y="355"/>
      <point x="769" y="271"/>
      <point x="671" y="271" type="qcurve" smooth="yes"/>
      <point x="514" y="271"/>
      <point x="352" y="433"/>
      <point x="373" y="559" type="qcurve" smooth="yes"/>
      <point x="394" y="681"/>
      <point x="604" y="844"/>
      <point x="768" y="844" type="qcurve"/>
      <point x="760" y="799" type="line"/>
      <point x="620" y="799"/>
      <point x="438" y="659"/>
      <point x="421" y="555" type="qcurve" smooth="yes"/>
      <point x="403" y="450"/>
      <point x="538" y="320"/>
      <point x="677" y="320" type="qcurve" smooth="yes"/>
      <point x="765" y="320"/>
      <point x="955" y="400"/>
      <point x="1031" y="461" type="qcurve"/>
    </contour>
    <contour>
      <point x="1108" y="1256" type="move" name="top"/>
    </contour>
  </outline>
</glyph>
<glyph name="chadeva" format="1">
  <advance width="1359"/>
  <unicode hex="091B"/>
  <outline>
    <contour>
      <point x="1595" y="1225" type="line"/>
      <point x="177" y="1225" type="line"/>
      <point x="186" y="1274" type="line"/>
      <point x="1604" y="1274" type="line"/>
    </contour>
    <contour>
      <point x="691" y="712" type="line"/>
      <point x="636" y="712" type="line" smooth="yes"/>
      <point x="470" y="712"/>
      <point x="320" y="886"/>
      <point x="343" y="1005" type="qcurve" smooth="yes"/>
      <point x="363" y="1118"/>
      <point x="554" y="1267"/>
      <point x="666" y="1267" type="qcurve" smooth="yes"/>
      <point x="751" y="1267" type="line"/>
      <point x="748" y="1225" type="line"/>
      <point x="672" y="1225" type="line" smooth="yes"/>
      <point x="564" y="1225"/>
      <point x="405" y="1090"/>
      <point x="390" y="1000" type="qcurve" smooth="yes"/>
      <point x="374" y="905"/>
      <point x="491" y="759"/>
      <point x="646" y="759" type="qcurve" smooth="yes"/>
      <point x="699" y="759" type="line"/>
    </contour>
    <contour>
      <point x="1307" y="600" type="qcurve" smooth="yes"/>
      <point x="1268" y="365"/>
      <point x="879" y="54"/>
      <point x="619" y="54" type="qcurve" smooth="yes"/>
      <point x="430" y="54"/>
      <point x="218" y="268"/>
      <point x="242" y="425" type="qcurve" smooth="yes"/>
      <point x="266" y="577"/>
      <point x="493" y="759"/>
      <point x="654" y="759" type="qcurve" smooth="yes"/>
      <point x="745" y="759" type="line"/>
      <point x="742" y="710" type="line"/>
      <point x="656" y="710" type="line" smooth="yes"/>
      <point x="508" y="710"/>
      <point x="311" y="555"/>
      <point x="291" y="421" type="qcurve" smooth="yes"/>
      <point x="270" y="287"/>
      <point x="464" y="103"/>
      <point x="623" y="103" type="qcurve" smooth="yes"/>
      <point x="864" y="103"/>
      <point x="1222" y="385"/>
      <point x="1260" y="605" type="qcurve" smooth="yes"/>
      <point x="1280" y="723"/>
      <point x="1193" y="877"/>
      <point x="1113" y="877" type="qcurve" smooth="yes"/>
      <point x="1062" y="877"/>
      <point x="984" y="855"/>
      <point x="943" y="831" type="qcurve"/>
      <point x="935" y="873" type="line"/>
      <point x="977" y="901"/>
      <point x="1074" y="926"/>
      <point x="1118" y="926" type="qcurve" smooth="yes"/>
      <point x="1217" y="926"/>
      <point x="1333" y="748"/>
    </contour>
    <contour>
      <point x="1271" y="1243" type="line"/>
      <point x="1319" y="1243" type="line"/>
      <point x="1253" y="853" type="line"/>
      <point x="1205" y="853" type="line"/>
    </contour>
    <contour>
      <point x="609" y="61" type="move" name="btm"/>
    </contour>
    <contour>
      <point x="1166" y="1256" type="move" name="top"/>
    </contour>
  </outline>
</glyph>
<glyph name="jadeva" format="1">
  <advance width="1275"/>
  <unicode hex="091C"/>
  <outline>
    <contour>
      <point x="177" y="1225" type="line"/>
      <point x="186" y="1274" type="line"/>
      <point x="1520" y="1274" type="line"/>
      <point x="1511" y="1225" type="line"/>
    </contour>
    <contour>
      <point x="488" y="836" type="line"/>
      <point x="600" y="817"/>
      <point x="761" y="622"/>
      <point x="738" y="483" type="qcurve" smooth="yes"/>
      <point x="711" y="326"/>
      <point x="491" y="153"/>
      <point x="356" y="153" type="qcurve" smooth="yes"/>
      <point x="269" y="153"/>
      <point x="156" y="184"/>
      <point x="98" y="215" type="qcurve"/>
      <point x="118" y="261" type="line"/>
      <point x="180" y="230"/>
      <point x="277" y="202"/>
      <point x="361" y="202" type="qcurve" smooth="yes"/>
      <point x="477" y="202"/>
      <point x="667" y="351"/>
      <point x="690" y="482" type="qcurve" smooth="yes"/>
      <point x="710" y="608"/>
      <point x="535" y="806"/>
      <point x="398" y="806" type="qcurve" smooth="yes"/>
      <point x="319" y="806" type="line"/>
      <point x="328" y="855" type="line"/>
      <point x="1149" y="855" type="line"/>
      <point x="1141" y="806" type="line"/>
      <point x="482" y="806" type="line"/>
    </contour>
    <contour>
      <point x="1184" y="1236" type="line"/>
      <point x="1232" y="1236" type="line"/>
      <point x="1023" y="0" type="line"/>
      <point x="975" y="0" type="line"/>
    </contour>
    <contour>
      <point x="1157" y="1256" type="move" name="top"/>
    </contour>
  </outline>
</glyph>
<glyph name="jhadeva" format="1">
  <advance width="1503"/>
  <unicode hex="091D"/>
  <outline>
    <contour>
      <point x="867" y="483" type="line"/>
      <point x="1306" y="483" type="line"/>
      <point x="1298" y="434" type="line"/>
      <point x="869" y="434" type="line"/>
    </contour>
    <component base="ideva" xOffset="-17"/>
    <component base="aavowelsigndeva" xOffset="988"/>
    <contour>
      <point x="1389" y="1256" type="move" name="top"/>
    </contour>
  </outline>
</glyph>
<glyph name="nyadeva" format="1">
  <advance width="1376"/>
  <unicode hex="091E"/>
  <outline>
    <contour>
      <point x="797" y="660" type="line"/>
      <point x="1197" y="660" type="line"/>
      <point x="1189" y="610" type="line"/>
      <point x="789" y="610" type="line"/>
    </contour>
    <contour>
      <point x="177" y="1225" type="line"/>
      <point x="186" y="1274" type="line"/>
      <point x="1621" y="1274" type="line"/>
      <point x="1612" y="1225" type="line"/>
    </contour>
    <contour>
      <point x="1287" y="1245" type="line"/>
      <point x="1336" y="1245" type="line"/>
      <point x="1125" y="0" type="line"/>
      <point x="1077" y="0" type="line"/>
    </contour>
    <contour>
      <point x="817" y="594" type="qcurve" smooth="yes"/>
      <point x="790" y="435"/>
      <point x="568" y="252"/>
      <point x="417" y="252" type="qcurve" smooth="yes"/>
      <point x="347" y="252"/>
      <point x="212" y="297"/>
      <point x="121" y="364" type="qcurve"/>
      <point x="142" y="410" type="line"/>
      <point x="236" y="340"/>
      <point x="361" y="301"/>
      <point x="426" y="301" type="qcurve" smooth="yes"/>
      <point x="562" y="301"/>
      <point x="747" y="459"/>
      <point x="769" y="595" type="qcurve" smooth="yes"/>
      <point x="792" y="729"/>
      <point x="648" y="887"/>
      <point x="522" y="889" type="qcurve" smooth="yes"/>
      <point x="457" y="890"/>
      <point x="336" y="863"/>
      <point x="281" y="829" type="qcurve"/>
      <point x="274" y="872" type="line"/>
      <point x="326" y="904"/>
      <point x="458" y="938"/>
      <point x="529" y="938" type="qcurve" smooth="yes"/>
      <point x="677" y="938"/>
      <point x="843" y="749"/>
    </contour>
    <contour>
      <point x="1248" y="1256" type="move" name="top"/>
    </contour>
  </outline>
</glyph>
<glyph name="ttadeva" format="1">
  <advance width="961"/>
  <unicode hex="091F"/>
  <outline>
    <contour>
      <point x="1198" y="1225" type="line"/>
      <point x="177" y="1225" type="line"/>
      <point x="186" y="1274" type="line"/>
      <point x="1207" y="1274" type="line"/>
    </contour>
    <contour>
      <point x="160" y="524" type="qcurve" smooth="yes"/>
      <point x="188" y="692"/>
      <point x="451" y="893"/>
      <point x="649" y="893" type="qcurve" smooth="yes"/>
      <point x="830" y="893" type="line"/>
      <point x="808" y="873" type="line"/>
      <point x="869" y="1232" type="line"/>
      <point x="919" y="1232" type="line"/>
      <point x="853" y="844" type="line"/>
      <point x="647" y="844" type="line" smooth="yes"/>
      <point x="472" y="844"/>
      <point x="232" y="668"/>
      <point x="208" y="521" type="qcurve" smooth="yes"/>
      <point x="178" y="347"/>
      <point x="395" y="158"/>
      <point x="557" y="158" type="qcurve" smooth="yes"/>
      <point x="639" y="158"/>
      <point x="759" y="180"/>
      <point x="827" y="201" type="qcurve"/>
      <point x="823" y="153" type="line"/>
      <point x="760" y="133"/>
      <point x="642" y="109"/>
      <point x="548" y="109" type="qcurve" smooth="yes"/>
      <point x="365" y="109"/>
      <point x="126" y="323"/>
    </contour>
    <contour>
      <point x="450" y="81" type="move" name="btm"/>
    </contour>
    <contour>
      <point x="828" y="1256" type="move" name="top"/>
    </contour>
  </outline>
</glyph>
<glyph name="tthadeva" format="1">
  <advance width="1109"/>
  <unicode hex="0920"/>
  <outline>
    <contour>
      <point x="1346" y="1225" type="line"/>
      <point x="177" y="1225" type="line"/>
      <point x="186" y="1274" type="line"/>
      <point x="1354" y="1274" type="line"/>
    </contour>
    <contour>
      <point x="966" y="836" type="line"/>
      <point x="670" y="836" type="line" smooth="yes"/>
      <point x="509" y="836"/>
      <point x="263" y="673"/>
      <point x="235" y="513" type="qcurve" smooth="yes"/>
      <point x="211" y="364"/>
      <point x="393" y="157"/>
      <point x="572" y="157" type="qcurve" smooth="yes"/>
      <point x="763" y="157"/>
      <point x="1015" y="347"/>
      <point x="1040" y="501" type="qcurve" smooth="yes"/>
      <point x="1058" y="603"/>
      <point x="1002" y="779"/>
      <point x="934" y="846" type="qcurve"/>
      <point x="991" y="872" type="line"/>
      <point x="1050" y="796"/>
      <point x="1106" y="608"/>
      <point x="1088" y="501" type="qcurve" smooth="yes"/>
      <point x="1059" y="324"/>
      <point x="771" y="108"/>
      <point x="570" y="108" type="qcurve" smooth="yes"/>
      <point x="367" y="108"/>
      <point x="158" y="339"/>
      <point x="188" y="516" type="qcurve" smooth="yes"/>
      <point x="219" y="699"/>
      <point x="501" y="885"/>
      <point x="674" y="885" type="qcurve" smooth="yes"/>
      <point x="976" y="885" type="line"/>
      <point x="956" y="865" type="line"/>
      <point x="1018" y="1228" type="line"/>
      <point x="1066" y="1228" type="line"/>
      <point x="1000" y="836" type="line"/>
    </contour>
    <contour>
      <point x="504" y="81" type="move" name="btm"/>
    </contour>
    <contour>
      <point x="966" y="1256" type="move" name="top"/>
    </contour>
  </outline>
</glyph>
<glyph name="ddadeva" format="1">
  <advance width="1005"/>
  <unicode hex="0921"/>
  <outline>
    <contour>
      <point x="916" y="1249" type="line"/>
      <point x="965" y="1249" type="line"/>
      <point x="906" y="903" type="line"/>
      <point x="595" y="903" type="line" smooth="yes"/>
      <point x="478" y="903"/>
      <point x="330" y="808"/>
      <point x="315" y="722" type="qcurve" smooth="yes"/>
      <point x="303" y="649"/>
      <point x="376" y="539"/>
      <point x="440" y="525" type="qcurve"/>
      <point x="401" y="525" type="line"/>
      <point x="491" y="571"/>
      <point x="611" y="605"/>
      <point x="682" y="605" type="qcurve" smooth="yes"/>
      <point x="810" y="605"/>
      <point x="947" y="458"/>
      <point x="928" y="350" type="qcurve" smooth="yes"/>
      <point x="904" y="211"/>
      <point x="683" y="54"/>
      <point x="516" y="54" type="qcurve" smooth="yes"/>
      <point x="426" y="54"/>
      <point x="245" y="109"/>
      <point x="151" y="165" type="qcurve"/>
      <point x="166" y="213" type="line"/>
      <point x="250" y="154"/>
      <point x="439" y="99"/>
      <point x="523" y="99" type="qcurve" smooth="yes"/>
      <point x="669" y="99"/>
      <point x="863" y="232"/>
      <point x="883" y="352" type="qcurve" smooth="yes"/>
      <point x="898" y="441"/>
      <point x="779" y="559"/>
      <point x="677" y="559" type="qcurve" smooth="yes"/>
      <point x="606" y="559"/>
      <point x="472" y="518"/>
      <point x="418" y="483" type="qcurve"/>
      <point x="410" y="483" type="line"/>
      <point x="345" y="499"/>
      <point x="251" y="635"/>
      <point x="267" y="726" type="qcurve" smooth="yes"/>
      <point x="284" y="828"/>
      <point x="463" y="952"/>
      <point x="605" y="952" type="qcurve" smooth="yes"/>
      <point x="889" y="952" type="line"/>
      <point x="862" y="930" type="line"/>
    </contour>
    <contour>
      <point x="1241" y="1225" type="line"/>
      <point x="177" y="1225" type="line"/>
      <point x="186" y="1274" type="line"/>
      <point x="1250" y="1274" type="line"/>
    </contour>
    <contour>
      <point x="453" y="57" type="move" name="btm"/>
    </contour>
    <contour>
      <point x="887" y="1256" type="move" name="top"/>
    </contour>
  </outline>
</glyph>
<glyph name="ddhadeva" format="1">
  <advance width="1008"/>
  <unicode hex="0922"/>
  <outline>
    <contour>
      <point x="1244" y="1225" type="line"/>
      <point x="177" y="1225" type="line"/>
      <point x="186" y="1274" type="line"/>
      <point x="1253" y="1274" type="line"/>
    </contour>
    <contour>
      <point x="914" y="1229" type="line"/>
      <point x="964" y="1229" type="line"/>
      <point x="899" y="844" type="line"/>
      <point x="655" y="844" type="line" smooth="yes"/>
      <point x="481" y="844"/>
      <point x="230" y="666"/>
      <point x="202" y="503" type="qcurve" smooth="yes"/>
      <point x="174" y="336"/>
      <point x="399" y="126"/>
      <point x="580" y="126" type="qcurve" smooth="yes"/>
      <point x="706" y="126"/>
      <point x="882" y="237"/>
      <point x="895" y="319" type="qcurve" smooth="yes"/>
      <point x="906" y="383"/>
      <point x="827" y="475"/>
      <point x="743" y="475" type="qcurve" smooth="yes"/>
      <point x="675" y="475"/>
      <point x="538" y="407"/>
      <point x="486" y="329" type="qcurve"/>
      <point x="453" y="356" type="line"/>
      <point x="514" y="444"/>
      <point x="674" y="524"/>
      <point x="752" y="524" type="qcurve" smooth="yes"/>
      <point x="842" y="524"/>
      <point x="959" y="411"/>
      <point x="943" y="317" type="qcurve" smooth="yes"/>
      <point x="927" y="221"/>
      <point x="724" y="77"/>
      <point x="573" y="77" type="qcurve" smooth="yes"/>
      <point x="366" y="77"/>
      <point x="122" y="315"/>
      <point x="156" y="512" type="qcurve" smooth="yes"/>
      <point x="186" y="690"/>
      <point x="458" y="893"/>
      <point x="650" y="893" type="qcurve" smooth="yes"/>
      <point x="887" y="893" type="line"/>
      <point x="855" y="876" type="line"/>
    </contour>
    <contour>
      <point x="504" y="77" type="move" name="btm"/>
    </contour>
    <contour>
      <point x="865" y="1256" type="move" name="top"/>
    </contour>
  </outline>
</glyph>
<glyph name="nnadeva" format="1">
  <advance width="1383"/>
  <unicode hex="0923"/>
  <outline>
    <contour>
      <point x="862" y="1237" type="line"/>
      <point x="910" y="1237" type="line"/>
      <point x="833" y="785" type="line" smooth="yes"/>
      <point x="809" y="641"/>
      <point x="655" y="481"/>
      <point x="523" y="481" type="qcurve" smooth="yes"/>
      <point x="396" y="481"/>
      <point x="282" y="637"/>
      <point x="306" y="782" type="qcurve" smooth="yes"/>
      <point x="384" y="1237" type="line"/>
      <point x="432" y="1237" type="line"/>
      <point x="354" y="776" type="line" smooth="yes"/>
      <point x="332" y="648"/>
      <point x="431" y="530"/>
      <point x="526" y="530" type="qcurve" smooth="yes"/>
      <point x="630" y="530"/>
      <point x="762" y="651"/>
      <point x="785" y="786" type="qcurve" smooth="yes"/>
    </contour>
    <contour>
      <point x="186" y="1274" type="line"/>
      <point x="1628" y="1274" type="line"/>
      <point x="1619" y="1225" type="line"/>
      <point x="177" y="1225" type="line"/>
    </contour>
    <contour>
      <point x="1292" y="1235" type="line"/>
      <point x="1341" y="1235" type="line"/>
      <point x="1132" y="0" type="line"/>
      <point x="1084" y="0" type="line"/>
    </contour>
    <contour>
      <point x="845" y="1256" type="move" name="top"/>
    </contour>
  </outline>
</glyph>
<glyph name="tadeva" format="1">
  <advance width="1061"/>
  <unicode hex="0924"/>
  <outline>
    <contour>
      <point x="914" y="855" type="line"/>
      <point x="905" y="806" type="line"/>
      <point x="627" y="806" type="line" smooth="yes"/>
      <point x="472" y="806"/>
      <point x="279" y="652"/>
      <point x="257" y="525" type="qcurve" smooth="yes"/>
      <point x="235" y="396"/>
      <point x="296" y="179"/>
      <point x="384" y="32" type="qcurve"/>
      <point x="339" y="12" type="line"/>
      <point x="247" y="165"/>
      <point x="187" y="397"/>
      <point x="210" y="529" type="qcurve" smooth="yes"/>
      <point x="234" y="673"/>
      <point x="464" y="855"/>
      <point x="624" y="855" type="qcurve" smooth="yes"/>
    </contour>
    <contour>
      <point x="186" y="1274" type="line"/>
      <point x="1306" y="1274" type="line"/>
      <point x="1297" y="1225" type="line"/>
      <point x="177" y="1225" type="line"/>
    </contour>
    <contour>
      <point x="970" y="1235" type="line"/>
      <point x="1018" y="1235" type="line"/>
      <point x="810" y="0" type="line"/>
      <point x="761" y="0" type="line"/>
    </contour>
    <contour>
      <point x="942" y="1256" type="move" name="top"/>
    </contour>
  </outline>
</glyph>
<glyph name="thadeva" format="1">
  <advance width="1217"/>
  <unicode hex="0925"/>
  <outline>
    <contour>
      <point x="397" y="930" type="qcurve"/>
      <point x="357" y="922" type="line"/>
      <point x="353" y="948"/>
      <point x="350" y="992"/>
      <point x="357" y="1032" type="qcurve" smooth="yes"/>
      <point x="373" y="1130"/>
      <point x="512" y="1263"/>
      <point x="615" y="1263" type="qcurve" smooth="yes"/>
      <point x="724" y="1263"/>
      <point x="825" y="1106"/>
      <point x="809" y="1009" type="qcurve" smooth="yes"/>
      <point x="783" y="857"/>
      <point x="498" y="650"/>
      <point x="265" y="647" type="qcurve"/>
      <point x="275" y="676" type="line"/>
      <point x="298" y="507"/>
      <point x="512" y="331"/>
      <point x="661" y="331" type="qcurve" smooth="yes"/>
      <point x="751" y="331"/>
      <point x="943" y="402"/>
      <point x="1014" y="470" type="qcurve"/>
      <point x="1003" y="405" type="line"/>
      <point x="955" y="359"/>
      <point x="759" y="283"/>
      <point x="654" y="283" type="qcurve" smooth="yes"/>
      <point x="489" y="283"/>
      <point x="254" y="480"/>
      <point x="225" y="674" type="qcurve"/>
      <point x="230" y="687" type="line"/>
      <point x="474" y="691"/>
      <point x="738" y="875"/>
      <point x="761" y="1014" type="qcurve" smooth="yes"/>
      <point x="774" y="1091"/>
      <point x="700" y="1217"/>
      <point x="607" y="1217" type="qcurve" smooth="yes"/>
      <point x="524" y="1217"/>
      <point x="416" y="1107"/>
      <point x="403" y="1030" type="qcurve" smooth="yes"/>
      <point x="397" y="998"/>
      <point x="396" y="956"/>
    </contour>
    <contour>
      <point x="1129" y="1245" type="line"/>
      <point x="1177" y="1245" type="line"/>
      <point x="966" y="0" type="line"/>
      <point x="918" y="0" type="line"/>
    </contour>
    <contour>
      <point x="1454" y="1225" type="line"/>
      <point x="967" y="1225" type="line"/>
      <point x="976" y="1274" type="line"/>
      <point x="1463" y="1274" type="line"/>
    </contour>
    <contour>
      <point x="1100" y="1256" type="move" name="top"/>
    </contour>
  </outline>
</glyph>
<glyph name="dadeva" format="1">
  <advance width="970"/>
  <unicode hex="0926"/>
  <outline>
    <contour>
      <point x="1207" y="1225" type="line"/>
      <point x="177" y="1225" type="line"/>
      <point x="186" y="1274" type="line"/>
      <point x="1215" y="1274" type="line"/>
    </contour>
    <contour>
      <point x="686" y="216" type="line"/>
      <point x="730" y="231" type="line"/>
      <point x="804" y="-98" type="line"/>
      <point x="760" y="-112" type="line"/>
    </contour>
    <contour>
      <point x="364" y="187"/>
      <point x="172" y="388"/>
      <point x="200" y="553" type="qcurve" smooth="yes"/>
      <point x="225" y="699"/>
      <point x="470" y="890"/>
      <point x="657" y="890" type="qcurve" smooth="yes"/>
      <point x="847" y="890" type="line"/>
      <point x="817" y="861" type="line"/>
      <point x="882" y="1247" type="line"/>
      <point x="930" y="1247" type="line"/>
      <point x="862" y="841" type="line"/>
      <point x="651" y="841" type="line" smooth="yes"/>
      <point x="481" y="841"/>
      <point x="270" y="678"/>
      <point x="247" y="549" type="qcurve" smooth="yes"/>
      <point x="225" y="414"/>
      <point x="393" y="236"/>
      <point x="548" y="236" type="qcurve" smooth="yes"/>
      <point x="592" y="236"/>
      <point x="678" y="245"/>
      <point x="698" y="251" type="qcurve"/>
      <point x="688" y="230" type="line"/>
      <point x="685" y="245"/>
      <point x="684" y="263"/>
      <point x="688" y="286" type="qcurve" smooth="yes"/>
      <point x="692" y="317"/>
      <point x="747" y="365"/>
      <point x="786" y="365" type="qcurve" smooth="yes"/>
      <point x="819" y="365"/>
      <point x="853" y="326"/>
      <point x="848" y="301" type="qcurve" smooth="yes"/>
      <point x="840" y="262"/>
      <point x="681" y="187"/>
      <point x="543" y="187" type="qcurve" smooth="yes"/>
    </contour>
    <contour>
      <point x="767" y="-151" type="move" name="btm"/>
    </contour>
    <contour>
      <point x="840" y="1256" type="move" name="top"/>
    </contour>
  </outline>
</glyph>
<glyph name="dhadeva" format="1">
  <advance width="1195"/>
  <unicode hex="0927"/>
  <outline>
    <contour>
      <point x="1108" y="1255" type="line"/>
      <point x="1156" y="1255" type="line"/>
      <point x="944" y="0" type="line"/>
      <point x="895" y="0" type="line"/>
    </contour>
    <contour>
      <point x="565" y="226" type="qcurve" smooth="yes"/>
      <point x="400" y="226"/>
      <point x="226" y="390"/>
      <point x="249" y="532" type="qcurve" smooth="yes"/>
      <point x="270" y="654"/>
      <point x="485" y="816"/>
      <point x="652" y="816" type="qcurve" smooth="yes"/>
      <point x="761" y="816" type="line"/>
      <point x="756" y="767" type="line"/>
      <point x="647" y="767" type="line" smooth="yes"/>
      <point x="503" y="767"/>
      <point x="315" y="634"/>
      <point x="297" y="530" type="qcurve" smooth="yes"/>
      <point x="279" y="417"/>
      <point x="417" y="275"/>
      <point x="567" y="275" type="qcurve" smooth="yes"/>
      <point x="681" y="275"/>
      <point x="887" y="350"/>
      <point x="985" y="421" type="qcurve"/>
      <point x="975" y="360" type="line"/>
      <point x="891" y="304"/>
      <point x="681" y="226"/>
    </contour>
    <contour>
      <point x="1431" y="1225" type="line"/>
      <point x="949" y="1225" type="line"/>
      <point x="957" y="1274" type="line"/>
      <point x="1440" y="1274" type="line"/>
    </contour>
    <contour>
      <point x="361" y="1055" type="qcurve" smooth="yes"/>
      <point x="344" y="952"/>
      <point x="491" y="816"/>
      <point x="577" y="816" type="qcurve" smooth="yes"/>
      <point x="682" y="816" type="line"/>
      <point x="675" y="773" type="line"/>
      <point x="578" y="773" type="line" smooth="yes"/>
      <point x="454" y="773"/>
      <point x="293" y="936"/>
      <point x="313" y="1057" type="qcurve" smooth="yes"/>
      <point x="330" y="1157"/>
      <point x="479" y="1287"/>
      <point x="575" y="1287" type="qcurve" smooth="yes"/>
      <point x="623" y="1287"/>
      <point x="708" y="1265"/>
      <point x="747" y="1234" type="qcurve"/>
      <point x="731" y="1185" type="line"/>
      <point x="697" y="1215"/>
      <point x="615" y="1239"/>
      <point x="573" y="1238" type="qcurve" smooth="yes"/>
      <point x="493" y="1236"/>
      <point x="375" y="1140"/>
    </contour>
    <contour>
      <point x="1046" y="1256" type="move" name="top"/>
    </contour>
  </outline>
</glyph>
<glyph name="nadeva" format="1">
  <advance width="1039"/>
  <unicode hex="0928"/>
  <outline>
    <contour>
      <point x="887" y="771" type="line"/>
      <point x="879" y="722" type="line"/>
      <point x="341" y="722" type="line"/>
      <point x="371" y="752" type="line"/>
      <point x="343" y="581" type="line" smooth="yes"/>
      <point x="335" y="534"/>
      <point x="307" y="501"/>
      <point x="289" y="501" type="qcurve" smooth="yes"/>
      <point x="265" y="501"/>
      <point x="234" y="619"/>
      <point x="249" y="702" type="qcurve" smooth="yes"/>
      <point x="254" y="736"/>
      <point x="299" y="771"/>
      <point x="347" y="771" type="qcurve" smooth="yes"/>
    </contour>
    <contour>
      <point x="186" y="1274" type="line"/>
      <point x="1284" y="1274" type="line"/>
      <point x="1276" y="1225" type="line"/>
      <point x="177" y="1225" type="line"/>
    </contour>
    <contour>
      <point x="950" y="1237" type="line"/>
      <point x="998" y="1237" type="line"/>
      <point x="788" y="0" type="line"/>
      <point x="740" y="0" type="line"/>
    </contour>
    <contour>
      <point x="922" y="1256" type="move" name="top"/>
    </contour>
  </outline>
</glyph>
<glyph name="nnnadeva" format="1">
  <advance width="1039"/>
  <unicode hex="0929"/>
  <outline>
    <component base="nadeva" xOffset="-11"/>
    <component base="nuktadeva" xOffset="1054"/>
    <contour>
      <point x="965" y="1279" type="move" name="top"/>
    </contour>
  </outline>
</glyph>
<glyph name="padeva" format="1">
  <advance width="1011"/>
  <unicode hex="092A"/>
  <outline>
    <contour>
      <point x="1247" y="1225" type="line"/>
      <point x="177" y="1225" type="line"/>
      <point x="186" y="1274" type="line"/>
      <point x="1256" y="1274" type="line"/>
    </contour>
    <contour>
      <point x="419" y="1240" type="line"/>
      <point x="346" y="810" type="line" smooth="yes"/>
      <point x="320" y="656"/>
      <point x="429" y="531"/>
      <point x="531" y="531" type="qcurve" smooth="yes"/>
      <point x="618" y="531"/>
      <point x="779" y="605"/>
      <point x="852" y="687" type="qcurve"/>
      <point x="841" y="623" type="line"/>
      <point x="791" y="561"/>
      <point x="620" y="482"/>
      <point x="525" y="482" type="qcurve" smooth="yes"/>
      <point x="402" y="482"/>
      <point x="269" y="642"/>
      <point x="300" y="828" type="qcurve" smooth="yes"/>
      <point x="370" y="1240" type="line"/>
    </contour>
    <contour>
      <point x="922" y="1246" type="line"/>
      <point x="970" y="1246" type="line"/>
      <point x="759" y="0" type="line"/>
      <point x="711" y="0" type="line"/>
    </contour>
    <contour>
      <point x="892" y="1256" type="move" name="top"/>
    </contour>
  </outline>
</glyph>
<glyph name="phadeva" format="1">
  <advance width="1490"/>
  <unicode hex="092B"/>
  <outline>
    <contour>
      <point x="860" y="1274" type="line"/>
      <point x="1520" y="1274" type="line"/>
      <point x="1520" y="1225" type="line"/>
      <point x="860" y="1225" type="line"/>
    </contour>
    <contour>
      <point x="744" y="672" type="line"/>
      <point x="801" y="730"/>
      <point x="956" y="797"/>
      <point x="1041" y="797" type="qcurve" smooth="yes"/>
      <point x="1164" y="797"/>
      <point x="1321" y="632"/>
      <point x="1321" y="489" type="qcurve" smooth="yes"/>
      <point x="1321" y="392"/>
      <point x="1257" y="228"/>
      <point x="1225" y="173" type="qcurve"/>
      <point x="1172" y="186" type="line"/>
      <point x="1213" y="245"/>
      <point x="1273" y="409"/>
      <point x="1273" y="493" type="qcurve" smooth="yes"/>
      <point x="1273" y="612"/>
      <point x="1144" y="748"/>
      <point x="1041" y="748" type="qcurve" smooth="yes"/>
      <point x="960" y="748"/>
      <point x="807" y="676"/>
      <point x="744" y="616" type="qcurve"/>
    </contour>
    <component base="padeva"/>
    <contour>
      <point x="677.0" y="-18.0" type="move" name="btm"/>
    </contour>
    <contour>
      <point x="677.0" y="1256.0" type="move" name="top"/>
    </contour>
  </outline>
</glyph>
<glyph name="badeva" format="1">
  <advance width="1035"/>
  <unicode hex="092C"/>
  <outline>
    <contour>
      <point x="690" y="352" type="line"/>
      <point x="644" y="324" type="line"/>
      <point x="437" y="871" type="line"/>
      <point x="483" y="897" type="line"/>
    </contour>
    <component base="vadeva" xOffset="-3"/>
    <contour>
      <point x="952" y="1291" type="move" name="top"/>
    </contour>
  </outline>
</glyph>
<glyph name="bhadeva" format="1">
  <advance width="1070"/>
  <unicode hex="092D"/>
  <outline>
    <contour>
      <point x="979" y="1236" type="line"/>
      <point x="1027" y="1236" type="line"/>
      <point x="819" y="0" type="line"/>
      <point x="770" y="0" type="line"/>
    </contour>
    <contour>
      <point x="431" y="687" type="line"/>
      <point x="913" y="687" type="line"/>
      <point x="905" y="638" type="line"/>
      <point x="424" y="638" type="line"/>
    </contour>
    <contour>
      <point x="1306" y="1225" type="line"/>
      <point x="823" y="1225" type="line"/>
      <point x="832" y="1274" type="line"/>
      <point x="1315" y="1274" type="line"/>
    </contour>
    <contour>
      <point x="507" y="1054" type="qcurve" smooth="yes"/>
      <point x="425" y="562" type="line" smooth="yes"/>
      <point x="416" y="511"/>
      <point x="380" y="472"/>
      <point x="361" y="472" type="qcurve" smooth="yes"/>
      <point x="323" y="472"/>
      <point x="285" y="567"/>
      <point x="295" y="622" type="qcurve" smooth="yes"/>
      <point x="299" y="654"/>
      <point x="338" y="687"/>
      <point x="374" y="687" type="qcurve" smooth="yes"/>
      <point x="409" y="687" type="line"/>
      <point x="393" y="665" type="line"/>
      <point x="459" y="1053" type="line" smooth="yes"/>
      <point x="475" y="1147"/>
      <point x="416" y="1230"/>
      <point x="371" y="1230" type="qcurve" smooth="yes"/>
      <point x="328" y="1230"/>
      <point x="265" y="1202"/>
      <point x="216" y="1159" type="qcurve"/>
      <point x="199" y="1199" type="line"/>
      <point x="240" y="1238"/>
      <point x="327" y="1280"/>
      <point x="379" y="1279" type="qcurve" smooth="yes"/>
      <point x="448" y="1278"/>
      <point x="526" y="1165"/>
    </contour>
    <contour>
      <point x="952" y="1256" type="move" name="top"/>
    </contour>
  </outline>
</glyph>
<glyph name="madeva" format="1">
  <advance width="1116"/>
  <unicode hex="092E"/>
  <outline>
    <contour>
      <point x="812" y="1236" type="line"/>
      <point x="861" y="1236" type="line"/>
      <point x="861" y="0" type="line"/>
      <point x="812" y="0" type="line"/>
    </contour>
    <contour>
      <point x="1146" y="1225" type="line"/>
      <point x="-30" y="1225" type="line"/>
      <point x="-30" y="1274" type="line"/>
      <point x="1146" y="1274" type="line"/>
    </contour>
    <contour>
      <point x="320" y="687" type="line"/>
      <point x="839" y="687" type="line"/>
      <point x="839" y="638" type="line"/>
      <point x="320" y="638" type="line"/>
    </contour>
    <contour>
      <point x="334" y="1238" type="line"/>
      <point x="334" y="562" type="line" smooth="yes"/>
      <point x="334" y="511"/>
      <point x="305" y="472"/>
      <point x="285" y="472" type="qcurve" smooth="yes"/>
      <point x="247" y="472"/>
      <point x="192" y="567"/>
      <point x="192" y="622" type="qcurve" smooth="yes"/>
      <point x="192" y="654"/>
      <point x="225" y="687"/>
      <point x="262" y="687" type="qcurve" smooth="yes"/>
      <point x="297" y="687" type="line"/>
      <point x="285" y="665" type="line"/>
      <point x="285" y="1238" type="line"/>
    </contour>
    <contour>
      <point x="781.0" y="1256.0" type="move" name="top"/>
    </contour>
  </outline>
</glyph>
<glyph name="yadeva" format="1">
  <advance width="1105"/>
  <unicode hex="092F"/>
  <outline>
    <contour>
      <point x="186" y="1274" type="line"/>
      <point x="1350" y="1274" type="line"/>
      <point x="1342" y="1225" type="line"/>
      <point x="177" y="1225" type="line"/>
    </contour>
    <contour>
      <point x="473" y="1236" type="qcurve"/>
      <point x="540" y="1236" type="line"/>
      <point x="578" y="1196"/>
      <point x="628" y="1043"/>
      <point x="613" y="952" type="qcurve" smooth="yes"/>
      <point x="593" y="846"/>
      <point x="402" y="696"/>
      <point x="254" y="677" type="qcurve"/>
      <point x="264" y="706" type="line"/>
      <point x="296" y="567"/>
      <point x="485" y="413"/>
      <point x="603" y="413" type="qcurve" smooth="yes"/>
      <point x="695" y="413"/>
      <point x="853" y="479"/>
      <point x="912" y="533" type="qcurve"/>
      <point x="901" y="472" type="line"/>
      <point x="867" y="440"/>
      <point x="699" y="364"/>
      <point x="595" y="364" type="qcurve" smooth="yes"/>
      <point x="465" y="364"/>
      <point x="249" y="540"/>
      <point x="214" y="704" type="qcurve"/>
      <point x="219" y="712" type="line"/>
      <point x="387" y="742"/>
      <point x="545" y="864"/>
      <point x="564" y="955" type="qcurve" smooth="yes"/>
      <point x="580" y="1031"/>
      <point x="533" y="1181"/>
    </contour>
    <contour>
      <point x="1017" y="1245" type="line"/>
      <point x="1065" y="1245" type="line"/>
      <point x="854" y="0" type="line"/>
      <point x="806" y="0" type="line"/>
    </contour>
    <contour>
      <point x="988" y="1256" type="move" name="top"/>
    </contour>
  </outline>
</glyph>
<glyph name="radeva" format="1">
  <advance width="785"/>
  <unicode hex="0930"/>
  <outline>
    <contour>
      <point x="698" y="20" type="line"/>
      <point x="657" y="-3" type="line"/>
      <point x="35" y="768" type="line"/>
      <point x="74" y="791" type="line"/>
      <point x="243" y="582" type="line"/>
      <point x="244" y="581" type="line"/>
    </contour>
    <contour>
      <point x="226" y="599" type="line"/>
      <point x="363" y="599"/>
      <point x="492" y="748"/>
      <point x="492" y="888" type="qcurve" smooth="yes"/>
      <point x="492" y="1248" type="line"/>
      <point x="541" y="1248" type="line"/>
      <point x="541" y="885" type="line" smooth="yes"/>
      <point x="541" y="730"/>
      <point x="387" y="551"/>
      <point x="226" y="551" type="qcurve"/>
    </contour>
    <contour>
      <point x="-30" y="1225" type="line"/>
      <point x="-30" y="1274" type="line"/>
      <point x="815" y="1274" type="line"/>
      <point x="815" y="1225" type="line"/>
    </contour>
    <contour>
      <point x="367.0" y="-41.0" type="move" name="btm"/>
    </contour>
    <contour>
      <point x="507.0" y="1256.0" type="move" name="top"/>
    </contour>
  </outline>
</glyph>
<glyph name="rradeva" format="1">
  <advance width="773"/>
  <unicode hex="0931"/>
  <outline>
    <component base="radeva" xOffset="-9"/>
    <component base="nuktadeva" xOffset="906"/>
    <contour>
      <point x="359" y="-5" type="move" name="btm"/>
    </contour>
    <contour>
      <point x="692" y="1279" type="move" name="top"/>
    </contour>
  </outline>
</glyph>
<glyph name="ladeva" format="1">
  <advance width="1439"/>
  <unicode hex="0932"/>
  <outline>
    <contour>
      <point x="1348" y="1235" type="line"/>
      <point x="1397" y="1235" type="line"/>
      <point x="1188" y="0" type="line"/>
      <point x="1140" y="0" type="line"/>
    </contour>
    <contour>
      <point x="177" y="1225" type="line"/>
      <point x="186" y="1274" type="line"/>
      <point x="1684" y="1274" type="line"/>
      <point x="1675" y="1225" type="line"/>
    </contour>
    <contour>
      <point x="809" y="544" type="qcurve"/>
      <point x="756" y="520" type="line"/>
      <point x="769" y="675"/>
      <point x="628" y="817"/>
      <point x="543" y="817" type="qcurve" smooth="yes"/>
      <point x="447" y="817"/>
      <point x="293" y="671"/>
      <point x="272" y="546" type="qcurve" smooth="yes"/>
      <point x="250" y="419"/>
      <point x="309" y="213"/>
      <point x="392" y="82" type="qcurve"/>
      <point x="347" y="62" type="line"/>
      <point x="259" y="205"/>
      <point x="202" y="417"/>
      <point x="225" y="550" type="qcurve" smooth="yes"/>
      <point x="248" y="690"/>
      <point x="430" y="865"/>
      <point x="548" y="865" type="qcurve" smooth="yes"/>
      <point x="665" y="865"/>
      <point x="817" y="702"/>
    </contour>
    <contour>
      <point x="1286" y="733" type="qcurve"/>
      <point x="1271" y="643" type="line"/>
      <point x="1257" y="736"/>
      <point x="1141" y="814"/>
      <point x="1068" y="814" type="qcurve" smooth="yes"/>
      <point x="983" y="814"/>
      <point x="830" y="670"/>
      <point x="805" y="518" type="qcurve" smooth="yes"/>
      <point x="779" y="368" type="line"/>
      <point x="731" y="368" type="line"/>
      <point x="757" y="522" type="line" smooth="yes"/>
      <point x="786" y="692"/>
      <point x="972" y="863"/>
      <point x="1072" y="863" type="qcurve" smooth="yes"/>
      <point x="1159" y="863"/>
      <point x="1275" y="783"/>
    </contour>
    <contour>
      <point x="1320" y="1256" type="move" name="top"/>
    </contour>
  </outline>
</glyph>
<glyph name="lladeva" format="1">
  <advance width="1478"/>
  <unicode hex="0933"/>
  <outline>
    <contour>
      <point x="1715" y="1225" type="line"/>
      <point x="177" y="1225" type="line"/>
      <point x="186" y="1274" type="line"/>
      <point x="1724" y="1274" type="line"/>
    </contour>
    <contour>
      <point x="1365" y="817" type="line"/>
      <point x="1317" y="817" type="line"/>
      <point x="1391" y="1254" type="line"/>
      <point x="1439" y="1254" type="line"/>
    </contour>
    <contour>
      <point x="787" y="516" type="qcurve" smooth="yes"/>
      <point x="812" y="666"/>
      <point x="698" y="856"/>
      <point x="571" y="856" type="qcurve" smooth="yes"/>
      <point x="462" y="856"/>
      <point x="287" y="691"/>
      <point x="256" y="511" type="qcurve" smooth="yes"/>
      <point x="228" y="345"/>
      <point x="350" y="173"/>
      <point x="458" y="173" type="qcurve" smooth="yes"/>
      <point x="566" y="173"/>
      <point x="756" y="339"/>
    </contour>
    <contour>
      <point x="839" y="577" type="qcurve"/>
      <point x="816" y="577" type="line"/>
      <point x="845" y="712"/>
      <point x="1050" y="903"/>
      <point x="1181" y="903" type="qcurve" smooth="yes"/>
      <point x="1318" y="903"/>
      <point x="1459" y="703"/>
      <point x="1426" y="512" type="qcurve" smooth="yes"/>
      <point x="1396" y="331"/>
      <point x="1181" y="128"/>
      <point x="1053" y="128" type="qcurve" smooth="yes"/>
      <point x="927" y="128"/>
      <point x="778" y="293"/>
      <point x="793" y="442" type="qcurve"/>
      <point x="817" y="442" type="line"/>
      <point x="781" y="293"/>
      <point x="578" y="128"/>
      <point x="448" y="128" type="qcurve" smooth="yes"/>
      <point x="324" y="128"/>
      <point x="176" y="331"/>
      <point x="207" y="512" type="qcurve" smooth="yes"/>
      <point x="239" y="703"/>
      <point x="446" y="903"/>
      <point x="581" y="903" type="qcurve" smooth="yes"/>
      <point x="714" y="903"/>
      <point x="855" y="712"/>
    </contour>
    <contour>
      <point x="846" y="515" type="qcurve" smooth="yes"/>
      <point x="817" y="338"/>
      <point x="952" y="172"/>
      <point x="1059" y="172" type="qcurve" smooth="yes"/>
      <point x="1170" y="172"/>
      <point x="1348" y="344"/>
      <point x="1376" y="506" type="qcurve" smooth="yes"/>
      <point x="1408" y="690"/>
      <point x="1283" y="855"/>
      <point x="1174" y="855" type="qcurve" smooth="yes"/>
      <point x="1049" y="855"/>
      <point x="872" y="665"/>
    </contour>
    <contour>
      <point x="1021" y="13" type="move" name="btm"/>
    </contour>
    <contour>
      <point x="1454" y="1291" type="move" name="top"/>
    </contour>
  </outline>
</glyph>
<glyph name="llladeva" format="1">
  <advance width="1478"/>
  <unicode hex="0934"/>
  <outline>
    <component base="lladeva" xOffset="-28"/>
    <component base="nuktadeva" xOffset="1052" yOffset="-100"/>
    <contour>
      <point x="966" y="25" type="move" name="btm"/>
    </contour>
    <contour>
      <point x="1264" y="1279" type="move" name="top"/>
    </contour>
  </outline>
</glyph>
<glyph name="vadeva" format="1">
  <advance width="1016"/>
  <unicode hex="0935"/>
  <outline>
    <contour>
      <point x="1272" y="1225" type="line"/>
      <point x="177" y="1225" type="line"/>
      <point x="186" y="1274" type="line"/>
      <point x="1281" y="1274" type="line"/>
    </contour>
    <contour>
      <point x="826" y="410" type="line"/>
      <point x="771" y="354"/>
      <point x="582" y="282"/>
      <point x="482" y="282" type="qcurve" smooth="yes"/>
      <point x="340" y="282"/>
      <point x="175" y="463"/>
      <point x="201" y="617" type="qcurve" smooth="yes"/>
      <point x="226" y="760"/>
      <point x="453" y="932"/>
      <point x="588" y="932" type="qcurve" smooth="yes"/>
      <point x="690" y="932"/>
      <point x="834" y="881"/>
      <point x="894" y="829" type="qcurve"/>
      <point x="884" y="765" type="line"/>
      <point x="823" y="826"/>
      <point x="683" y="883"/>
      <point x="585" y="883" type="qcurve" smooth="yes"/>
      <point x="463" y="883"/>
      <point x="269" y="735"/>
      <point x="248" y="611" type="qcurve" smooth="yes"/>
      <point x="227" y="483"/>
      <point x="368" y="331"/>
      <point x="488" y="331" type="qcurve" smooth="yes"/>
      <point x="580" y="331"/>
      <point x="764" y="398"/>
      <point x="836" y="468" type="qcurve"/>
    </contour>
    <contour>
      <point x="946" y="1237" type="line"/>
      <point x="994" y="1237" type="line"/>
      <point x="784" y="0" type="line"/>
      <point x="736" y="0" type="line"/>
    </contour>
    <contour>
      <point x="918" y="1256" type="move" name="top"/>
    </contour>
  </outline>
</glyph>
<glyph name="shadeva" format="1">
  <advance width="1327"/>
  <unicode hex="0936"/>
  <outline>
    <contour>
      <point x="468" y="493" type="line"/>
      <point x="715" y="60" type="line"/>
      <point x="671" y="36" type="line"/>
      <point x="413" y="484" type="line"/>
    </contour>
    <contour>
      <point x="1240" y="1255" type="line"/>
      <point x="1288" y="1255" type="line"/>
      <point x="1076" y="0" type="line"/>
      <point x="1027" y="0" type="line"/>
    </contour>
    <contour>
      <point x="853" y="930" type="qcurve" smooth="yes"/>
      <point x="874" y="1054"/>
      <point x="767" y="1227"/>
      <point x="661" y="1230" type="qcurve" smooth="yes"/>
      <point x="546" y="1233"/>
      <point x="406" y="1101"/>
      <point x="391" y="1012" type="qcurve" smooth="yes"/>
      <point x="383" y="968"/>
      <point x="383" y="943"/>
      <point x="385" y="912" type="qcurve"/>
      <point x="338" y="905" type="line"/>
      <point x="337" y="941"/>
      <point x="336" y="974"/>
      <point x="343" y="1015" type="qcurve" smooth="yes"/>
      <point x="362" y="1131"/>
      <point x="543" y="1283"/>
      <point x="669" y="1279" type="qcurve" smooth="yes"/>
      <point x="790" y="1275"/>
      <point x="926" y="1079"/>
      <point x="901" y="932" type="qcurve" smooth="yes"/>
      <point x="869" y="741"/>
      <point x="495" y="457"/>
      <point x="333" y="457" type="qcurve" smooth="yes"/>
      <point x="298" y="457"/>
      <point x="273" y="486"/>
      <point x="277" y="514" type="qcurve" smooth="yes"/>
      <point x="283" y="547"/>
      <point x="338" y="604"/>
      <point x="367" y="604" type="qcurve" smooth="yes"/>
      <point x="404" y="604"/>
      <point x="440" y="558"/>
      <point x="456" y="515" type="qcurve"/>
      <point x="376" y="512" type="line"/>
      <point x="528" y="519"/>
      <point x="827" y="778"/>
    </contour>
    <contour>
      <point x="1073" y="1225" type="line"/>
      <point x="1082" y="1274" type="line"/>
      <point x="1572" y="1274" type="line"/>
      <point x="1563" y="1225" type="line"/>
    </contour>
    <contour>
      <point x="1210" y="1256" type="move" name="top"/>
    </contour>
  </outline>
</glyph>
<glyph name="ssadeva" format="1">
  <advance width="1011"/>
  <unicode hex="0937"/>
  <outline>
    <contour>
      <point x="863" y="633" type="line"/>
      <point x="821" y="605" type="line"/>
      <point x="402" y="1241" type="line"/>
      <point x="444" y="1267" type="line"/>
    </contour>
    <component base="padeva" xOffset="-3"/>
    <contour>
      <point x="923" y="1291" type="move" name="top"/>
    </contour>
  </outline>
</glyph>
<glyph name="sadeva" format="1">
  <advance width="1267"/>
  <unicode hex="0938"/>
  <outline>
    <contour>
      <point x="177" y="1225" type="line"/>
      <point x="186" y="1274" type="line"/>
      <point x="1512" y="1274" type="line"/>
      <point x="1503" y="1225" type="line"/>
    </contour>
    <contour>
      <point x="522" y="653" type="line"/>
      <point x="1099" y="653" type="line"/>
      <point x="1091" y="604" type="line"/>
      <point x="514" y="604" type="line"/>
    </contour>
    <contour>
      <point x="1177" y="1237" type="line"/>
      <point x="1225" y="1237" type="line"/>
      <point x="1016" y="0" type="line"/>
      <point x="967" y="0" type="line"/>
    </contour>
    <contour>
      <point x="600" y="20" type="line"/>
      <point x="556" y="-3" type="line"/>
      <point x="177" y="768" type="line"/>
      <point x="220" y="791" type="line"/>
      <point x="339" y="550" type="line"/>
      <point x="340" y="547" type="line"/>
    </contour>
    <contour>
      <point x="323" y="570" type="line"/>
      <point x="430" y="570"/>
      <point x="573" y="715"/>
      <point x="597" y="858" type="qcurve" smooth="yes"/>
      <point x="663" y="1248" type="line"/>
      <point x="711" y="1248" type="line"/>
      <point x="645" y="855" type="line" smooth="yes"/>
      <point x="619" y="700"/>
      <point x="454" y="522"/>
      <point x="315" y="522" type="qcurve"/>
    </contour>
    <contour>
      <point x="1149" y="1256" type="move" name="top"/>
    </contour>
  </outline>
</glyph>
<glyph name="hadeva" format="1">
  <advance width="1003"/>
  <unicode hex="0939"/>
  <outline>
    <contour>
      <point x="544" y="949" type="qcurve" smooth="yes"/>
      <point x="885" y="949" type="line"/>
      <point x="859" y="920" type="line"/>
      <point x="911" y="1229" type="line"/>
      <point x="959" y="1229" type="line"/>
      <point x="904" y="900" type="line"/>
      <point x="540" y="900" type="line" smooth="yes"/>
      <point x="415" y="900"/>
      <point x="296" y="808"/>
      <point x="284" y="733" type="qcurve" smooth="yes"/>
      <point x="272" y="666"/>
      <point x="323" y="565"/>
      <point x="407" y="519" type="qcurve"/>
      <point x="361" y="493" type="line"/>
      <point x="283" y="539"/>
      <point x="223" y="660"/>
      <point x="236" y="737" type="qcurve" smooth="yes"/>
      <point x="252" y="830"/>
      <point x="410" y="949"/>
    </contour>
    <contour>
      <point x="886" y="337" type="qcurve" smooth="yes"/>
      <point x="877" y="286"/>
      <point x="859" y="238"/>
      <point x="839" y="198" type="qcurve"/>
      <point x="794" y="205" type="line"/>
      <point x="813" y="244"/>
      <point x="830" y="294"/>
      <point x="837" y="337" type="qcurve" smooth="yes"/>
      <point x="850" y="415"/>
      <point x="743" y="552"/>
      <point x="596" y="553" type="qcurve" smooth="yes"/>
      <point x="475" y="554"/>
      <point x="269" y="387"/>
      <point x="246" y="249" type="qcurve" smooth="yes"/>
      <point x="219" y="88"/>
      <point x="453" y="-104"/>
      <point x="720" y="-104" type="qcurve"/>
      <point x="707" y="-153" type="line"/>
      <point x="424" y="-153"/>
      <point x="168" y="73"/>
      <point x="198" y="252" type="qcurve" smooth="yes"/>
      <point x="226" y="411"/>
      <point x="461" y="602"/>
      <point x="601" y="602" type="qcurve" smooth="yes"/>
      <point x="760" y="602"/>
      <point x="903" y="442"/>
    </contour>
    <contour>
      <point x="1239" y="1225" type="line"/>
      <point x="177" y="1225" type="line"/>
      <point x="186" y="1274" type="line"/>
      <point x="1248" y="1274" type="line"/>
    </contour>
    <contour>
      <point x="887" y="1256" type="move" name="top"/>
    </contour>
  </outline>
</glyph>
<glyph name="oevowelsigndevaKSH" format="1">
  <advance width="0.0"/>
  <unicode hex="093A"/>
  <outline>
    <contour>
      <point x="19" y="1478" type="line"/>
      <point x="-23" y="1231" type="line"/>
      <point x="-71" y="1231" type="line"/>
      <point x="-30" y="1478" type="line"/>
    </contour>
    <contour>
      <point x="-149" y="1278" type="move" name="_top"/>
    </contour>
  </outline>
</glyph>
<glyph name="avagrahadeva" format="1">
  <advance width="886"/>
  <unicode hex="093D"/>
  <outline>
    <contour>
      <point x="754" y="295"/>
      <point x="556" y="134"/>
      <point x="415" y="134" type="qcurve" smooth="yes"/>
      <point x="329" y="134"/>
      <point x="181" y="173"/>
      <point x="103" y="219" type="qcurve"/>
      <point x="123" y="269" type="line"/>
      <point x="198" y="221"/>
      <point x="344" y="183"/>
      <point x="419" y="183" type="qcurve" smooth="yes"/>
      <point x="536" y="183"/>
      <point x="705" y="311"/>
      <point x="724" y="417" type="qcurve" smooth="yes"/>
      <point x="739" y="508"/>
      <point x="624" y="651"/>
      <point x="509" y="719" type="qcurve" smooth="yes"/>
      <point x="362" y="805"/>
      <point x="252" y="951"/>
      <point x="269" y="1048" type="qcurve" smooth="yes"/>
      <point x="287" y="1155"/>
      <point x="466" y="1274"/>
      <point x="626" y="1274" type="qcurve" smooth="yes"/>
      <point x="908" y="1274" type="line"/>
      <point x="899" y="1225" type="line"/>
      <point x="627" y="1225" type="line" smooth="yes"/>
      <point x="480" y="1225"/>
      <point x="335" y="1134"/>
      <point x="319" y="1044" type="qcurve" smooth="yes"/>
      <point x="306" y="965"/>
      <point x="417" y="834"/>
      <point x="537" y="766" type="qcurve" smooth="yes"/>
      <point x="678" y="685"/>
      <point x="791" y="520"/>
      <point x="773" y="414" type="qcurve" smooth="yes"/>
    </contour>
  </outline>
</glyph>
<glyph name="aavowelsigndeva" format="1">
  <advance width="494"/>
  <unicode hex="093E"/>
  <outline>
    <contour>
      <point x="408" y="1255" type="line"/>
      <point x="456" y="1255" type="line"/>
      <point x="243" y="0" type="line"/>
      <point x="195" y="0" type="line"/>
    </contour>
    <contour>
      <point x="731" y="1225" type="line"/>
      <point x="177" y="1225" type="line"/>
      <point x="186" y="1274" type="line"/>
      <point x="740" y="1274" type="line"/>
    </contour>
  </outline>
</glyph>
<glyph name="iivowelsigndeva" format="1">
  <advance width="494"/>
  <unicode hex="0940"/>
  <outline>
    <contour>
      <point x="405" y="1267" type="line"/>
      <point x="360" y="1460"/>
      <point x="215" y="1663"/>
      <point x="107" y="1663" type="qcurve" smooth="yes"/>
      <point x="33" y="1663"/>
      <point x="-68" y="1577"/>
      <point x="-81" y="1500" type="qcurve" smooth="yes"/>
      <point x="-92" y="1440"/>
      <point x="-68" y="1325"/>
      <point x="-41" y="1267" type="qcurve"/>
      <point x="-91" y="1267" type="line"/>
      <point x="-118" y="1323"/>
      <point x="-138" y="1447"/>
      <point x="-128" y="1508" type="qcurve" smooth="yes"/>
      <point x="-113" y="1596"/>
      <point x="16" y="1710"/>
      <point x="113" y="1710" type="qcurve" smooth="yes"/>
      <point x="240" y="1710"/>
      <point x="410" y="1480"/>
      <point x="457" y="1267" type="qcurve"/>
    </contour>
    <component base="aavowelsigndeva" xOffset="2"/>
  </outline>
</glyph>
<glyph name="uvowelsigndeva" format="1">
  <advance width="0"/>
  <unicode hex="0941"/>
  <outline>
    <contour>
      <point x="-503" y="-53" type="line"/>
      <point x="-453" y="-25"/>
      <point x="-342" y="7"/>
      <point x="-283" y="7" type="qcurve" smooth="yes"/>
      <point x="-166" y="7"/>
      <point x="-39" y="-121"/>
      <point x="-56" y="-221" type="qcurve" smooth="yes"/>
      <point x="-75" y="-334"/>
      <point x="-252" y="-460"/>
      <point x="-375" y="-459" type="qcurve" smooth="yes"/>
      <point x="-478" y="-458"/>
      <point x="-680" y="-383"/>
      <point x="-797" y="-277" type="qcurve"/>
      <point x="-768" y="-233" type="line"/>
      <point x="-650" y="-341"/>
      <point x="-460" y="-411"/>
      <point x="-373" y="-411" type="qcurve" smooth="yes"/>
      <point x="-259" y="-411"/>
      <point x="-118" y="-312"/>
      <point x="-102" y="-220" type="qcurve" smooth="yes"/>
      <point x="-89" y="-142"/>
      <point x="-194" y="-41"/>
      <point x="-288" y="-41" type="qcurve" smooth="yes"/>
      <point x="-341" y="-41"/>
      <point x="-449" y="-71"/>
      <point x="-500" y="-100" type="qcurve"/>
    </contour>
    <contour>
      <point x="-320" y="-18" type="move" name="_btm"/>
    </contour>
  </outline>
</glyph>
<glyph name="uuvowelsigndeva" format="1">
  <advance width="0.0"/>
  <unicode hex="0942"/>
  <outline>
    <contour>
      <point x="-208" y="-425" type="line"/>
      <point x="-261" y="-434"/>
      <point x="-326" y="-443"/>
      <point x="-370" y="-443" type="qcurve" smooth="yes"/>
      <point x="-476" y="-443"/>
      <point x="-606" y="-317"/>
      <point x="-589" y="-213" type="qcurve" smooth="yes"/>
      <point x="-572" y="-116"/>
      <point x="-401" y="9"/>
      <point x="-295" y="7" type="qcurve" smooth="yes"/>
      <point x="-167" y="5"/>
      <point x="46" y="-142"/>
      <point x="133" y="-319" type="qcurve"/>
      <point x="97" y="-351" type="line"/>
      <point x="1" y="-167"/>
      <point x="-197" y="-38"/>
      <point x="-298" y="-38" type="qcurve" smooth="yes"/>
      <point x="-397" y="-38"/>
      <point x="-529" y="-137"/>
      <point x="-542" y="-217" type="qcurve" smooth="yes"/>
      <point x="-557" y="-305"/>
      <point x="-451" y="-399"/>
      <point x="-362" y="-399" type="qcurve" smooth="yes"/>
      <point x="-319" y="-399"/>
      <point x="-251" y="-391"/>
      <point x="-207" y="-382" type="qcurve"/>
    </contour>
    <contour>
      <point x="-320" y="-18" type="move" name="_btm"/>
    </contour>
  </outline>
</glyph>
<glyph name="rvocalicvowelsigndeva" format="1">
  <advance width="0"/>
  <unicode hex="0943"/>
  <outline>
    <contour>
      <point x="-219" y="-390" type="line"/>
      <point x="-251" y="-400"/>
      <point x="-328" y="-411"/>
      <point x="-363" y="-411" type="qcurve" smooth="yes"/>
      <point x="-478" y="-411"/>
      <point x="-597" y="-292"/>
      <point x="-581" y="-195" type="qcurve" smooth="yes"/>
      <point x="-566" y="-108"/>
      <point x="-422" y="19"/>
      <point x="-298" y="19" type="qcurve" smooth="yes"/>
      <point x="-229" y="19" type="line"/>
      <point x="-235" y="-26" type="line"/>
      <point x="-300" y="-26" type="line" smooth="yes"/>
      <point x="-413" y="-26"/>
      <point x="-524" y="-129"/>
      <point x="-536" y="-198" type="qcurve" smooth="yes"/>
      <point x="-549" y="-273"/>
      <point x="-451" y="-370"/>
      <point x="-358" y="-370" type="qcurve" smooth="yes"/>
      <point x="-327" y="-370"/>
      <point x="-255" y="-361"/>
      <point x="-219" y="-351" type="qcurve"/>
    </contour>
    <contour>
      <point x="-320" y="-18" type="move" name="_btm"/>
    </contour>
  </outline>
</glyph>
<glyph name="rrvocalicvowelsigndeva" format="1">
  <advance width="0"/>
  <unicode hex="0944"/>
  <outline>
    <contour>
      <point x="-249" y="-557" type="line"/>
      <point x="-283" y="-569"/>
      <point x="-334" y="-578"/>
      <point x="-369" y="-578" type="qcurve" smooth="yes"/>
      <point x="-453" y="-578"/>
      <point x="-538" y="-495"/>
      <point x="-527" y="-429" type="qcurve" smooth="yes"/>
      <point x="-515" y="-362"/>
      <point x="-398" y="-286"/>
      <point x="-320" y="-286" type="qcurve" smooth="yes"/>
      <point x="-310" y="-286" type="line"/>
      <point x="-317" y="-327" type="line"/>
      <point x="-323" y="-327" type="line" smooth="yes"/>
      <point x="-392" y="-327"/>
      <point x="-474" y="-384"/>
      <point x="-482" y="-432" type="qcurve" smooth="yes"/>
      <point x="-490" y="-477"/>
      <point x="-427" y="-538"/>
      <point x="-361" y="-538" type="qcurve" smooth="yes"/>
      <point x="-331" y="-538"/>
      <point x="-289" y="-530"/>
      <point x="-252" y="-519" type="qcurve"/>
    </contour>
    <contour>
      <point x="-231" y="-314" type="line"/>
      <point x="-258" y="-322"/>
      <point x="-323" y="-330"/>
      <point x="-359" y="-330" type="qcurve" smooth="yes"/>
      <point x="-455" y="-330"/>
      <point x="-555" y="-235"/>
      <point x="-541" y="-154" type="qcurve" smooth="yes"/>
      <point x="-528" y="-76"/>
      <point x="-392" y="19"/>
      <point x="-297" y="19" type="qcurve" smooth="yes"/>
      <point x="-228" y="19" type="line"/>
      <point x="-234" y="-26" type="line"/>
      <point x="-299" y="-26" type="line" smooth="yes"/>
      <point x="-383" y="-26"/>
      <point x="-485" y="-97"/>
      <point x="-494" y="-155" type="qcurve" smooth="yes"/>
      <point x="-504" y="-215"/>
      <point x="-430" y="-285"/>
      <point x="-351" y="-285" type="qcurve" smooth="yes"/>
      <point x="-320" y="-285"/>
      <point x="-271" y="-281"/>
      <point x="-235" y="-274" type="qcurve"/>
    </contour>
    <contour>
      <point x="-320" y="-18" type="move" name="_btm"/>
    </contour>
  </outline>
</glyph>
<glyph name="ecandravowelsigndeva" format="1">
  <advance width="0"/>
  <unicode hex="0945"/>
  <outline>
    <contour>
      <point x="-258" y="1500" type="qcurve" smooth="yes"/>
      <point x="-174" y="1500"/>
      <point x="-37" y="1563"/>
      <point x="18" y="1618" type="qcurve"/>
      <point x="28" y="1578" type="line"/>
      <point x="-23" y="1526"/>
      <point x="-170" y="1454"/>
      <point x="-264" y="1454" type="qcurve" smooth="yes"/>
      <point x="-352" y="1454"/>
      <point x="-488" y="1526"/>
      <point x="-536" y="1586" type="qcurve"/>
      <point x="-514" y="1626" type="line"/>
      <point x="-462" y="1565"/>
      <point x="-337" y="1500"/>
    </contour>
    <contour>
      <point x="-147" y="1291" type="move" name="_top"/>
    </contour>
  </outline>
</glyph>
<glyph name="eshortvowelsigndeva" format="1">
  <advance width="0"/>
  <unicode hex="0946"/>
  <outline>
    <contour>
      <point x="-66" y="1262" type="line"/>
      <point x="-54" y="1335" type="line" smooth="yes"/>
      <point x="-36" y="1439"/>
      <point x="-101" y="1516"/>
      <point x="-164" y="1516" type="qcurve" smooth="yes"/>
      <point x="-203" y="1516"/>
      <point x="-371" y="1469"/>
      <point x="-425" y="1469" type="qcurve" smooth="yes"/>
      <point x="-472" y="1469"/>
      <point x="-554" y="1496"/>
      <point x="-605" y="1538" type="qcurve"/>
      <point x="-582" y="1576" type="line"/>
      <point x="-542" y="1542"/>
      <point x="-471" y="1513"/>
      <point x="-422" y="1513" type="qcurve" smooth="yes"/>
      <point x="-369" y="1513"/>
      <point x="-199" y="1563"/>
      <point x="-149" y="1563" type="qcurve" smooth="yes"/>
      <point x="-70" y="1563"/>
      <point x="16" y="1460"/>
      <point x="-4" y="1343" type="qcurve" smooth="yes"/>
      <point x="-18" y="1262" type="line"/>
    </contour>
    <contour>
      <point x="-147" y="1291" type="move" name="_top"/>
    </contour>
  </outline>
</glyph>
<glyph name="evowelsigndeva" format="1">
  <advance width="0.0"/>
  <unicode hex="0947"/>
  <outline>
    <contour>
      <point x="-80" y="1262" type="line"/>
      <point x="-384" y="1716" type="line"/>
      <point x="-341" y="1741" type="line"/>
      <point x="-21" y="1262" type="line"/>
    </contour>
    <contour>
      <point x="-107" y="1256" type="move" name="_top"/>
    </contour>
  </outline>
</glyph>
<glyph name="aivowelsigndeva" format="1">
  <advance width="0"/>
  <unicode hex="0948"/>
  <outline>
    <contour>
      <point x="-124" y="1262" type="line"/>
      <point x="-568" y="1630" type="line"/>
      <point x="-536" y="1666" type="line"/>
      <point x="-49" y="1262" type="line"/>
    </contour>
    <contour>
      <point x="-71" y="1262" type="line"/>
      <point x="-212" y="1778" type="line"/>
      <point x="-165" y="1793" type="line"/>
      <point x="-23" y="1262" type="line"/>
    </contour>
    <contour>
      <point x="-107" y="1256" type="move" name="_top"/>
    </contour>
  </outline>
</glyph>
<glyph name="viramadeva" format="1">
  <advance width="0"/>
  <unicode hex="094D"/>
  <outline>
    <contour>
      <point x="-299" y="-84" type="line"/>
      <point x="17" y="-266" type="line"/>
      <point x="-7" y="-305" type="line"/>
      <point x="-326" y="-122" type="line"/>
    </contour>
    <contour>
      <point x="-320" y="-18" type="move" name="_btm"/>
    </contour>
  </outline>
</glyph>
<glyph name="prishthaevowelsign" format="1">
  <advance width="494"/>
  <unicode hex="094E"/>
  <outline>
    <contour>
      <point x="408" y="1255" type="line"/>
      <point x="456" y="1255" type="line"/>
      <point x="243" y="0" type="line"/>
      <point x="195" y="0" type="line"/>
    </contour>
    <contour>
      <point x="739" y="1225" type="line"/>
      <point x="403" y="1225" type="line"/>
      <point x="412" y="1274" type="line"/>
      <point x="748" y="1274" type="line"/>
    </contour>
  </outline>
</glyph>
<glyph name="awvowelsigndevaKSH" format="1">
  <advance width="494"/>
  <unicode hex="094F"/>
  <outline>
    <contour>
      <point x="409" y="1262" type="line"/>
      <point x="449" y="1502" type="line" smooth="yes"/>
      <point x="458" y="1552"/>
      <point x="415" y="1610"/>
      <point x="370" y="1610" type="qcurve" smooth="yes"/>
      <point x="334" y="1610"/>
      <point x="224" y="1579"/>
      <point x="176" y="1579" type="qcurve" smooth="yes"/>
      <point x="127" y="1579"/>
      <point x="54" y="1603"/>
      <point x="9" y="1649" type="qcurve"/>
      <point x="33" y="1686" type="line"/>
      <point x="80" y="1643"/>
      <point x="140" y="1623"/>
      <point x="177" y="1623" type="qcurve" smooth="yes"/>
      <point x="222" y="1623"/>
      <point x="349" y="1657"/>
      <point x="384" y="1657" type="qcurve" smooth="yes"/>
      <point x="445" y="1657"/>
      <point x="510" y="1579"/>
      <point x="498" y="1508" type="qcurve" smooth="yes"/>
      <point x="457" y="1262" type="line"/>
    </contour>
    <contour>
      <point x="374" y="1262" type="line"/>
      <point x="355" y="1310" type="line" smooth="yes"/>
      <point x="338" y="1352"/>
      <point x="270" y="1421"/>
      <point x="218" y="1421" type="qcurve" smooth="yes"/>
      <point x="173" y="1421"/>
      <point x="35" y="1375"/>
      <point x="-9" y="1375" type="qcurve" smooth="yes"/>
      <point x="-48" y="1375"/>
      <point x="-123" y="1409"/>
      <point x="-163" y="1443" type="qcurve"/>
      <point x="-139" y="1479" type="line"/>
      <point x="-104" y="1450"/>
      <point x="-40" y="1420"/>
      <point x="-7" y="1420" type="qcurve" smooth="yes"/>
      <point x="36" y="1420"/>
      <point x="184" y="1467"/>
      <point x="226" y="1467" type="qcurve" smooth="yes"/>
      <point x="294" y="1467"/>
      <point x="376" y="1389"/>
      <point x="394" y="1340" type="qcurve" smooth="yes"/>
      <point x="424" y="1262" type="line"/>
    </contour>
    <component base="aavowelsigndeva" xOffset="2"/>
  </outline>
</glyph>
<glyph name="omdeva" format="1">
  <advance width="1806"/>
  <unicode hex="0950"/>
  <outline>
    <contour>
      <point x="1314" y="306" type="qcurve"/>
      <point x="1324" y="350" type="line"/>
      <point x="1348" y="343"/>
      <point x="1393" y="337"/>
      <point x="1417" y="337" type="qcurve" smooth="yes"/>
      <point x="1521" y="337"/>
      <point x="1656" y="470"/>
      <point x="1675" y="590" type="qcurve" smooth="yes"/>
      <point x="1701" y="740"/>
      <point x="1607" y="908"/>
      <point x="1520" y="908" type="qcurve" smooth="yes"/>
      <point x="1443" y="908"/>
      <point x="1314" y="791"/>
      <point x="1245" y="625" type="qcurve" smooth="yes"/>
      <point x="1174" y="453"/>
      <point x="1022" y="344"/>
      <point x="934" y="344" type="qcurve" smooth="yes"/>
      <point x="905" y="344"/>
      <point x="875" y="348"/>
      <point x="846" y="356" type="qcurve"/>
      <point x="854" y="403" type="line"/>
      <point x="873" y="397"/>
      <point x="904" y="392"/>
      <point x="937" y="392" type="qcurve" smooth="yes"/>
      <point x="1014" y="392"/>
      <point x="1139" y="489"/>
      <point x="1200" y="636" type="qcurve" smooth="yes"/>
      <point x="1280" y="827"/>
      <point x="1437" y="955"/>
      <point x="1527" y="955" type="qcurve" smooth="yes"/>
      <point x="1639" y="955"/>
      <point x="1754" y="760"/>
      <point x="1724" y="584" type="qcurve" smooth="yes"/>
      <point x="1702" y="452"/>
      <point x="1541" y="292"/>
      <point x="1416" y="292" type="qcurve" smooth="yes"/>
      <point x="1386" y="292"/>
      <point x="1346" y="298"/>
    </contour>
    <contour>
      <point x="453" y="703" type="qcurve"/>
      <point x="461" y="751" type="line"/>
      <point x="694" y="755"/>
      <point x="881" y="920"/>
      <point x="898" y="1023" type="qcurve" smooth="yes"/>
      <point x="913" y="1114"/>
      <point x="800" y="1235"/>
      <point x="692" y="1235" type="qcurve" smooth="yes"/>
      <point x="630" y="1235"/>
      <point x="518" y="1210"/>
      <point x="458" y="1176" type="qcurve"/>
      <point x="459" y="1227" type="line"/>
      <point x="524" y="1261"/>
      <point x="639" y="1284"/>
      <point x="701" y="1284" type="qcurve" smooth="yes"/>
      <point x="823" y="1284"/>
      <point x="965" y="1136"/>
      <point x="946" y="1020" type="qcurve" smooth="yes"/>
      <point x="924" y="893"/>
      <point x="696" y="705"/>
    </contour>
    <contour>
      <point x="611" y="763" type="line"/>
      <point x="770" y="758"/>
      <point x="900" y="555"/>
      <point x="881" y="434" type="qcurve" smooth="yes"/>
      <point x="856" y="291"/>
      <point x="640" y="123"/>
      <point x="499" y="123" type="qcurve" smooth="yes"/>
      <point x="426" y="123"/>
      <point x="274" y="164"/>
      <point x="224" y="187" type="qcurve"/>
      <point x="240" y="237" type="line"/>
      <point x="295" y="207"/>
      <point x="435" y="172"/>
      <point x="508" y="172" type="qcurve" smooth="yes"/>
      <point x="632" y="172"/>
      <point x="815" y="321"/>
      <point x="835" y="440" type="qcurve" smooth="yes"/>
      <point x="852" y="539"/>
      <point x="739" y="725"/>
      <point x="588" y="726" type="qcurve"/>
    </contour>
    <component base="candrabindudeva" xOffset="1696" yOffset="-318"/>
  </outline>
</glyph>
<glyph name="anudattadeva" format="1">
  <advance width="0"/>
  <unicode hex="0952"/>
  <outline>
    <contour>
      <point x="-888" y="-120" type="line"/>
      <point x="-881" y="-77" type="line"/>
      <point x="-244" y="-77" type="line"/>
      <point x="-252" y="-120" type="line"/>
    </contour>
    <contour>
      <point x="-362" y="12" type="move" name="_btm"/>
    </contour>
  </outline>
</glyph>
<glyph name="uni0953" format="1">
  <advance width="0"/>
  <unicode hex="0953"/>
  <outline>
    <contour>
      <point x="-302" y="1450" type="line"/>
      <point x="-342" y="1450" type="line"/>
      <point x="-505" y="1781" type="line"/>
      <point x="-431" y="1781" type="line"/>
    </contour>
    <contour>
      <point x="10" y="-9" type="move" name="x4"/>
    </contour>
  </outline>
</glyph>
<glyph name="uni0954" format="1">
  <advance width="0"/>
  <unicode hex="0954"/>
  <outline>
    <contour>
      <point x="111" y="1781" type="line"/>
      <point x="184" y="1781" type="line"/>
      <point x="-33" y="1450" type="line"/>
      <point x="-72" y="1450" type="line"/>
    </contour>
    <contour>
      <point x="8" y="-9" type="move" name="x4"/>
    </contour>
  </outline>
</glyph>
<glyph name="candralongevowelsigndeva" format="1">
  <advance width="0"/>
  <unicode hex="0955"/>
  <outline>
    <component base="ecandravowelsigndeva" yScale="0.888837277889" xOffset="246" yOffset="298"/>
    <component base="anudattadeva" xOffset="275" yOffset="1543"/>
    <contour>
      <point x="-149" y="1279" type="move" name="_top"/>
    </contour>
  </outline>
</glyph>
<glyph name="uevowelsigndevaKSH" format="1">
  <advance width="0"/>
  <unicode hex="0956"/>
  <outline>
    <contour>
      <point x="16" y="-104" type="line"/>
      <point x="-49" y="-165"/>
      <point x="-202" y="-228"/>
      <point x="-292" y="-228" type="qcurve" smooth="yes"/>
      <point x="-365" y="-228"/>
      <point x="-501" y="-173"/>
      <point x="-567" y="-110" type="qcurve"/>
      <point x="-549" y="-69" type="line"/>
      <point x="-488" y="-130"/>
      <point x="-357" y="-183"/>
      <point x="-285" y="-183" type="qcurve" smooth="yes"/>
      <point x="-201" y="-183"/>
      <point x="-63" y="-127"/>
      <point x="4" y="-67" type="qcurve"/>
    </contour>
    <contour>
      <point x="-362" y="12" type="move" name="_btm"/>
    </contour>
  </outline>
</glyph>
<glyph name="uuevowelsigndevaKSH" format="1">
  <advance width="0"/>
  <unicode hex="0957"/>
  <outline>
    <component base="uevowelsigndevaKSH" yScale="0.915369153023" xOffset="-56" yOffset="-9"/>
    <component base="uevowelsigndevaKSH" xScale="1.05154466629" yScale="0.889850735664" xOffset="-39" yOffset="-179"/>
    <contour>
      <point x="-364" y="0" type="move" name="_btm"/>
    </contour>
  </outline>
</glyph>
<glyph name="qadeva" format="1">
  <advance width="1446"/>
  <unicode hex="0958"/>
  <outline>
    <component base="kadeva" xOffset="-10"/>
    <component base="nuktadeva" xOffset="935"/>
    <contour>
      <point x="656" y="0" type="move" name="btm"/>
    </contour>
    <contour>
      <point x="872" y="1279" type="move" name="top"/>
    </contour>
  </outline>
</glyph>
<glyph name="khhadeva" format="1">
  <advance width="1609"/>
  <unicode hex="0959"/>
  <outline>
    <component base="khadeva" xOffset="-10"/>
    <component base="nuktadeva" xOffset="1015"/>
    <contour>
      <point x="1396" y="1279" type="move" name="top"/>
    </contour>
  </outline>
</glyph>
<glyph name="ghhadeva" format="1">
  <advance width="1127"/>
  <unicode hex="095A"/>
  <outline>
    <component base="gadeva" xOffset="-11"/>
    <component base="nuktadeva" xOffset="1064"/>
    <contour>
      <point x="1023" y="1279" type="move" name="top"/>
    </contour>
  </outline>
</glyph>
<glyph name="zadeva" format="1">
  <advance width="1275"/>
  <unicode hex="095B"/>
  <outline>
    <component base="jadeva" xOffset="-23"/>
    <component base="nuktadeva" xOffset="967" yOffset="-79"/>
    <contour>
      <point x="1298" y="1279" type="move" name="top"/>
    </contour>
  </outline>
</glyph>
<glyph name="dddhadeva" format="1">
  <advance width="1005"/>
  <unicode hex="095C"/>
  <outline>
    <component base="ddadeva" xOffset="-41"/>
    <component base="nuktadeva" xOffset="1284" yOffset="-180"/>
    <contour>
      <point x="423" y="-413" type="move" name="btm"/>
    </contour>
    <contour>
      <point x="917" y="1278" type="move" name="top"/>
    </contour>
  </outline>
</glyph>
<glyph name="rhadeva" format="1">
  <advance width="1008"/>
  <unicode hex="095D"/>
  <outline>
    <component base="ddhadeva" xOffset="-41"/>
    <component base="nuktadeva" xOffset="1314" yOffset="-180"/>
    <contour>
      <point x="435" y="-401" type="move" name="btm"/>
    </contour>
    <contour>
      <point x="892" y="1279" type="move" name="top"/>
    </contour>
  </outline>
</glyph>
<glyph name="fadeva" format="1">
  <advance width="1468"/>
  <unicode hex="095E"/>
  <outline>
    <component base="phadeva" xOffset="-10"/>
    <component base="nuktadeva" xOffset="1055"/>
    <contour>
      <point x="691" y="0" type="move" name="btm"/>
    </contour>
    <contour>
      <point x="908" y="1279" type="move" name="top"/>
    </contour>
  </outline>
</glyph>
<glyph name="yyadeva" format="1">
  <advance width="1105"/>
  <unicode hex="095F"/>
  <outline>
    <component base="yadeva" xOffset="-11"/>
    <component base="nuktadeva" xOffset="1094"/>
    <contour>
      <point x="1022" y="1279" type="move" name="top"/>
    </contour>
  </outline>
</glyph>
<glyph name="rrvocalicdeva" format="1">
  <advance width="1508"/>
  <unicode hex="0960"/>
  <outline>
    <contour>
      <point x="1131" y="1225" type="line"/>
      <point x="1140" y="1274" type="line"/>
      <point x="1753" y="1274" type="line"/>
      <point x="1744" y="1225" type="line"/>
    </contour>
    <contour>
      <point x="177" y="1225" type="line"/>
      <point x="186" y="1274" type="line"/>
      <point x="1278" y="1274" type="line"/>
      <point x="1269" y="1225" type="line"/>
    </contour>
    <contour>
      <point x="937" y="1253" type="line"/>
      <point x="984" y="1253" type="line"/>
      <point x="772" y="0" type="line"/>
      <point x="725" y="0" type="line"/>
    </contour>
    <contour>
      <point x="1258" y="741" type="line"/>
      <point x="1378" y="461" type="line"/>
      <point x="1370" y="439" type="line"/>
      <point x="1271" y="411"/>
      <point x="1178" y="326"/>
      <point x="1169" y="276" type="qcurve" smooth="yes"/>
      <point x="1160" y="221"/>
      <point x="1226" y="148"/>
      <point x="1294" y="148" type="qcurve" smooth="yes"/>
      <point x="1313" y="148"/>
      <point x="1348" y="153"/>
      <point x="1375" y="160" type="qcurve"/>
      <point x="1373" y="118" type="line"/>
      <point x="1346" y="109"/>
      <point x="1307" y="104"/>
      <point x="1286" y="104" type="qcurve" smooth="yes"/>
      <point x="1203" y="104"/>
      <point x="1111" y="202"/>
      <point x="1124" y="278" type="qcurve" smooth="yes"/>
      <point x="1134" y="339"/>
      <point x="1240" y="444"/>
      <point x="1338" y="475" type="qcurve"/>
      <point x="1324" y="459" type="line"/>
      <point x="1213" y="715" type="line"/>
    </contour>
    <contour>
      <point x="1308" y="729" type="qcurve" smooth="yes"/>
      <point x="1239" y="669"/>
      <point x="998" y="599"/>
      <point x="856" y="599" type="qcurve"/>
      <point x="867" y="647" type="line"/>
      <point x="983" y="647"/>
      <point x="1193" y="702"/>
      <point x="1256" y="745" type="qcurve"/>
      <point x="1216" y="703" type="line"/>
      <point x="1198" y="727"/>
      <point x="1183" y="755"/>
      <point x="1186" y="774" type="qcurve" smooth="yes"/>
      <point x="1190" y="798"/>
      <point x="1238" y="830"/>
      <point x="1274" y="830" type="qcurve" smooth="yes"/>
      <point x="1304" y="830"/>
      <point x="1339" y="797"/>
      <point x="1335" y="775" type="qcurve" smooth="yes"/>
      <point x="1333" y="761"/>
      <point x="1321" y="740"/>
    </contour>
    <contour>
      <point x="855" y="582" type="line"/>
      <point x="267" y="257" type="line"/>
      <point x="246" y="298" type="line"/>
      <point x="844" y="626" type="line"/>
    </contour>
    <contour>
      <point x="217" y="840" type="line"/>
      <point x="270" y="868"/>
      <point x="379" y="900"/>
      <point x="436" y="900" type="qcurve" smooth="yes"/>
      <point x="488" y="900"/>
      <point x="608" y="846"/>
      <point x="679" y="793" type="qcurve" smooth="yes"/>
      <point x="856" y="661" type="line"/>
      <point x="845" y="602" type="line"/>
      <point x="633" y="758" type="line" smooth="yes"/>
      <point x="568" y="806"/>
      <point x="468" y="849"/>
      <point x="426" y="849" type="qcurve" smooth="yes"/>
      <point x="375" y="849"/>
      <point x="280" y="821"/>
      <point x="219" y="791" type="qcurve"/>
    </contour>
  </outline>
</glyph>
<glyph name="llvocalicdeva" format="1">
  <advance width="1357"/>
  <unicode hex="0961"/>
  <outline>
    <contour>
      <point x="1267" y="1235" type="line"/>
      <point x="1315" y="1235" type="line"/>
      <point x="1242" y="801" type="line"/>
      <point x="1194" y="801" type="line"/>
    </contour>
    <contour>
      <point x="177" y="1225" type="line"/>
      <point x="186" y="1274" type="line"/>
      <point x="1603" y="1274" type="line"/>
      <point x="1594" y="1225" type="line"/>
    </contour>
    <contour>
      <point x="790" y="544" type="qcurve"/>
      <point x="737" y="509" type="line"/>
      <point x="750" y="664"/>
      <point x="608" y="815"/>
      <point x="513" y="815" type="qcurve" smooth="yes"/>
      <point x="425" y="815"/>
      <point x="265" y="671"/>
      <point x="244" y="546" type="qcurve" smooth="yes"/>
      <point x="223" y="419"/>
      <point x="290" y="206"/>
      <point x="374" y="82" type="qcurve"/>
      <point x="329" y="62" type="line"/>
      <point x="240" y="195"/>
      <point x="174" y="417"/>
      <point x="197" y="550" type="qcurve" smooth="yes"/>
      <point x="221" y="690"/>
      <point x="404" y="865"/>
      <point x="518" y="865" type="qcurve" smooth="yes"/>
      <point x="639" y="865"/>
      <point x="798" y="702"/>
    </contour>
    <contour>
      <point x="1215" y="374" type="line" smooth="yes"/>
      <point x="1131" y="374"/>
      <point x="1030" y="303"/>
      <point x="1020" y="245" type="qcurve" smooth="yes"/>
      <point x="1011" y="185"/>
      <point x="1084" y="115"/>
      <point x="1164" y="115" type="qcurve" smooth="yes"/>
      <point x="1195" y="115"/>
      <point x="1243" y="119"/>
      <point x="1280" y="126" type="qcurve"/>
      <point x="1283" y="86" type="line"/>
      <point x="1256" y="78"/>
      <point x="1192" y="70"/>
      <point x="1156" y="70" type="qcurve" smooth="yes"/>
      <point x="1060" y="70"/>
      <point x="959" y="165"/>
      <point x="973" y="246" type="qcurve" smooth="yes"/>
      <point x="987" y="324"/>
      <point x="1123" y="419"/>
      <point x="1217" y="419" type="qcurve" smooth="yes"/>
      <point x="1270" y="419" type="line"/>
      <point x="1233" y="398" type="line"/>
      <point x="1247" y="432"/>
      <point x="1268" y="506"/>
      <point x="1275" y="546" type="qcurve" smooth="yes"/>
      <point x="1295" y="671"/>
      <point x="1184" y="817"/>
      <point x="1088" y="817" type="qcurve" smooth="yes"/>
      <point x="993" y="817"/>
      <point x="809" y="649"/>
      <point x="781" y="490" type="qcurve" smooth="yes"/>
      <point x="760" y="368" type="line"/>
      <point x="712" y="368" type="line"/>
      <point x="736" y="506" type="line" smooth="yes"/>
      <point x="763" y="672"/>
      <point x="974" y="865"/>
      <point x="1101" y="865" type="qcurve" smooth="yes"/>
      <point x="1218" y="865"/>
      <point x="1347" y="690"/>
      <point x="1324" y="550" type="qcurve" smooth="yes"/>
      <point x="1316" y="508"/>
      <point x="1289" y="412"/>
      <point x="1273" y="374" type="qcurve"/>
    </contour>
    <contour>
      <point x="1266" y="-157" type="line"/>
      <point x="1232" y="-169"/>
      <point x="1180" y="-178"/>
      <point x="1145" y="-178" type="qcurve" smooth="yes"/>
      <point x="1061" y="-178"/>
      <point x="977" y="-95"/>
      <point x="988" y="-29" type="qcurve" smooth="yes"/>
      <point x="1000" y="38"/>
      <point x="1117" y="114"/>
      <point x="1195" y="114" type="qcurve" smooth="yes"/>
      <point x="1205" y="114" type="line"/>
      <point x="1198" y="73" type="line"/>
      <point x="1192" y="73" type="line" smooth="yes"/>
      <point x="1123" y="73"/>
      <point x="1041" y="16"/>
      <point x="1033" y="-32" type="qcurve" smooth="yes"/>
      <point x="1025" y="-77"/>
      <point x="1087" y="-138"/>
      <point x="1152" y="-138" type="qcurve" smooth="yes"/>
      <point x="1183" y="-138"/>
      <point x="1226" y="-130"/>
      <point x="1263" y="-119" type="qcurve"/>
    </contour>
  </outline>
</glyph>
<glyph name="lvocalicvowelsigndeva" format="1">
  <advance width="0.0"/>
  <unicode hex="0962"/>
  <outline>
    <contour>
      <point x="32" y="-53" type="qcurve" smooth="yes"/>
      <point x="29" y="-71"/>
      <point x="20" y="-108"/>
      <point x="13" y="-130" type="qcurve"/>
      <point x="-20" y="-130" type="line" smooth="yes"/>
      <point x="-72" y="-130"/>
      <point x="-117" y="-167"/>
      <point x="-121" y="-192" type="qcurve" smooth="yes"/>
      <point x="-125" y="-218"/>
      <point x="-87" y="-251"/>
      <point x="-48" y="-250" type="qcurve" smooth="yes"/>
      <point x="-29" y="-249"/>
      <point x="14" y="-240"/>
      <point x="30" y="-236" type="qcurve"/>
      <point x="32" y="-271" type="line"/>
      <point x="16" y="-276"/>
      <point x="-26" y="-285"/>
      <point x="-49" y="-285" type="qcurve" smooth="yes"/>
      <point x="-115" y="-285"/>
      <point x="-169" y="-230"/>
      <point x="-163" y="-192" type="qcurve" smooth="yes"/>
      <point x="-155" y="-145"/>
      <point x="-80" y="-93"/>
      <point x="-31" y="-93" type="qcurve" smooth="yes"/>
      <point x="-3" y="-93" type="line"/>
      <point x="-22" y="-107" type="line"/>
      <point x="-19" y="-97"/>
      <point x="-14" y="-79"/>
      <point x="-10" y="-60" type="qcurve" smooth="yes"/>
      <point x="-3" y="-15"/>
      <point x="-55" y="57"/>
      <point x="-103" y="57" type="qcurve" smooth="yes"/>
      <point x="-154" y="57"/>
      <point x="-233" y="-23"/>
      <point x="-244" y="-85" type="qcurve" smooth="yes"/>
      <point x="-254" y="-145" type="line"/>
      <point x="-302" y="-145" type="line"/>
      <point x="-291" y="-74" type="line" smooth="yes"/>
      <point x="-279" y="-3"/>
      <point x="-164" y="97"/>
      <point x="-100" y="97" type="qcurve" smooth="yes"/>
      <point x="-28" y="97"/>
      <point x="40" y="2"/>
    </contour>
    <contour>
      <point x="-293" y="-87" type="line"/>
      <point x="-283" y="-31"/>
      <point x="-346" y="57"/>
      <point x="-397" y="57" type="qcurve" smooth="yes"/>
      <point x="-438" y="57"/>
      <point x="-514" y="-3"/>
      <point x="-522" y="-52" type="qcurve" smooth="yes"/>
      <point x="-531" y="-102"/>
      <point x="-490" y="-203"/>
      <point x="-447" y="-256" type="qcurve"/>
      <point x="-493" y="-266" type="line"/>
      <point x="-532" y="-218"/>
      <point x="-574" y="-107"/>
      <point x="-565" y="-50" type="qcurve" smooth="yes"/>
      <point x="-555" y="14"/>
      <point x="-453" y="100"/>
      <point x="-392" y="100" type="qcurve" smooth="yes"/>
      <point x="-324" y="100"/>
      <point x="-241" y="-2"/>
      <point x="-251" y="-61" type="qcurve"/>
    </contour>
    <contour>
      <point x="-362" y="12" type="move" name="_btm"/>
    </contour>
  </outline>
</glyph>
<glyph name="llvocalicvowelsigndeva" format="1">
  <advance width="0"/>
  <unicode hex="0963"/>
  <outline>
    <contour>
      <point x="-293" y="-87" type="line"/>
      <point x="-283" y="-31"/>
      <point x="-346" y="57"/>
      <point x="-397" y="57" type="qcurve" smooth="yes"/>
      <point x="-438" y="57"/>
      <point x="-512" y="-2"/>
      <point x="-521" y="-51" type="qcurve" smooth="yes"/>
      <point x="-530" y="-102"/>
      <point x="-490" y="-203"/>
      <point x="-447" y="-256" type="qcurve"/>
      <point x="-493" y="-266" type="line"/>
      <point x="-532" y="-218"/>
      <point x="-574" y="-107"/>
      <point x="-565" y="-50" type="qcurve" smooth="yes"/>
      <point x="-555" y="14"/>
      <point x="-453" y="100"/>
      <point x="-392" y="100" type="qcurve" smooth="yes"/>
      <point x="-324" y="100"/>
      <point x="-241" y="-2"/>
      <point x="-251" y="-61" type="qcurve"/>
    </contour>
    <contour>
      <point x="-30" y="-130" type="line" smooth="yes"/>
      <point x="-70" y="-130"/>
      <point x="-113" y="-159"/>
      <point x="-117" y="-178" type="qcurve" smooth="yes"/>
      <point x="-120" y="-196"/>
      <point x="-88" y="-225"/>
      <point x="-46" y="-225" type="qcurve" smooth="yes"/>
      <point x="-27" y="-225"/>
      <point x="3" y="-221"/>
      <point x="25" y="-218" type="qcurve"/>
      <point x="26" y="-251" type="line"/>
      <point x="9" y="-255"/>
      <point x="-30" y="-260"/>
      <point x="-52" y="-260" type="qcurve" smooth="yes"/>
      <point x="-113" y="-260"/>
      <point x="-163" y="-208"/>
      <point x="-157" y="-176" type="qcurve" smooth="yes"/>
      <point x="-151" y="-139"/>
      <point x="-80" y="-93"/>
      <point x="-28" y="-93" type="qcurve" smooth="yes"/>
      <point x="-3" y="-93" type="line"/>
      <point x="-22" y="-107" type="line"/>
      <point x="-19" y="-97"/>
      <point x="-14" y="-79"/>
      <point x="-10" y="-60" type="qcurve" smooth="yes"/>
      <point x="-3" y="-15"/>
      <point x="-55" y="57"/>
      <point x="-103" y="57" type="qcurve" smooth="yes"/>
      <point x="-154" y="57"/>
      <point x="-233" y="-23"/>
      <point x="-244" y="-85" type="qcurve" smooth="yes"/>
      <point x="-254" y="-145" type="line"/>
      <point x="-302" y="-145" type="line"/>
      <point x="-291" y="-74" type="line" smooth="yes"/>
      <point x="-279" y="-3"/>
      <point x="-164" y="97"/>
      <point x="-100" y="97" type="qcurve" smooth="yes"/>
      <point x="-28" y="97"/>
      <point x="40" y="2"/>
      <point x="32" y="-53" type="qcurve" smooth="yes"/>
      <point x="29" y="-71"/>
      <point x="20" y="-108"/>
      <point x="13" y="-130" type="qcurve"/>
    </contour>
    <contour>
      <point x="21" y="-360" type="line"/>
      <point x="1" y="-366"/>
      <point x="-31" y="-370"/>
      <point x="-51" y="-370" type="qcurve" smooth="yes"/>
      <point x="-100" y="-370"/>
      <point x="-147" y="-329"/>
      <point x="-141" y="-295" type="qcurve" smooth="yes"/>
      <point x="-136" y="-266"/>
      <point x="-77" y="-226"/>
      <point x="-29" y="-226" type="qcurve" smooth="yes"/>
      <point x="-22" y="-226" type="line"/>
      <point x="-27" y="-258" type="line"/>
      <point x="-30" y="-258" type="line" smooth="yes"/>
      <point x="-70" y="-258"/>
      <point x="-99" y="-281"/>
      <point x="-102" y="-299" type="qcurve" smooth="yes"/>
      <point x="-105" y="-316"/>
      <point x="-78" y="-338"/>
      <point x="-44" y="-338" type="qcurve" smooth="yes"/>
      <point x="-27" y="-338"/>
      <point x="0" y="-334"/>
      <point x="20" y="-330" type="qcurve"/>
    </contour>
    <contour>
      <point x="-362" y="12" type="move" name="_btm"/>
    </contour>
  </outline>
</glyph>
<glyph name="dandadeva" format="1">
  <advance width="757"/>
  <unicode hex="0964"/>
  <outline>
    <contour>
      <point x="328" y="-157" type="line"/>
      <point x="588" y="1381" type="line"/>
      <point x="636" y="1381" type="line"/>
      <point x="376" y="-157" type="line"/>
    </contour>
  </outline>
</glyph>
<glyph name="zerodeva" format="1">
  <advance width="1012"/>
  <unicode hex="0966"/>
  <outline>
    <contour>
      <point x="834" y="1042"/>
      <point x="1011" y="828"/>
      <point x="981" y="656" type="qcurve" smooth="yes"/>
      <point x="952" y="487"/>
      <point x="714" y="273"/>
      <point x="557" y="273" type="qcurve" smooth="yes"/>
      <point x="402" y="273"/>
      <point x="224" y="484"/>
      <point x="252" y="653" type="qcurve" smooth="yes"/>
      <point x="282" y="825"/>
      <point x="524" y="1042"/>
      <point x="676" y="1042" type="qcurve" smooth="yes"/>
    </contour>
    <contour>
      <point x="699" y="322"/>
      <point x="907" y="505"/>
      <point x="933" y="659" type="qcurve" smooth="yes"/>
      <point x="957" y="806"/>
      <point x="810" y="993"/>
      <point x="674" y="993" type="qcurve" smooth="yes"/>
      <point x="531" y="993"/>
      <point x="326" y="805"/>
      <point x="300" y="653" type="qcurve" smooth="yes"/>
      <point x="276" y="505"/>
      <point x="432" y="322"/>
      <point x="558" y="322" type="qcurve" smooth="yes"/>
    </contour>
  </outline>
</glyph>
<glyph name="onedeva" format="1">
  <advance width="780"/>
  <unicode hex="0967"/>
  <outline>
    <contour>
      <point x="545" y="224" type="qcurve" smooth="yes"/>
      <point x="253" y="416" type="line"/>
      <point x="257" y="439" type="line"/>
      <point x="598" y="701" type="line" smooth="yes"/>
      <point x="692" y="774"/>
      <point x="788" y="901"/>
      <point x="799" y="967" type="qcurve" smooth="yes"/>
      <point x="816" y="1067"/>
      <point x="705" y="1203"/>
      <point x="596" y="1203" type="qcurve" smooth="yes"/>
      <point x="494" y="1203"/>
      <point x="339" y="1065"/>
      <point x="322" y="967" type="qcurve" smooth="yes"/>
      <point x="303" y="854"/>
      <point x="465" y="718"/>
      <point x="633" y="718" type="qcurve"/>
      <point x="601" y="675" type="line"/>
      <point x="438" y="675"/>
      <point x="251" y="832"/>
      <point x="275" y="970" type="qcurve" smooth="yes"/>
      <point x="295" y="1089"/>
      <point x="483" y="1251"/>
      <point x="598" y="1251" type="qcurve" smooth="yes"/>
      <point x="735" y="1251"/>
      <point x="868" y="1088"/>
      <point x="847" y="966" type="qcurve" smooth="yes"/>
      <point x="834" y="890"/>
      <point x="730" y="749"/>
      <point x="631" y="673" type="qcurve" smooth="yes"/>
      <point x="295" y="411" type="line"/>
      <point x="301" y="446" type="line"/>
      <point x="574" y="265" type="line" smooth="yes"/>
      <point x="624" y="231"/>
      <point x="653" y="150"/>
      <point x="643" y="94" type="qcurve" smooth="yes"/>
      <point x="639" y="72" type="line"/>
      <point x="591" y="72" type="line"/>
      <point x="594" y="90" type="line" smooth="yes"/>
      <point x="603" y="140"/>
      <point x="581" y="200"/>
    </contour>
  </outline>
</glyph>
<glyph name="twodeva" format="1">
  <advance width="828"/>
  <unicode hex="0968"/>
  <outline>
    <contour>
      <point x="438" y="517" type="line"/>
      <point x="675" y="80" type="line"/>
      <point x="628" y="59" type="line"/>
      <point x="395" y="497" type="line"/>
    </contour>
    <contour>
      <point x="311" y="466" type="qcurve" smooth="yes"/>
      <point x="281" y="466"/>
      <point x="259" y="499"/>
      <point x="264" y="528" type="qcurve" smooth="yes"/>
      <point x="269" y="557"/>
      <point x="323" y="614"/>
      <point x="359" y="614" type="qcurve" smooth="yes"/>
      <point x="385" y="614"/>
      <point x="421" y="578"/>
      <point x="442" y="526" type="qcurve"/>
      <point x="380" y="530" type="line"/>
      <point x="492" y="530"/>
      <point x="775" y="750"/>
      <point x="800" y="896" type="qcurve" smooth="yes"/>
      <point x="824" y="1039"/>
      <point x="660" y="1202"/>
      <point x="528" y="1202" type="qcurve" smooth="yes"/>
      <point x="481" y="1202"/>
      <point x="382" y="1183"/>
      <point x="313" y="1158" type="qcurve"/>
      <point x="311" y="1208" type="line"/>
      <point x="368" y="1228"/>
      <point x="479" y="1251"/>
      <point x="536" y="1251" type="qcurve" smooth="yes"/>
      <point x="690" y="1251"/>
      <point x="876" y="1062"/>
      <point x="848" y="894" type="qcurve" smooth="yes"/>
      <point x="819" y="721"/>
      <point x="474" y="466"/>
    </contour>
  </outline>
</glyph>
<glyph name="threedeva" format="1">
  <advance width="839"/>
  <unicode hex="0969"/>
  <outline>
    <contour>
      <point x="346" y="782" type="line"/>
      <point x="404" y="782" type="line" smooth="yes"/>
      <point x="550" y="782"/>
      <point x="744" y="898"/>
      <point x="760" y="997" type="qcurve" smooth="yes"/>
      <point x="777" y="1093"/>
      <point x="662" y="1201"/>
      <point x="552" y="1201" type="qcurve" smooth="yes"/>
      <point x="504" y="1201"/>
      <point x="413" y="1178"/>
      <point x="362" y="1154" type="qcurve"/>
      <point x="360" y="1201" type="line"/>
      <point x="417" y="1229"/>
      <point x="519" y="1250"/>
      <point x="560" y="1250" type="qcurve" smooth="yes"/>
      <point x="689" y="1250"/>
      <point x="828" y="1114"/>
      <point x="808" y="994" type="qcurve" smooth="yes"/>
      <point x="787" y="880"/>
      <point x="565" y="734"/>
      <point x="402" y="734" type="qcurve" smooth="yes"/>
      <point x="338" y="734" type="line"/>
    </contour>
    <contour>
      <point x="718" y="517" type="qcurve" smooth="yes"/>
      <point x="731" y="591"/>
      <point x="614" y="739"/>
      <point x="456" y="739" type="qcurve"/>
      <point x="469" y="780" type="line"/>
      <point x="610" y="790"/>
      <point x="780" y="630"/>
      <point x="761" y="520" type="qcurve" smooth="yes"/>
      <point x="742" y="399"/>
      <point x="555" y="266"/>
      <point x="442" y="266" type="qcurve" smooth="yes"/>
      <point x="407" y="266"/>
      <point x="296" y="294"/>
      <point x="272" y="298" type="qcurve"/>
      <point x="284" y="341" type="line"/>
      <point x="315" y="325"/>
      <point x="391" y="309"/>
      <point x="433" y="309" type="qcurve" smooth="yes"/>
      <point x="549" y="309"/>
      <point x="702" y="425"/>
    </contour>
    <contour>
      <point x="577" y="29" type="line"/>
      <point x="536" y="5" type="line"/>
      <point x="379" y="293" type="line"/>
      <point x="443" y="259" type="line"/>
      <point x="402" y="259" type="line" smooth="yes"/>
      <point x="330" y="259"/>
      <point x="218" y="303"/>
      <point x="224" y="338" type="qcurve" smooth="yes"/>
      <point x="230" y="373"/>
      <point x="273" y="408"/>
      <point x="298" y="408" type="qcurve" smooth="yes"/>
      <point x="334" y="408"/>
      <point x="404" y="350"/>
      <point x="434" y="293" type="qcurve"/>
      <point x="439" y="285" type="line"/>
    </contour>
  </outline>
</glyph>
<glyph name="fourdeva" format="1">
  <advance width="935"/>
  <unicode hex="096A"/>
  <outline>
    <contour>
      <point x="607" y="665" type="qcurve" smooth="yes"/>
      <point x="735" y="576"/>
      <point x="806" y="436"/>
      <point x="793" y="362" type="qcurve" smooth="yes"/>
      <point x="778" y="272"/>
      <point x="622" y="144"/>
      <point x="511" y="143" type="qcurve" smooth="yes"/>
      <point x="404" y="142"/>
      <point x="280" y="266"/>
      <point x="297" y="370" type="qcurve" smooth="yes"/>
      <point x="310" y="451"/>
      <point x="450" y="589"/>
      <point x="587" y="666" type="qcurve" smooth="yes"/>
      <point x="822" y="798"/>
      <point x="957" y="956"/>
      <point x="975" y="1057" type="qcurve" smooth="yes"/>
      <point x="982" y="1101"/>
      <point x="982" y="1152"/>
      <point x="976" y="1192" type="qcurve"/>
      <point x="1018" y="1201" type="line"/>
      <point x="1027" y="1157"/>
      <point x="1027" y="1091"/>
      <point x="1021" y="1055" type="qcurve" smooth="yes"/>
      <point x="1001" y="932"/>
      <point x="840" y="754"/>
      <point x="607" y="629" type="qcurve" smooth="yes"/>
      <point x="483" y="562"/>
      <point x="356" y="436"/>
      <point x="344" y="366" type="qcurve" smooth="yes"/>
      <point x="329" y="281"/>
      <point x="429" y="190"/>
      <point x="516" y="191" type="qcurve" smooth="yes"/>
      <point x="608" y="192"/>
      <point x="733" y="288"/>
      <point x="747" y="367" type="qcurve" smooth="yes"/>
      <point x="756" y="424"/>
      <point x="698" y="546"/>
      <point x="575" y="630" type="qcurve" smooth="yes"/>
      <point x="435" y="726"/>
      <point x="285" y="933"/>
      <point x="308" y="1068" type="qcurve" smooth="yes"/>
      <point x="314" y="1103"/>
      <point x="342" y="1173"/>
      <point x="361" y="1206" type="qcurve"/>
      <point x="404" y="1191" type="line"/>
      <point x="387" y="1166"/>
      <point x="361" y="1095"/>
      <point x="355" y="1061" type="qcurve" smooth="yes"/>
      <point x="334" y="937"/>
      <point x="489" y="747"/>
    </contour>
  </outline>
</glyph>
<glyph name="fivedeva" format="1">
  <advance width="908"/>
  <unicode hex="096B"/>
  <outline>
    <contour>
      <point x="543" y="492" type="qcurve" smooth="yes"/>
      <point x="614" y="492"/>
      <point x="732" y="518"/>
      <point x="771" y="539" type="qcurve"/>
      <point x="702" y="508" type="line"/>
      <point x="700" y="523"/>
      <point x="700" y="534"/>
      <point x="703" y="554" type="qcurve" smooth="yes"/>
      <point x="709" y="585"/>
      <point x="762" y="633"/>
      <point x="802" y="633" type="qcurve" smooth="yes"/>
      <point x="834" y="633"/>
      <point x="869" y="594"/>
      <point x="864" y="569" type="qcurve" smooth="yes"/>
      <point x="856" y="530"/>
      <point x="666" y="444"/>
      <point x="538" y="444" type="qcurve" smooth="yes"/>
      <point x="404" y="444"/>
      <point x="223" y="607"/>
      <point x="251" y="774" type="qcurve" smooth="yes"/>
      <point x="275" y="912"/>
      <point x="471" y="1149"/>
      <point x="648" y="1250" type="qcurve"/>
      <point x="678" y="1217" type="line"/>
      <point x="503" y="1123"/>
      <point x="319" y="896"/>
      <point x="297" y="769" type="qcurve" smooth="yes"/>
      <point x="275" y="635"/>
      <point x="422" y="492"/>
    </contour>
    <contour>
      <point x="709" y="484" type="line"/>
      <point x="754" y="499" type="line"/>
      <point x="882" y="71" type="line"/>
      <point x="839" y="54" type="line"/>
    </contour>
  </outline>
</glyph>
<glyph name="sixdeva" format="1">
  <advance width="854"/>
  <unicode hex="096C"/>
  <outline>
    <contour>
      <point x="674" y="786" type="qcurve"/>
      <point x="656" y="745" type="line"/>
      <point x="486" y="745"/>
      <point x="336" y="893"/>
      <point x="353" y="993" type="qcurve" smooth="yes"/>
      <point x="371" y="1111"/>
      <point x="565" y="1253"/>
      <point x="682" y="1253" type="qcurve" smooth="yes"/>
      <point x="748" y="1253"/>
      <point x="854" y="1232"/>
      <point x="903" y="1211" type="qcurve"/>
      <point x="886" y="1166" type="line"/>
      <point x="833" y="1191"/>
      <point x="724" y="1207"/>
      <point x="680" y="1206" type="qcurve" smooth="yes"/>
      <point x="570" y="1204"/>
      <point x="416" y="1085"/>
      <point x="400" y="991" type="qcurve" smooth="yes"/>
      <point x="387" y="913"/>
      <point x="509" y="786"/>
    </contour>
    <contour>
      <point x="504" y="246" type="qcurve" smooth="yes"/>
      <point x="383" y="246"/>
      <point x="239" y="387"/>
      <point x="259" y="500" type="qcurve" smooth="yes"/>
      <point x="278" y="611"/>
      <point x="493" y="787"/>
      <point x="700" y="787" type="qcurve" smooth="yes"/>
      <point x="754" y="787" type="line"/>
      <point x="746" y="738" type="line"/>
      <point x="691" y="738" type="line" smooth="yes"/>
      <point x="506" y="738"/>
      <point x="322" y="588"/>
      <point x="307" y="501" type="qcurve" smooth="yes"/>
      <point x="292" y="405"/>
      <point x="411" y="294"/>
      <point x="511" y="294" type="qcurve" smooth="yes"/>
      <point x="582" y="294"/>
      <point x="675" y="310"/>
      <point x="714" y="331" type="qcurve"/>
      <point x="646" y="300" type="line"/>
      <point x="643" y="315"/>
      <point x="643" y="326"/>
      <point x="646" y="346" type="qcurve" smooth="yes"/>
      <point x="652" y="377"/>
      <point x="705" y="425"/>
      <point x="745" y="425" type="qcurve" smooth="yes"/>
      <point x="777" y="425"/>
      <point x="812" y="386"/>
      <point x="807" y="361" type="qcurve" smooth="yes"/>
      <point x="799" y="322"/>
      <point x="632" y="246"/>
    </contour>
    <contour>
      <point x="652" y="276" type="line"/>
      <point x="696" y="291" type="line"/>
      <point x="785" y="23" type="line"/>
      <point x="743" y="6" type="line"/>
    </contour>
  </outline>
</glyph>
<glyph name="sevendeva" format="1">
  <advance width="1054"/>
  <unicode hex="096D"/>
  <outline>
    <contour>
      <point x="934" y="415" type="line"/>
      <point x="745" y="433"/>
      <point x="572" y="594"/>
      <point x="596" y="733" type="qcurve" smooth="yes"/>
      <point x="613" y="831"/>
      <point x="767" y="973"/>
      <point x="861" y="973" type="qcurve" smooth="yes"/>
      <point x="965" y="973"/>
      <point x="1094" y="807"/>
      <point x="1069" y="660" type="qcurve" smooth="yes"/>
      <point x="1036" y="468"/>
      <point x="763" y="187"/>
      <point x="589" y="187" type="qcurve" smooth="yes"/>
      <point x="416" y="187"/>
      <point x="221" y="447"/>
      <point x="265" y="708" type="qcurve" smooth="yes"/>
      <point x="290" y="854"/>
      <point x="400" y="1098"/>
      <point x="486" y="1210" type="qcurve"/>
      <point x="533" y="1197" type="line"/>
      <point x="444" y="1088"/>
      <point x="335" y="836"/>
      <point x="312" y="702" type="qcurve" smooth="yes"/>
      <point x="272" y="468"/>
      <point x="440" y="236"/>
      <point x="593" y="236" type="qcurve" smooth="yes"/>
      <point x="758" y="236"/>
      <point x="991" y="483"/>
      <point x="1021" y="666" type="qcurve" smooth="yes"/>
      <point x="1042" y="783"/>
      <point x="937" y="924"/>
      <point x="859" y="924" type="qcurve" smooth="yes"/>
      <point x="774" y="924"/>
      <point x="656" y="802"/>
      <point x="643" y="728" type="qcurve" smooth="yes"/>
      <point x="624" y="609"/>
      <point x="774" y="476"/>
      <point x="959" y="456" type="qcurve"/>
    </contour>
  </outline>
</glyph>
